<?xml version="1.0" encoding="utf-8"?>
<!-- Generator: Adobe Illustrator 22.1.0, SVG Export Plug-In . SVG Version: 6.00 Build 0)  -->
<svg version="1.1" id="Layer_1" xmlns="http://www.w3.org/2000/svg" xmlns:xlink="http://www.w3.org/1999/xlink" x="0px" y="0px"
	 viewBox="0 0 200 48" style="enable-background:new 0 0 200 48;" xml:space="preserve">
<style type="text/css">
	.st0{fill:#12100B;}
</style>
<g>
	<g>
		<path d="M33,40.3c0.2-0.1,0.5-0.3,0.7-0.5c0.2-0.1,0.4-0.2,0.6-0.4c0.2-0.1,0.3-0.3,0.5-0.4c0.2-0.1,0.4-0.3,0.6-0.4
			c0,0,0.1-0.1,0.1-0.1c0,0,0.1-0.1,0.1-0.1c0.2-0.1,0.3-0.3,0.5-0.4c0.1-0.1,0.2-0.3,0.4-0.4c0.1-0.1,0.3-0.2,0.4-0.3
			c0.1-0.1,0.1-0.1,0.1-0.2c0.1-0.1,0.2-0.2,0.3-0.3c0.1-0.1,0.1-0.2,0.2-0.3c0.2-0.2,0.5-0.5,0.7-0.8c0.2-0.2,0.3-0.4,0.5-0.6
			c0.1-0.2,0.2-0.3,0.3-0.5c0.1-0.1,0.1-0.1,0.2-0.2c0.2-0.2,0.4-0.5,0.5-0.7c0.1-0.1,0.1-0.2,0.1-0.3c0-0.1,0.1-0.1,0.1-0.2
			c0-0.1,0.1-0.1,0.1-0.2c0.1-0.2,0.2-0.4,0.3-0.6c0.1-0.2,0.2-0.3,0.3-0.5c0.1-0.2,0.1-0.3,0.2-0.5c0.1-0.2,0.2-0.3,0.2-0.5
			c0.3-0.7,0.5-1.5,0.8-2.2c0-0.1,0-0.2,0-0.3c0.1-0.3,0.1-0.6,0.2-0.9c0-0.1,0-0.3,0.1-0.4c0-0.2,0.1-0.5,0.1-0.7
			c0-0.2,0-0.4,0-0.6c0-0.1,0-0.2,0-0.2c0-0.2,0-0.3,0-0.5c0-0.1,0-0.2,0-0.2c0-0.1,0-0.2,0-0.3c0.1-0.7,0.1-1.5,0-2.3
			c0-0.4-0.1-0.8-0.2-1.1c0-0.4-0.1-0.8-0.2-1.2c-0.2-1-0.5-2.1-0.9-3c-0.1-0.1-0.1-0.3-0.2-0.4c-0.1-0.3-0.3-0.6-0.4-0.8
			c0-0.1-0.1-0.2-0.1-0.2c-0.1-0.2-0.2-0.5-0.3-0.7c-0.1-0.1-0.2-0.3-0.3-0.4C40,14.3,40,14.1,39.9,14c-0.3-0.4-0.5-0.8-0.8-1.2
			c-0.1-0.1-0.2-0.2-0.3-0.4c-0.1-0.1-0.2-0.3-0.3-0.4c-0.1-0.1-0.2-0.2-0.3-0.3c-0.1-0.1-0.1-0.1-0.1-0.2c-0.1-0.1-0.2-0.2-0.3-0.3
			c-0.1,0-0.1-0.1-0.2-0.1c-0.1-0.1-0.3-0.3-0.4-0.4c-0.1-0.1-0.2-0.2-0.4-0.3c-0.1-0.1-0.2-0.2-0.3-0.3c-0.2-0.1-0.3-0.2-0.5-0.4
			c-0.2-0.1-0.3-0.3-0.5-0.4c-0.1-0.1-0.2-0.1-0.3-0.2c-0.1-0.1-0.3-0.2-0.4-0.3c-0.1-0.1-0.2-0.2-0.3-0.2c-0.1,0-0.2-0.1-0.2-0.1
			C34.1,8.1,34,8,33.9,8c-0.3-0.2-0.7-0.4-1-0.5c-0.1-0.1-0.3-0.2-0.4-0.2c-0.2-0.1-0.4-0.2-0.7-0.3c-0.2-0.1-0.4-0.1-0.5-0.2
			c-0.1,0-0.2-0.1-0.3-0.1c-0.1,0-0.1,0-0.2-0.1c-0.1,0-0.2-0.1-0.3-0.1c-0.3-0.1-0.7-0.2-1.1-0.3c-0.2-0.1-0.3-0.1-0.5-0.2
			c-0.4-0.1-0.7-0.2-1.1-0.3c-0.2-0.1-0.5-0.1-0.8-0.2c-0.2,0-0.3,0-0.5-0.1c-0.3-0.1-0.6-0.1-0.9-0.1c-0.1,0-0.2,0-0.3,0
			c-0.1,0-0.2,0-0.2,0c-0.1,0-0.3,0-0.4,0c-0.3,0-0.7-0.1-1-0.1c-0.1,0-0.3,0-0.5,0c-0.2,0-0.4,0-0.5,0c-0.1,0-0.1,0-0.1,0
			c-0.1,0-0.3,0-0.4,0c-0.1,0-0.1,0-0.2,0c-0.1,0-0.1,0-0.2,0c-0.1,0-0.1,0-0.2,0c0,0-0.1,0-0.1,0c-0.1,0-0.2,0-0.2,0
			c-0.2,0-0.4,0-0.6,0.1c0,0-0.1,0-0.1,0c-0.1,0-0.3,0-0.3,0.1c-0.3,0-0.5,0.1-0.8,0.2c-0.1,0-0.3,0-0.4,0.1c-0.1,0-0.2,0-0.3,0.1
			c-0.2,0-0.3,0.1-0.5,0.2C18,6,17.9,6,17.9,6c-0.2,0-0.3,0.1-0.5,0.2c-0.1,0-0.2,0.1-0.3,0.1c-0.6,0.2-1.1,0.5-1.7,0.8
			c-0.1,0.1-0.2,0.1-0.3,0.2c-0.6,0.3-1.3,0.7-1.9,1.2c-0.2,0.1-0.3,0.2-0.5,0.4c-0.1,0.1-0.2,0.2-0.3,0.2c-0.2,0.1-0.3,0.2-0.5,0.4
			c-0.3,0.3-0.6,0.6-0.9,0.9c-0.2,0.2-0.4,0.3-0.6,0.5c-0.1,0.1-0.1,0.1-0.2,0.2c-0.1,0.1-0.2,0.2-0.3,0.2c-0.1,0.1-0.2,0.3-0.4,0.4
			c-0.1,0.1-0.2,0.2-0.3,0.3c0,0.1-0.1,0.1-0.1,0.2c-0.2,0.2-0.4,0.4-0.6,0.7c-0.1,0.2-0.2,0.4-0.3,0.5c-0.2,0.2-0.4,0.5-0.5,0.7
			c0,0.1-0.1,0.2-0.1,0.2c-0.1,0.2-0.2,0.4-0.3,0.6c-0.1,0.2-0.2,0.4-0.3,0.6c0,0.1-0.1,0.2-0.1,0.2c-0.1,0.2-0.2,0.4-0.3,0.5
			c0,0.1-0.1,0.2-0.1,0.3c-0.1,0.1-0.1,0.2-0.2,0.3c0,0.1-0.1,0.3-0.1,0.4c-0.1,0.1-0.1,0.3-0.2,0.4c-0.3,0.9-0.5,1.8-0.7,2.7
			c0,0.2,0,0.4,0,0.5c0,0.2-0.1,0.4-0.1,0.6c0,0.2,0,0.3-0.1,0.5c0,0.1,0,0.3,0,0.4c0,0.8,0,1.5,0,2.2c0,0.4,0.1,0.7,0.1,1.1
			c0,0.2,0,0.3,0,0.5c0,0.5,0.1,1,0.2,1.4c0,0.1,0.1,0.2,0.1,0.4c0.1,0.4,0.2,0.7,0.3,1.1c0,0.1,0.1,0.2,0.1,0.2
			c0,0.1,0,0.2,0.1,0.3c0.1,0.4,0.3,0.8,0.4,1.2c0.1,0.1,0.1,0.3,0.2,0.4c0,0.1,0.1,0.2,0.1,0.3C6.9,32,7,32.3,7.2,32.5
			c0.1,0.2,0.2,0.4,0.3,0.6c0,0.1,0.1,0.1,0.1,0.2c0,0,0.1,0.1,0.1,0.1c0,0.1,0.1,0.2,0.1,0.3C7.9,33.9,8,34,8.1,34.2
			c0.1,0.1,0.1,0.2,0.2,0.3c0.1,0.1,0.2,0.2,0.3,0.4c0.1,0.1,0.1,0.2,0.2,0.3c0.1,0.2,0.3,0.3,0.4,0.5c0.1,0.1,0.2,0.3,0.3,0.4
			c0.1,0.1,0.3,0.3,0.4,0.4c0.1,0.1,0.2,0.3,0.3,0.4c0.2,0.2,0.4,0.3,0.5,0.5c0.1,0.1,0.2,0.2,0.3,0.3c0.2,0.1,0.3,0.2,0.5,0.4
			c0.1,0.1,0.3,0.3,0.4,0.4c0.1,0.1,0.2,0.2,0.3,0.2c0.1,0.1,0.2,0.2,0.4,0.3c0.2,0.1,0.3,0.2,0.5,0.3c0.1,0.1,0.2,0.1,0.3,0.2
			c0.1,0.1,0.3,0.2,0.4,0.3c0.1,0.1,0.3,0.1,0.4,0.2c0.5,0.3,1,0.6,1.5,0.8c0.2,0.1,0.4,0.2,0.7,0.3c0.2,0.1,0.4,0.2,0.7,0.3
			c0.1,0,0.2,0,0.2,0.1c0.2,0.1,0.4,0.2,0.6,0.2c0.1,0,0.1,0,0.2,0.1c0.2,0.1,0.4,0.2,0.6,0.2c0.2,0,0.5,0.1,0.7,0.1
			c0.3,0.1,0.7,0.2,1.1,0.2c0.1,0,0.3,0,0.4,0c0.2,0,0.3,0.1,0.5,0.1c0.1,0,0.3,0,0.4,0c0.1,0,0.2,0,0.3,0c0.1,0,0.2,0,0.3,0
			c0.2,0,0.4,0.1,0.6,0.1c0.1,0,0.2,0,0.3,0c0.1,0,0.1,0,0.2,0c0.2,0,0.4,0,0.6,0c0.1,0,0.2,0,0.4,0c0.2,0,0.5,0,0.7-0.1
			c0.1,0,0.2,0,0.3,0c0.1,0,0.3,0,0.4-0.1c0.5,0,1-0.1,1.5-0.2c0.2,0,0.3-0.1,0.5-0.1c0.2,0,0.4-0.1,0.6-0.1c0.1,0,0.2-0.1,0.3-0.1
			c0.2-0.1,0.3-0.1,0.5-0.2c0.1,0,0.1-0.1,0.2-0.1c0.1,0,0.2,0,0.4-0.1c0.2-0.1,0.5-0.2,0.7-0.3c0.1-0.1,0.3-0.1,0.4-0.2
			c0.1-0.1,0.3-0.1,0.4-0.2c0,0,0.1,0,0.1-0.1c0.1-0.1,0.3-0.1,0.4-0.2c0.2-0.1,0.3-0.2,0.5-0.3C32.8,40.4,32.9,40.3,33,40.3z
			 M37.4,35.5c-0.2,0-0.5,0-0.6-0.1c0,0,0,0,0-0.1c0-0.1,0-0.3,0.1-0.3c0,0,0.1,0,0.1,0c0.1,0,0.7,0,0.7,0.1
			C37.8,35.2,37.5,35.5,37.4,35.5z M38,34.8c-0.1,0-0.2,0-0.2,0c-0.3,0-0.6,0-0.9,0c0-0.2,0-0.3,0-0.5c0.2,0,0.5,0,0.7,0
			c0.1,0,0.2,0,0.3,0c0.1,0,0.3,0,0.4,0C38.4,34.4,38.1,34.7,38,34.8z M38.8,33.7C38.8,33.7,38.8,33.7,38.8,33.7
			c-0.1,0.1-0.2,0.3-0.3,0.4c-0.1,0-0.1,0-0.2,0c-0.1,0-0.4-0.1-0.4-0.1c-0.2,0-0.3-0.1-0.5,0c-0.1,0-0.5,0-0.5-0.1c0,0,0-0.1,0-0.2
			c0-0.1,0-0.1,0-0.2c0,0,0.1,0,0.1,0c0.5,0,0.9,0,1.4,0C38.6,33.6,38.7,33.6,38.8,33.7C38.8,33.7,38.8,33.7,38.8,33.7z M39.4,32.9
			c0,0-0.3,0.5-0.4,0.5c-0.2,0-0.5,0-0.7,0c-0.3,0-0.6,0-0.8,0c-0.1,0-0.3,0-0.4,0c-0.1,0,0-0.2,0-0.3c0-0.2,0.1-0.1,0.2-0.2
			c0.1,0,0.2,0,0.3,0c0.1,0,0.2,0,0.3,0c0.2,0,0.4,0,0.7,0c0.2,0,0.5,0,0.7,0C39.1,32.8,39.3,32.8,39.4,32.9
			C39.4,32.9,39.4,32.9,39.4,32.9z M39.5,32.6c-0.1,0-0.3,0-0.4,0c-0.2,0-0.6-0.1-0.8,0c-0.3,0-0.6,0-0.9,0c-0.2,0-0.3,0-0.5-0.1
			c0,0,0-0.1,0-0.1c0-0.1,0-0.2,0-0.3c0,0,0,0,0,0c0,0,0.2,0,0.2,0c0.1,0,0.2,0,0.3,0c0.1,0,0.2,0,0.3,0c0.2,0,0.4,0,0.6,0
			c0.1,0,0.3,0,0.4,0c0.2,0,0.4,0,0.6,0c0.1,0,0.2,0,0.4,0C39.8,32.2,39.6,32.6,39.5,32.6z M40,31.8c0,0-0.1,0.1-0.1,0.1
			c-0.1,0-0.2,0-0.3,0c-0.1,0-0.4-0.1-0.5,0c-0.1,0-0.4,0-0.4,0c-0.1,0-0.3,0-0.4,0c-0.1,0-0.3,0-0.4,0c-0.3,0-0.6,0-0.9,0
			c0,0,0,0,0,0c0,0,0,0,0,0c0-0.1,0-0.3,0-0.4c0.1,0,0.2,0,0.3-0.1c0.2,0,0.4,0,0.5,0c0.1,0,0.2,0,0.2,0c0.4,0,0.8,0,1.1,0
			c0.2,0,0.4,0,0.5,0c0.1,0,0.2,0,0.3,0c0.1,0,0.1,0,0.2,0C40.1,31.4,40,31.7,40,31.8z M40.4,30.9c0,0.1-0.1,0.2-0.2,0.2
			c0,0-0.1,0-0.1,0c-0.1,0-0.2,0-0.3,0c-0.2,0-0.4,0-0.6,0c-0.1,0-0.2,0-0.2,0c-0.1,0-0.4,0-0.5,0c0,0-0.1,0-0.1,0
			c-0.1,0-0.2,0-0.3,0c-0.1,0-0.2,0-0.2,0c-0.3,0-0.6,0-0.8,0c0,0,0,0,0,0c0,0,0-0.1,0-0.2c0-0.1,0-0.2,0-0.3c0-0.1,0.5,0,0.7-0.1
			c0.1,0,0.2,0,0.2,0c0.2,0,0.4,0,0.6,0c0.1,0,0.2,0,0.4,0c0.1,0,0.2,0,0.3,0c0.2,0,0.4,0,0.6,0c0.2,0,0.5-0.1,0.7,0c0,0,0,0,0,0
			C40.4,30.7,40.4,30.9,40.4,30.9z M40.6,30.3c-0.1,0-0.1,0-0.2,0.1c-0.2,0-0.3,0-0.5,0c-0.1,0-0.2,0-0.2,0c-0.1,0-0.2,0-0.2,0
			c0,0-0.1,0-0.1,0c-0.2,0-0.3,0-0.5,0c-0.1,0-0.2,0-0.3,0c0,0-0.1,0-0.1,0c-0.2,0-0.3,0-0.5,0c-0.1,0-0.3-0.1-0.4,0
			c-0.1,0-0.1,0-0.2,0c-0.1,0-0.4,0-0.4,0c0,0,0-0.1,0-0.2c0-0.1,0-0.2,0-0.3c0,0,0,0,0,0c0.1,0,0.2,0,0.4,0c0.4,0,0.8,0,1.2,0
			c0.1,0,0.2,0,0.3,0c0.2,0,0.4,0,0.6,0c0.1,0,0.2,0,0.3,0c0.2,0,0.3,0,0.5,0c0.1,0,0.1,0,0.2,0c0.1,0,0.3,0,0.4,0
			C40.8,29.9,40.7,30.2,40.6,30.3z M41,29.3c0,0.1-0.1,0.2-0.1,0.2c-0.1,0-0.2,0-0.2,0c-0.1,0-0.2,0-0.2,0c0,0-0.1,0-0.1,0
			c-0.1,0-0.4,0-0.5,0c-0.1,0-0.1,0-0.2,0c-0.2,0-0.4,0-0.7,0c-0.1,0-0.2,0-0.3,0c-0.1,0-0.3,0-0.4,0c-0.2,0-1.4,0-1.4-0.1
			c-0.1-0.1,0-0.4,0-0.5c0.2,0,0.5,0,0.7,0c0.2,0,0.4,0.1,0.7,0c0.4,0,0.7,0,1.1,0c0.1,0,0.2,0,0.3,0c0.1,0,0.1,0,0.2,0
			c0.1,0,0.1,0,0.2,0c0.2,0,0.8,0,0.9,0.1C41,29.2,41,29.3,41,29.3z M41.2,28.6c0,0.1-0.1,0.2-0.1,0.3c-0.3,0-0.7,0-1,0
			c-0.1,0-0.1,0-0.2,0c-0.1,0-0.6-0.1-0.7,0c-0.2,0-0.3,0-0.5,0c-0.1,0-0.3,0-0.3,0c-0.1,0-0.3,0-0.4,0c-0.4,0-0.7-0.1-1.1-0.1
			c0-0.1,0-0.4,0-0.5c0,0,0.2,0,0.2,0c0.1,0,0.1,0,0.2,0c0.2,0,0.4,0,0.6,0c0.2,0,0.4,0,0.6,0c0.2,0,0.3,0,0.5,0
			c0.3,0,0.6,0.1,0.9,0c0.2,0,0.4,0,0.6-0.1c0.1,0,0.7,0,0.8,0C41.2,28.4,41.2,28.5,41.2,28.6z M41.4,28c0,0.1,0,0.1-0.1,0.2
			c-0.1,0-0.3,0-0.4,0c-0.1,0-0.3,0-0.4,0c-0.2,0-0.3,0-0.5,0c-0.1,0-0.3,0-0.4,0c-0.1,0-0.3,0-0.4,0c-0.1,0-0.2,0-0.2,0
			c-0.2,0-0.4,0-0.5,0c-0.5,0-1,0-1.6,0c0,0,0,0,0,0c0,0,0-0.4,0-0.4c0.2,0,0.4,0,0.5,0c0.1,0,0.2,0,0.3,0c0.3,0,0.7,0,1,0
			c0.3,0,0.6,0.1,0.9,0c0.2,0,0.3,0,0.5,0c0.1,0,0.2,0,0.2,0c0.1,0,0.2,0,0.2,0c0.3,0,0.6,0,0.8,0C41.4,27.8,41.4,27.9,41.4,28z
			 M41.4,27.4C41.4,27.4,41.4,27.4,41.4,27.4c-0.2,0-0.7,0-0.8,0c-0.1,0-0.3,0-0.4,0c-0.2,0-0.3,0-0.5,0c-0.1,0-0.2,0-0.2,0
			c-0.1,0-0.2,0-0.3,0c-0.1,0-0.2,0-0.3,0c-0.2,0-0.3,0-0.5,0c-0.1,0-0.2,0-0.3,0c-0.1,0-0.2,0-0.3,0c-0.3,0-0.5,0-0.8,0
			c-0.1,0-0.2,0-0.3,0c0-0.1,0-0.3,0-0.5c0,0,0.1,0,0.1,0c0.2,0,0.5,0,0.7,0c0.1,0,0.2,0,0.3,0c0.1,0,0.1,0,0.2,0c0.1,0,0.2,0,0.3,0
			c0.2,0,0.6,0,0.8,0c0.1,0,0.2,0,0.2,0c0.1,0,0.3,0,0.5,0c0.3,0,0.6,0,0.8,0c0.1,0,0.4,0,0.5,0C41.6,26.9,41.5,27.3,41.4,27.4z
			 M41.6,26.6c0,0-0.1,0-0.1,0.1c0,0-0.1,0-0.1,0c-0.3,0-0.6,0-0.9,0c-0.1,0-0.3-0.1-0.5,0c-0.1,0-0.3,0-0.4,0c-0.3,0-0.7,0-1.1,0
			c-0.1,0-0.2,0-0.3,0c-0.1,0-0.2,0-0.2,0c-0.3,0-0.6,0-1,0c0,0,0,0,0,0c0,0,0,0,0,0c0-0.1,0-0.4,0-0.4c0.1-0.1,0.4,0,0.5,0
			c0.3,0,0.7,0,1,0c0.2,0,0.5,0,0.7-0.1c0.2,0,0.5,0,0.7,0c0.2,0,0.4,0,0.6,0c0.2,0,0.4,0,0.6,0c0.2,0,0.4-0.1,0.6,0
			C41.7,26.2,41.6,26.6,41.6,26.6z M41.6,25.9c-0.1,0-0.1,0-0.2,0c-0.1,0-0.4-0.1-0.4,0c-0.1,0-0.1,0-0.2,0c0,0-0.1,0-0.1,0
			c-0.5,0-0.9,0-1.4,0c-0.1,0-0.3,0-0.4,0c-0.1,0-0.4,0-0.5,0c-0.4,0-0.8,0-1.1,0c-0.1,0-0.3,0-0.4,0c0,0,0-0.1,0-0.1
			c0-0.1,0-0.2,0-0.3c0,0,0.1,0,0.1,0c0.3,0,0.6,0,0.9,0c0.1,0,0.2,0,0.3,0c0.5,0,0.9,0,1.4,0c0.2,0,0.4,0,0.6,0c0.4,0,0.8,0,1.2,0
			c0.1,0,0.1,0,0.2,0C41.7,25.6,41.7,25.9,41.6,25.9z M41.7,25.2c0,0-0.1,0-0.2,0c0,0-0.1,0-0.1,0c-0.3,0-0.5,0-0.8,0
			c-0.1,0-0.2,0-0.3,0c-0.2,0-0.5,0-0.7,0c-0.1,0-0.1,0-0.2,0c-0.1,0-0.1,0-0.2,0c-0.1,0-0.2,0-0.2,0c-0.2,0-0.3,0-0.5,0
			c-0.1,0-0.2,0-0.3,0c-0.4,0-0.8,0-1.2,0c-0.1,0-0.1,0-0.2,0c0-0.1,0-0.4,0-0.5c0,0,0,0,0,0c0,0,0,0,0,0c0,0,0.1,0,0.1,0
			c0.1,0,0.3,0,0.4,0c0.1,0,0.3,0,0.4,0c0.2,0,0.5,0,0.7,0c0.1,0,0.2,0,0.3,0c0.2,0,0.3,0,0.5,0c0.1,0,0.1,0,0.2,0
			c0.1,0,0.2,0,0.3,0c0.1,0,0.1,0,0.2,0c0.1,0,0.1,0,0.2,0c0.1,0,0.3,0,0.4,0c0.2,0,0.3,0,0.5,0c0.1,0,0.7,0,0.8,0
			C41.8,24.8,41.8,25.1,41.7,25.2z M41.8,24.4c-0.1,0-0.2,0-0.2,0c-0.1,0-0.4-0.1-0.5,0c-0.1,0-0.3,0-0.3,0c-0.1,0-0.3,0-0.4,0
			c-0.3,0-0.5,0-0.8,0c-0.1,0-0.2,0-0.2,0c-0.3,0-0.6,0-0.9,0c-0.1,0-0.3-0.1-0.4,0c-0.1,0-0.3,0-0.4,0c-0.1,0-0.2,0-0.3,0
			c-0.1,0-0.2,0-0.2,0c-0.1,0-0.1-0.4-0.1-0.5c0,0,0,0,0,0c0,0,0,0,0,0c0.1,0,0.1,0,0.2,0c0.2,0,0.3,0,0.5,0c0.1,0,0.2,0,0.3,0
			c0.2,0,0.3,0,0.5,0c0.6,0,1.1,0,1.7,0c0.3,0,0.5,0,0.8,0c0.2,0,0.3,0,0.4,0c0.1,0,0.2,0,0.3,0c0.1,0,0.1,0,0.2,0c0,0,0,0,0,0
			C41.8,23.9,41.8,24.4,41.8,24.4z M41.8,23.4c0,0.1,0,0.2,0,0.2c0,0-0.1,0-0.1,0c-0.1,0-0.2,0-0.2,0c-0.1,0-0.3,0-0.4,0
			c-0.5,0-1,0-1.5,0c-0.1,0-0.3-0.1-0.4,0c-0.1,0-0.4,0-0.5,0c-0.1,0-0.2-0.1-0.3,0c-0.2,0-0.4,0-0.5,0c-0.3,0-0.6,0-0.8,0
			c0,0,0,0,0,0c0,0,0,0,0,0c0-0.1,0-0.3,0-0.4c0,0,0,0,0,0c0,0,0.1,0,0.1,0c0.3,0,0.6,0,1-0.1c0.2,0,0.5,0,0.7,0c0.1,0,0.2,0,0.3,0
			c0.1,0,0.2,0,0.2,0c0.4,0,0.7,0,1.1,0c0.3,0,0.5,0,0.8,0c0.1,0,0.2,0,0.3,0c0.1,0,0.4,0,0.4,0C41.8,23.3,41.8,23.3,41.8,23.4z
			 M41.8,22.9c0,0-0.1,0-0.1,0c-0.1,0-0.3,0-0.4,0c-0.2,0-0.4,0-0.6,0c-0.1,0-0.1,0-0.2,0c-0.1,0-0.2,0-0.2,0c-0.2,0-0.4-0.1-0.6,0
			c-0.2,0-0.4-0.1-0.5,0c-0.1,0-0.3,0-0.4,0c-0.1,0-0.4-0.1-0.5,0c-0.1,0-0.3,0-0.4,0c-0.1,0-0.2,0-0.2,0c-0.1,0-0.5,0-0.6,0
			c0-0.1,0-0.1,0-0.2c0-0.1-0.1-0.2,0-0.3c0.1-0.1,0.5,0,0.6,0c0.1,0,0.2,0,0.3,0c0.3,0,0.5,0,0.8,0c0.1,0,0.3,0,0.4,0
			c0.3,0,0.5,0,0.8,0c0.4,0,0.9,0,1.4,0c0.2,0,0.3,0,0.5,0C41.8,22.6,41.9,22.9,41.8,22.9z M41.7,22.2c-0.1,0.1-0.5,0-0.6,0
			c-0.1,0-0.1,0-0.2,0c-0.2,0-0.4,0-0.6,0c-0.1,0-0.3,0-0.4,0c-0.1,0-0.5,0-0.6,0c-0.1,0-0.3-0.1-0.4,0c-0.3,0-0.6,0-0.9,0
			c-0.1,0-0.2,0-0.2,0c-0.1,0-0.2,0-0.3,0c-0.1,0-0.2,0-0.3,0c-0.1,0-0.2,0-0.2,0c0,0,0,0,0,0c0,0,0-0.2,0-0.2c0,0,0-0.1,0-0.1
			c0-0.2,0.2-0.1,0.3-0.2c0.2,0,0.3,0.1,0.5,0.1c0.2,0,0.3,0,0.5,0c0.2,0,0.4,0,0.5,0c0.7,0,1.4,0,2,0c0.1,0,0.8,0,0.9,0
			c0,0,0,0.1,0,0.2C41.7,22,41.7,22.1,41.7,22.2z M41.7,21.5C41.7,21.5,41.7,21.5,41.7,21.5C41.7,21.5,41.6,21.5,41.7,21.5
			c-0.2,0-0.3,0-0.5,0c-0.1,0-0.3-0.1-0.4,0c-0.1,0-0.3,0-0.4,0c-0.1,0-0.1,0-0.2,0c-0.2,0-0.4,0-0.6,0c-0.2,0-0.5,0-0.7,0
			c-0.1,0-0.1,0-0.2,0c-0.1,0-0.2,0-0.3,0c-0.2,0-0.3,0-0.5,0c-0.1,0-0.2,0-0.2,0c-0.1,0-0.6,0-0.7-0.1c0,0,0-0.1,0-0.1
			c0-0.1,0-0.2,0.1-0.3c0.1,0,0.2,0,0.3,0c0.1,0,0.2,0,0.3,0c0.1,0,0.2,0,0.3,0c0.1,0,0.2,0,0.3,0c0.4,0,0.8,0,1.1,0
			c0.1,0,0.2,0,0.2,0c0.3,0,0.6,0,0.9,0c0.1,0,0.2,0,0.3,0c0.1,0,0.6,0,0.7,0.1C41.7,21.1,41.7,21.4,41.7,21.5z M41.6,20.7
			C41.6,20.7,41.6,20.7,41.6,20.7c0,0-0.1,0-0.1,0c-0.3,0-0.5,0-0.8,0c-0.1,0-0.2,0-0.2,0c-0.1,0-0.2,0-0.3,0c-0.1,0-0.4,0-0.6,0
			c-0.1,0-0.3,0-0.3,0c-0.5,0-0.9,0-1.4,0c-0.1,0-0.2,0-0.3,0c-0.1,0-0.5,0-0.6-0.1c0,0,0-0.1,0-0.2c0-0.1,0-0.2,0.1-0.2
			c0.1,0,0.1,0,0.2,0c0.3,0,0.6,0,0.9,0c0.4,0,0.8,0,1.2,0c0.2,0,0.5,0.1,0.8,0c0.2,0,1.3,0,1.4,0.1C41.6,20.4,41.6,20.6,41.6,20.7z
			 M41.4,20C41.4,20,41.4,20,41.4,20c-0.2,0-0.3,0-0.4,0c-0.1,0-0.3,0-0.4,0c-0.4,0-0.8,0-1.3,0c-0.2,0-0.3,0-0.5,0
			c-0.1,0-0.5,0-0.6,0c-0.3,0-0.6,0-0.9,0c-0.1,0-0.2,0-0.3,0c-0.1,0-0.1,0-0.2,0c0,0,0,0,0,0c0-0.1,0-0.4,0-0.4c0,0,0.1,0,0.1,0
			c0.1,0,0.2,0,0.4,0c0.2,0,0.4,0,0.7,0c0.2,0,0.3,0,0.5,0c0.1,0,0.3,0,0.4,0c0.2,0,0.4,0,0.5,0c0.2,0,0.3,0,0.5,0
			c0.1,0,0.3,0,0.4,0c0.2,0,0.4,0,0.5,0c0.1,0,0.3,0,0.4,0.1C41.4,19.6,41.4,19.9,41.4,20z M41.2,19.3
			C41.2,19.3,41.2,19.3,41.2,19.3c0,0-0.1,0-0.2,0c0,0,0,0,0,0c0,0,0,0-0.1,0c-0.1,0-0.1,0-0.2,0c-0.2,0-0.5,0-0.7,0
			c-0.1,0-0.2,0-0.3,0c-0.1,0-0.1,0-0.2,0c-0.2,0-0.4,0-0.7,0c-0.1,0-0.3-0.1-0.4,0c-0.1,0-0.3,0-0.4,0c-0.2,0-0.4,0-0.6,0
			c-0.2,0-0.5,0-0.6,0c-0.1,0,0-0.4,0-0.4c0,0,0,0,0,0c0,0,0,0,0,0c0.1,0,0.2,0,0.3,0c0.2,0,0.4,0,0.6,0c0.4,0,0.7,0,1.1,0
			c0.1,0,0.1,0,0.2,0c0.1,0,0.1,0,0.2,0c0.2,0,0.4,0,0.6,0c0.1,0,0.2,0,0.3,0c0.1,0,0.2,0,0.3,0c0.1,0,0.2,0,0.4,0
			c0.1,0,0.2,0,0.2,0C41.2,18.9,41.2,19.1,41.2,19.3z M40.9,18.1c0.1,0.1,0.2,0.4,0.1,0.4c-0.1,0-0.3,0-0.4,0c-0.3,0-0.7,0-1,0
			c-0.1,0-0.3,0-0.3,0c-0.1,0-0.2,0-0.3,0c-0.1,0-0.5,0-0.6,0c-0.1,0-0.2,0-0.3,0c-0.1,0-0.3,0-0.4,0c-0.3,0-0.5-0.1-0.7-0.1
			c0-0.1,0-0.4,0-0.4c0.1-0.1,0.6,0,0.8,0c0.3,0,0.5,0,0.7,0c0.2,0,0.3,0,0.5,0c0.1,0,0.3,0,0.4,0c0.1,0,0.2,0,0.3,0
			c0.3,0,0.5,0,0.8,0c0.1,0,0.1,0,0.2,0C40.7,18.1,40.8,18.1,40.9,18.1z M40.7,17.7c0.1,0.2,0,0.1-0.1,0.2c-0.3,0-0.5,0-0.8,0
			c-0.1,0-0.3,0-0.4,0c-0.1,0-0.3,0-0.4,0c-0.1,0-0.2,0-0.2,0c-0.1,0-0.2,0-0.3,0c-0.1,0-0.3,0-0.4,0c-0.1,0-0.1,0-0.2,0
			c-0.2,0-0.4-0.1-0.6,0c-0.1,0-0.3,0-0.4,0c0,0,0,0,0,0c0-0.1,0-0.1,0-0.2c0-0.1,0-0.2,0.1-0.2c0.1,0,0.2,0,0.3,0
			c0.1,0,0.2,0,0.3,0c0.1,0,0.2,0,0.3,0c0.4,0,0.8,0,1.2,0c0.3,0,0.6,0,0.8,0c0.2,0,0.5-0.1,0.6,0.1C40.6,17.5,40.7,17.6,40.7,17.7z
			 M40.3,16.6c0,0,0.2,0.4,0.2,0.5c-0.1,0.1-0.4,0-0.5,0c-0.1,0-0.2,0-0.2,0c0,0-0.1,0-0.1,0c-0.1,0-0.2,0-0.3,0
			c-0.1,0-0.4-0.1-0.5,0c-0.1,0-0.1,0-0.2,0c-0.2,0-0.4,0-0.6,0c-0.1,0-0.2,0-0.3,0c-0.1,0-0.3,0-0.3,0c-0.1,0-0.3,0-0.4,0
			c-0.1,0,0-0.4,0-0.5c0,0,0,0,0,0c0,0,0.3,0,0.3,0c0.2,0,0.4,0,0.6,0c0.2,0,0.3,0,0.5,0c0.1,0,0.3,0,0.4,0c0.3,0,0.6,0,0.9,0
			c0.1,0,0.2,0,0.3,0C40.1,16.6,40.2,16.6,40.3,16.6z M39.9,15.9c0.1,0,0.2,0.3,0.2,0.4c0.1,0-0.1,0.1-0.1,0.1c-0.1,0-0.4,0-0.4,0
			c-0.1,0-0.3,0-0.4,0c-0.2,0-0.4,0-0.6,0c0,0-0.1,0-0.1,0c-0.1,0-0.5,0-0.6,0c-0.2,0-0.8,0-0.9-0.1c0,0,0-0.2,0-0.2
			c0-0.1,0-0.1,0-0.2c0.1-0.1,0.4-0.1,0.5-0.1c0,0,0,0,0.1,0c0.2,0,0.5,0,0.7,0c0.5,0,0.9,0,1.3,0C39.7,15.9,39.8,15.8,39.9,15.9z
			 M39.7,15.4c0,0.1,0,0.1,0,0.2c-0.1,0-0.1,0-0.2,0c-0.1,0-0.3,0-0.4,0c-0.1,0-0.1,0-0.2,0c-0.1,0-0.4-0.1-0.5,0
			c-0.2,0-0.3,0-0.5,0c-0.1,0-0.1,0-0.2,0c-0.1,0-0.3,0-0.4,0c-0.1,0-0.2,0-0.2,0c-0.1,0-0.2,0-0.2,0c0,0,0,0,0,0c0-0.1,0-0.4,0-0.4
			c0.1,0,0.2,0,0.3,0c0.2,0,0.3,0,0.5,0c0.1,0,0.2,0,0.3,0c0.4,0,0.8,0,1.1,0c0.1,0,0.3,0,0.4,0C39.7,15.2,39.7,15.4,39.7,15.4z
			 M39.2,14.4c0.1,0,0.1,0.1,0.1,0.2c0,0,0.1,0.1,0.1,0.1c0,0.1,0.1,0.1,0.1,0.2c0,0,0,0,0,0c0,0-0.1,0-0.1,0c-0.2,0-0.5-0.1-0.6,0
			c0,0-0.1,0-0.1,0c-0.1,0-0.2,0-0.3,0c-0.3,0-0.5,0-0.8,0c-0.1,0-0.2,0-0.3,0c-0.1,0-0.2,0-0.2,0c-0.1-0.1,0-0.4,0-0.5
			c0.5,0,1.1,0,1.6,0C38.7,14.4,39.1,14.4,39.2,14.4z M38.7,13.7c0.1,0.1,0.3,0.4,0.3,0.5c0,0,0,0-0.1,0c-0.1,0-0.4,0-0.5,0
			c-0.1,0-0.2,0-0.3,0c-0.1,0-0.3-0.1-0.5,0c0,0-0.1,0-0.1,0c-0.2,0-0.4,0-0.6-0.1c0-0.1-0.1-0.4,0.1-0.5c0,0,0,0,0,0
			c0.4,0,0.7,0,1.1,0C38.3,13.6,38.5,13.6,38.7,13.7z M38,12.9c0.1,0,0.1,0,0.2,0c0.1,0,0.1,0.2,0.2,0.2c0,0.1,0.1,0.1,0.1,0.2
			c0,0,0,0-0.1,0c-0.3,0-0.5,0-0.8,0c-0.1,0-0.2,0-0.2,0c-0.1,0-0.3,0-0.3,0c-0.1,0,0-0.4,0-0.5C37.3,12.9,37.7,12.9,38,12.9z
			 M37.9,12.7C37.9,12.7,37.9,12.7,37.9,12.7C37.8,12.7,37.8,12.7,37.9,12.7c-0.2,0-0.8,0-0.9,0c0,0,0-0.2,0-0.2c0-0.1,0-0.2,0-0.3
			c0.2,0,0.4,0,0.5,0C37.6,12.2,37.8,12.6,37.9,12.7z M36.9,11.4c0.1,0,0.4,0.3,0.3,0.4c0,0-0.1,0-0.2,0.1c0,0-0.1,0-0.1,0
			C36.9,11.8,36.9,11.5,36.9,11.4z M36.5,36.5c0.1-0.1,0.1-0.1,0.2-0.2c0.1-0.1,0.1-0.3,0.2-0.5c0.1,0,0.3,0,0.4,0c0,0,0,0,0,0
			c0,0,0,0,0,0C37.2,35.9,36.6,36.4,36.5,36.5C36.5,36.5,36.5,36.5,36.5,36.5z M10.6,12c0,0,0.3-0.3,0.3-0.4c0.1,0.1,0.1,0.3,0,0.4
			C10.9,12,10.7,12,10.6,12C10.6,12,10.6,12,10.6,12C10.6,12,10.6,12,10.6,12z M10,12.7c0-0.1,0.2-0.2,0.2-0.3
			c0.1-0.1,0.1-0.2,0.2-0.2c0.1,0,0.5,0,0.6,0.1c0,0,0,0,0,0c0,0.1,0,0.3,0,0.4c0,0,0,0,0,0c0,0,0,0,0,0c-0.1,0-0.3,0-0.4,0
			c0,0-0.1,0-0.1,0C10.3,12.7,10.1,12.7,10,12.7C10,12.7,10,12.7,10,12.7C10,12.7,10,12.7,10,12.7z M9.5,13.2c0-0.1,0.1-0.2,0.2-0.2
			c0,0,0.1,0,0.2,0c0.2,0,0.4,0,0.6,0c0.1,0,0.2,0,0.3,0c0.1,0,0.1,0,0.2,0c0,0,0,0.1,0,0.1c0,0.1,0,0.2,0,0.3c0,0,0,0,0,0
			c0,0-0.1,0-0.2,0c-0.2,0-0.3,0-0.5,0c-0.1,0-0.1,0-0.2,0c-0.1,0-0.4,0-0.5,0c-0.1,0-0.1,0-0.2,0C9.4,13.4,9.5,13.3,9.5,13.2z
			 M8.9,14.1c0-0.1,0.2-0.3,0.3-0.3c0.1,0,0.2,0,0.2-0.1c0.1,0,0.3,0,0.4,0c0.2,0,0.4,0,0.6,0c0.1,0,0.2,0,0.3,0c0.1,0,0.2,0,0.3,0
			c0,0.1,0,0.4,0,0.4c0,0-0.1,0-0.1,0.1c-0.1,0-0.2,0-0.3,0c-0.1,0-0.2,0-0.2,0c-0.1,0-0.3-0.1-0.4,0c0,0-0.1,0-0.1,0
			c0,0-0.1,0-0.1,0c-0.1,0-0.2,0-0.3,0c-0.2,0-0.4,0-0.5,0C8.9,14.2,8.9,14.1,8.9,14.1z M8.7,14.5c0.1,0,0.4,0,0.5,0
			c0.2,0,0.5,0,0.7,0c0.1,0,0.3,0,0.4,0c0.1,0,0.1,0,0.2,0c0.1,0,0.2,0,0.3,0c0,0,0.1,0,0.1,0c0,0,0,0,0,0c0,0,0,0,0,0
			c0,0.1,0,0.5-0.1,0.5c-0.1,0-0.1,0-0.2,0c-0.1,0-0.2,0-0.3,0c-0.1,0-0.4-0.1-0.5,0c-0.1,0-0.3-0.1-0.4,0c-0.2,0-0.5-0.1-0.6,0
			c-0.1,0-0.2,0-0.2,0c-0.1,0-0.2,0-0.2,0C8.4,14.9,8.6,14.5,8.7,14.5z M8.1,15.6c0-0.1,0.1-0.3,0.2-0.4c0,0,0.1,0,0.1-0.1
			c0.3,0,0.5,0,0.8,0c0.3,0,0.7,0,1,0c0.2,0,0.6,0,0.7,0c0.1,0,0.1,0.1,0.1,0.2c0,0.1,0,0.2-0.1,0.2c0,0-0.1,0-0.1,0
			c-0.1,0-0.3-0.1-0.4,0c-0.2,0-0.5,0-0.7,0c-0.1,0-0.3,0-0.4,0c0,0-0.1,0-0.1,0c-0.2,0-0.4,0-0.6,0C8.3,15.6,8.2,15.7,8.1,15.6
			C8.1,15.6,8.1,15.6,8.1,15.6z M7.9,15.9c0.1,0,0.2,0,0.3,0c0.3,0,0.6,0,0.9,0c0.1,0,0.2,0,0.2,0c0.3,0,0.7,0,1,0
			c0.2,0,0.4,0.1,0.5,0.1c0,0.1,0,0.3,0,0.4c-0.1,0.1-0.7,0.1-0.8,0c-0.1,0-0.3,0-0.4,0c-0.1,0-0.3,0-0.4,0c-0.1,0-0.2,0-0.2,0
			c-0.3,0-0.6,0-1,0c-0.1,0-0.2,0-0.4,0C7.7,16.2,7.8,16,7.9,15.9z M7.5,16.8c0-0.1,0-0.1,0.1-0.2c0,0,0.1,0,0.1-0.1
			c0.2,0,0.4,0,0.6,0c0.1,0,0.2,0,0.3,0c0.3,0,0.6,0,0.9,0c0.2,0,0.4,0,0.5,0c0.3,0,0.6,0,0.9,0c0,0,0,0.1,0,0.1c0,0.1,0,0.3,0,0.4
			c-0.1,0-0.2,0-0.2,0c-0.3,0-0.6,0-0.8,0c-0.2,0-0.4,0-0.7,0c-0.1,0-0.4-0.1-0.5,0c-0.1,0-0.1,0-0.2,0c-0.2,0-0.3,0-0.5,0
			c-0.2,0-0.5,0-0.7,0c0,0,0,0,0,0c0,0,0,0,0,0C7.4,17,7.5,16.9,7.5,16.8z M7.1,17.8c0-0.1,0.1-0.4,0.2-0.5c0,0,0,0,0,0
			c0.3,0,0.6,0,0.9,0c0.3,0,0.6,0,0.9,0c0.1,0,0.2,0,0.3,0c0.1,0,0.2,0,0.3,0c0.1,0,0.2,0,0.3,0c0.2,0,0.5,0,0.7,0
			c0.1,0,0.2,0,0.3,0c0,0,0,0.3,0,0.4c0,0,0,0,0,0c0,0-0.1,0-0.1,0c-0.1,0-0.2,0-0.2,0c-0.2,0-0.4-0.1-0.5,0c-0.1,0-0.2,0-0.3,0
			c-0.1,0-0.1,0-0.2,0c-0.2,0-0.4,0-0.7,0c-0.1,0-0.2,0-0.3,0c-0.1,0-0.3,0-0.4,0c-0.1,0-0.1,0-0.2,0c-0.1,0-0.2,0-0.2,0
			C7.7,17.9,7.3,17.9,7.1,17.8C7.1,17.8,7.1,17.8,7.1,17.8z M6.9,18.1c0,0,0.1,0,0.2-0.1c0.2,0,0.4,0,0.6,0.1c0.2,0,0.4,0,0.6,0
			c0.1,0,0.1,0,0.2,0c0.1,0,0.2,0,0.4,0c0.1,0,0.3,0,0.4,0c0.2,0,0.4,0,0.6,0c0.3,0,0.7,0,1,0c0,0.1,0,0.4,0,0.4c0,0-0.1,0-0.1,0
			c-0.2,0-0.4,0-0.5,0c-0.1,0-0.2,0-0.3,0c-0.1,0-0.2,0-0.3,0c-0.1,0-0.1,0-0.2,0c-0.1,0-0.3,0-0.4,0c-0.1,0-0.1,0-0.2,0
			c-0.4,0-0.8,0-1.1,0c-0.1,0-0.4,0-0.5,0c-0.1,0-0.5,0-0.5,0C6.8,18.5,6.9,18.2,6.9,18.1z M6.8,18.8c0,0,0.1,0,0.2,0
			c0.1,0,0.2,0,0.2,0c0.1,0,0.2,0,0.3,0c0.1,0,0.2,0,0.3,0c0.1,0,0.3,0,0.4,0c0.3,0,0.6,0,0.9,0c0.4,0,0.7,0,1.1,0
			c0.1,0,0.7,0,0.8,0.1c0,0,0,0.1,0,0.2c0,0.1,0,0.2-0.1,0.2c-0.1,0-0.3,0-0.4,0c-0.1,0-0.2,0-0.3,0c-0.3,0-0.6,0-0.9,0
			c-0.1,0-0.3-0.1-0.4,0c-0.4,0-0.8,0-1.1,0c-0.1,0-0.4,0-0.4,0c0,0-0.1,0-0.1,0c-0.2,0-0.4-0.1-0.7-0.1C6.6,19.2,6.7,18.9,6.8,18.8
			z M6.5,19.6c0,0,0.1,0,0.1-0.1c0.4,0,0.7,0,1.1,0c0.1,0,0.3,0,0.4,0c0.1,0,0.2,0,0.3,0c0.5,0,1,0,1.5,0c0.2,0,0.3,0,0.5,0
			c0.2,0,0.4,0,0.6,0c0.1,0,0.1,0.4,0,0.4c-0.1,0-0.2,0-0.2,0c-0.1,0-0.2,0-0.3,0c-0.3,0-0.6,0-0.9,0c-0.1,0-0.2,0-0.3,0
			c-0.6,0-1.2,0-1.8,0c-0.3,0-0.5,0-0.8,0c-0.1,0-0.2,0-0.3,0C6.4,19.9,6.4,19.7,6.5,19.6z M6.2,20.7c0-0.1,0-0.4,0.1-0.4
			c0.1,0,0.3,0,0.4,0c0.2,0,0.4,0,0.6,0c0.1,0,0.1,0,0.2,0c0.5,0,1,0,1.5,0c0.1,0,0.3,0,0.4,0c0.2,0,0.4,0,0.6,0c0.1,0,0.2,0,0.3,0
			c0.2,0,0.4,0,0.5,0.1c0,0,0,0.3,0,0.4c0,0,0,0,0,0c0,0-0.2,0-0.2,0c-0.2,0-0.5,0-0.7,0c-0.1,0-0.3,0-0.4,0c-0.1,0-0.3,0-0.3,0
			c-0.1,0-0.3-0.1-0.4,0c-0.3,0-0.5,0-0.8,0c-0.1,0-0.2,0-0.2,0c-0.1,0-0.4-0.1-0.5,0C6.9,20.8,6.6,20.8,6.2,20.7
			C6.2,20.8,6.2,20.7,6.2,20.7C6.2,20.7,6.2,20.7,6.2,20.7z M6.1,21.4C6.1,21,6.1,21,6.5,21c0.1,0,0.2,0,0.2,0c0.1,0,0.2,0,0.3,0
			c0.2,0,0.4,0,0.7,0c0.1,0,0.2,0,0.3,0c1,0,2,0,2.9,0c0,0.2,0,0.3-0.1,0.4c0,0.1-0.3,0-0.4,0c-0.5,0-0.9,0-1.4,0
			c-0.2,0-0.5-0.1-0.7,0c-0.1,0-0.2,0-0.3,0c0,0-0.1,0-0.1,0c-0.2,0-0.4,0-0.6,0c-0.2,0-0.5,0-0.7,0c-0.1,0-0.1,0-0.2,0
			C6.4,21.5,6.2,21.5,6.1,21.4C6.1,21.4,6.1,21.4,6.1,21.4z M6.2,21.7c0.3,0,0.5,0,0.8,0c0.1,0,0.2,0,0.4,0c0.3,0,0.6,0,0.9,0
			c0.2,0,0.3,0,0.5,0c0.1,0,0.1,0,0.2,0c0.1,0,0.3,0,0.4,0c0.5,0,1,0,1.5,0c0,0.2,0,0.3,0,0.5c0,0,0,0,0,0c0,0,0,0,0,0
			c0,0-0.1,0-0.1,0c-0.1,0-0.2,0-0.3,0c-0.1,0-0.2,0-0.3,0c-0.1,0-0.3,0-0.4,0c-0.2,0-0.4,0-0.6,0c-0.1,0-0.2,0-0.2,0
			c-0.1,0-0.2,0-0.3,0c-0.1,0-0.3,0-0.4,0c-0.2,0-0.3,0-0.5,0c-0.1,0-0.2,0-0.3,0c-0.2,0-0.4,0-0.6,0c-0.1,0-0.2,0-0.3,0
			c-0.2,0-0.4,0-0.6,0c0,0,0,0,0,0C6,22,6,21.7,6.2,21.7z M6.1,22.5c0.1,0,0.2,0,0.3,0c0.1,0,0.1,0,0.2,0c0.1,0,0.2,0,0.3,0
			c0.2,0,0.4,0,0.6,0c0.2,0,0.3,0,0.5,0c0.2,0,0.4,0,0.6,0c0.4,0,0.8,0,1.1,0c0.2,0,1.1,0,1.2,0.1c0.1,0.1,0.1,0.4,0.1,0.5
			c-0.1,0-0.2,0-0.2,0c-0.1,0-0.2,0-0.3,0c-0.1,0-0.2,0-0.3,0c-0.2,0-0.5,0-0.7,0c-0.1,0-0.2,0-0.2,0c-0.2,0-0.4,0-0.7,0
			c-0.3,0-0.7,0-1,0c-0.1,0-0.4-0.1-0.5,0c-0.1,0-0.3,0-0.4,0c-0.2,0-0.4-0.1-0.7-0.1C6,22.8,6,22.5,6.1,22.5z M6,23.2
			c0.7,0,1.3,0,2,0.1c0.1,0,0.2,0,0.2,0c0.2,0,0.4,0,0.6,0c0.1,0,0.2,0,0.2,0c0.2,0,0.4,0,0.6,0c0.2,0,1.2,0,1.2,0.1
			c0,0,0,0.1,0,0.2c0,0.4-0.2,0.1-0.4,0.2c-0.6,0-1.1,0-1.6,0c-0.1,0-0.4,0-0.5,0c-0.6,0-1.3,0-1.9,0c-0.2,0-0.3,0-0.5,0
			c0-0.1,0-0.1,0-0.2C5.9,23.4,5.9,23.2,6,23.2z M6,23.9c0,0,0.1,0,0.1-0.1c0.5,0,1,0,1.5,0c0.1,0,0.3,0,0.4,0c0.4,0,0.8,0,1.3,0
			c0.1,0,0.2,0,0.2,0c0.1,0,0.1,0,0.2,0c0.3,0,0.6,0,0.9,0c0.1,0,0.2,0,0.3,0c0.1,0,0,0.4,0,0.5c0,0,0,0,0,0c0,0-0.3,0-0.4,0
			c-0.2,0-0.5,0-0.7,0c-0.1,0-0.2,0-0.3,0c-0.1,0-0.2,0-0.3,0c-0.4,0-0.7,0-1.1,0c-0.1,0-0.1,0-0.2,0c-0.3,0-0.6,0-1,0
			c-0.1,0-0.2,0-0.3,0c0,0-0.1,0-0.1,0c-0.1,0-0.3,0-0.4-0.1C5.9,24.3,5.9,24,6,23.9z M6,24.7c0.1,0,0.2,0,0.3,0c0.2,0,0.5,0,0.7,0
			c0.1,0,0.2,0,0.2,0c0.1,0,0.1,0,0.2,0c0.1,0,0.3,0,0.4,0c0.1,0,0.2,0,0.3,0c0.1,0,0.2,0,0.3,0c0.1,0,0.2,0,0.2,0
			c0.7,0,1.5,0,2.2,0c0,0,0,0,0,0c0,0,0,0,0,0c0,0.1,0,0.3,0,0.4c0,0,0,0,0,0c-0.1,0-0.2,0-0.3,0c-0.2,0-0.3,0-0.5,0
			c-0.1,0-0.2,0-0.2,0c-0.1,0-0.2,0-0.3,0c-0.1,0-0.2,0-0.3,0c-0.1,0-0.3,0-0.4,0c-0.7,0-1.3,0-2,0c-0.1,0-0.2,0-0.4,0
			c-0.1,0-0.1,0-0.2,0c-0.1,0-0.1,0-0.2,0C6,25.1,6,24.8,6,24.7z M6,25.5C6,25.5,6.1,25.5,6,25.5C6.1,25.5,6.1,25.5,6,25.5
			c0.2,0,0.2,0,0.3,0c0.2,0,0.5,0,0.7,0c0.1,0,0.3,0,0.4,0c0.2,0,0.3,0,0.5,0c0.1,0,0.2,0,0.3,0c0.1,0,0.1,0,0.2,0c0.3,0,0.7,0,1,0
			c0.1,0,0.2,0,0.3,0c0.1,0,0.2,0,0.3,0c0.1,0,0.2,0,0.3,0c0.2,0,0.4,0,0.6,0c0,0,0,0.1,0,0.1c0,0.1,0.1,0.2,0,0.3
			c0,0.1-0.5,0-0.6,0.1c-0.1,0-0.4,0-0.5,0c-0.1,0-0.4-0.1-0.5,0c-0.1,0-0.2,0-0.3,0c-0.2,0-0.5,0-0.7,0c-0.1,0-0.3,0-0.4,0
			c-0.1,0-0.4,0-0.5,0c-0.2,0-0.4,0-0.5,0c0,0-0.1,0-0.1,0c-0.1,0-0.2,0-0.2,0C6,25.9,6,25.8,6,25.5z M6.1,26.4c0-0.1,0-0.2,0-0.2
			c0.1-0.1,0.3,0,0.5,0c0.4,0,0.9,0,1.3,0c0.1,0,0.3,0,0.4,0c0.1,0,0.3,0,0.4,0c0.1,0,0.1,0,0.2,0c0.2,0,0.4,0,0.6,0
			c0.1,0,0.2,0,0.2,0c0.2,0,0.5,0,0.8,0c0.1,0,0.3,0,0.3,0c0.1,0,0,0.4,0,0.4c-0.1,0-0.2,0-0.2,0c-0.1,0-0.2,0-0.3,0
			c-0.2,0-0.4,0-0.6,0c-0.1,0-0.2,0-0.3,0c-0.1,0-0.5,0-0.5,0c-0.1,0-0.3,0-0.3,0c-0.1,0-0.2,0-0.3,0c-0.3,0-0.6,0-0.9,0
			c-0.1,0-0.2,0-0.3,0c-0.1,0-0.4,0-0.5,0c-0.1,0-0.5,0-0.6-0.1C6.2,26.5,6.1,26.4,6.1,26.4z M6.2,26.9C6.3,26.9,6.3,26.9,6.2,26.9
			C6.3,26.9,6.3,26.9,6.2,26.9c0.3,0,0.7,0,1,0c0.2,0,0.4,0,0.6,0c0.3,0,0.5,0,0.8,0c0.1,0,0.3,0,0.4,0c0.2,0,0.3,0,0.5,0
			c0.1,0,0.2,0,0.2,0c0.1,0,0.3,0,0.4,0c0.1,0,0.1,0,0.1,0c0.2,0,0.4,0,0.5,0c0,0,0,0,0,0c0,0.1,0,0.3,0,0.4c0,0,0,0,0,0
			c0,0-0.3,0-0.3,0c-0.2,0-0.4,0-0.6,0c-0.1,0-0.2,0-0.3,0c-0.1,0-0.2,0-0.2,0c-0.2,0-0.7,0-0.8,0c-0.2,0-0.3,0-0.4,0
			c-0.5,0-1.1,0-1.6,0c-0.1,0-0.2,0-0.3,0C6.2,27.3,6.2,27,6.2,26.9z M6.4,28.1c-0.1,0-0.1-0.1-0.1-0.2c0-0.1-0.1-0.2,0-0.2
			c0,0,0,0,0,0c0.1,0,0.2,0,0.4,0c0.3,0,0.6,0,0.9,0c0.1,0,0.3,0,0.4,0c0.7,0,1.4,0,2.1,0c0.1,0,0.6,0,0.7,0c0,0,0,0.3,0,0.4
			c0,0-0.1,0-0.1,0c0,0-0.1,0-0.1,0c-0.1,0-0.4,0-0.5,0c-0.1,0-0.2,0-0.3,0c0,0-0.1,0-0.1,0c-0.2,0-0.5,0-0.6,0c-0.1,0-0.2,0-0.3,0
			c-0.2,0-0.5-0.1-0.6,0c-0.2,0-0.4-0.1-0.6,0c-0.2,0-0.5,0-0.6,0C6.9,28.1,6.5,28.2,6.4,28.1z M6.6,28.8c-0.1-0.1-0.1-0.3-0.1-0.5
			c0.1,0,0.2,0,0.3,0c0.2,0,0.5,0,0.7,0c0.1,0,0.1,0,0.2,0c0.2,0,0.4,0,0.6,0c0.2,0,0.3,0,0.5,0c0.1,0,0.2,0,0.4,0
			c0.1,0,0.2,0,0.3,0c0.2,0,0.4,0,0.6,0c0.2,0,0.7,0,0.8,0c0,0,0,0.1,0,0.2c0,0.1,0,0.2,0,0.2c-0.1,0.1-0.3,0-0.4,0
			c-0.1,0-0.1,0-0.2,0c-0.1,0-0.2,0-0.3,0c-0.2,0-0.4,0-0.7,0c-0.1,0-0.3,0-0.4,0c-0.1,0-0.3,0-0.4,0c-0.1,0-0.4-0.1-0.5,0
			c-0.2,0-0.3,0-0.5,0C7.4,28.8,6.7,28.9,6.6,28.8z M6.8,29.3c0,0-0.1-0.1,0-0.1c0-0.1,0.4-0.1,0.5-0.1c0.1,0,0.3,0,0.4,0
			c0.3,0,0.6,0,0.8,0c0.1,0,0.1,0,0.2,0c0.2,0,0.3,0,0.5,0c0.1,0,0.2,0,0.3,0c0.1,0,0.2,0,0.3,0c0.2,0,0.4,0,0.7,0
			c0.1,0,0.2,0,0.3,0c0,0,0,0,0,0c0,0,0,0,0,0c0,0.1,0,0.4,0,0.4c0,0-0.1,0-0.1,0c-0.2,0-0.4,0-0.6,0c-0.1,0-0.2,0-0.3,0
			c-0.2,0-0.5,0-0.7,0c-0.1,0-0.2,0-0.3,0c-0.2,0-0.3,0-0.5,0c-0.1,0-0.5-0.1-0.6,0c-0.1,0-0.2,0-0.3,0c-0.1,0-0.4,0-0.5-0.1
			C6.8,29.4,6.8,29.3,6.8,29.3z M7.1,30.3c-0.1,0-0.2-0.4-0.1-0.4c0.2-0.1,0.6,0,0.8-0.1c0.2,0,0.5,0,0.7,0c0.2,0,0.3,0,0.5,0
			c0.1,0,0.2,0,0.2,0c0.4,0,0.8,0,1.2,0c0.1,0,0.3,0,0.4,0c0.1,0,0,0.3,0,0.4c-0.1,0.1-1,0-1.2,0c-0.2,0-0.4,0-0.6,0
			c-0.2,0-0.4,0-0.7,0c-0.1,0-0.3,0-0.4,0c-0.1,0-0.2,0-0.2,0c-0.1,0-0.2,0-0.3,0c0,0-0.1,0-0.1,0C7.3,30.3,7.2,30.3,7.1,30.3z
			 M7.4,31c0,0,0-0.1-0.1-0.1c0-0.1-0.1-0.2-0.1-0.3c0,0,0.1,0,0.1-0.1c0.2,0,0.4,0,0.6,0c0.1,0,0.3,0,0.4,0c0.1,0,0.2,0,0.2,0
			c0.1,0,0.1,0,0.2,0c0.2,0,0.3,0,0.5,0c0.3,0,0.5,0,0.8,0c0.2,0,0.5,0,0.7,0.1c0,0.1,0,0.4,0,0.4c0,0,0,0-0.1,0c-0.2,0-0.4,0-0.6,0
			c-0.2,0-0.4,0-0.6,0c-0.1,0-0.2,0-0.3,0c-0.2,0-0.4,0-0.6,0c-0.1,0-0.3-0.1-0.4,0C8,31,7.7,31,7.4,31z M7.8,31.8
			c-0.1-0.1-0.2-0.3-0.2-0.4c0,0,0,0,0,0c0,0,0,0,0,0c0.1,0,0.2,0,0.3,0c0.1,0,0.2,0,0.3,0c0.2,0,0.4,0,0.6,0c0.1,0,0.2,0,0.2,0
			c0.1,0,0.2,0,0.2,0c0.2,0,0.4,0,0.6,0c0.1,0,0.2,0,0.3,0c0.2,0,0.4,0.1,0.6,0.1c0,0.1,0,0.3,0,0.4c0,0,0,0,0,0c0,0-0.1,0-0.1,0
			c-0.6,0-1.2,0-1.9,0c-0.1,0-0.2,0-0.2,0c-0.1,0-0.2,0-0.3,0c-0.1,0-0.2,0-0.2,0C7.9,31.8,7.8,31.8,7.8,31.8z M7.9,32
			C7.9,32,7.9,32,7.9,32c0.3,0,0.5,0,0.8,0c0.1,0,0.1,0,0.2,0c0.1,0,0.1,0,0.2,0c0.1,0,0.3,0,0.4,0c0.2,0,0.3,0,0.4,0
			c0.1,0,0.2,0,0.3,0c0.2,0,0.5-0.1,0.6,0c0.1,0,0,0.3,0,0.4c0,0,0,0,0,0c0,0.1-0.4,0-0.5,0c-0.1,0-0.1,0-0.2,0c-0.2,0-0.5,0-0.7,0
			c-0.1,0-0.2,0-0.2,0c-0.1,0-0.2,0-0.4,0c-0.1,0-0.2,0-0.2,0c-0.1,0-0.2,0-0.2,0c-0.1,0-0.1,0-0.2,0C8,32.5,7.9,32.2,7.9,32z
			 M8.8,33.4c-0.1,0-0.1,0-0.2,0c0-0.1-0.1-0.1-0.1-0.2c-0.1-0.1-0.2-0.2-0.2-0.4c0.2,0,0.3,0,0.4,0c0.1,0,0.2,0,0.3,0
			c0.2,0,0.4,0,0.6,0c0.1,0,0.2,0,0.3,0c0.2,0,0.4,0,0.6,0c0,0,0.1,0,0.1,0c0.1,0.1,0,0.4,0,0.5c0,0,0,0-0.1,0c-0.2,0-0.3,0-0.5,0
			c-0.1,0-0.2,0-0.2,0c-0.1,0-0.3,0-0.4,0c-0.2,0-0.5,0-0.6,0C9,33.4,8.9,33.4,8.8,33.4z M9.1,34c-0.1,0-0.3-0.3-0.3-0.4
			c0-0.1,0.4,0,0.5-0.1c0.5,0,0.9,0,1.4,0c0,0.1,0,0.3,0,0.4c0,0-0.2,0-0.2,0c-0.1,0-0.2,0-0.2,0c-0.1,0-0.2,0-0.3,0
			c-0.1,0-0.2,0-0.3,0c-0.1,0-0.1,0-0.2,0c-0.1,0-0.1,0-0.2,0C9.3,34.1,9.2,34.1,9.1,34z M9.3,34.3C9.3,34.3,9.3,34.3,9.3,34.3
			C9.3,34.3,9.3,34.3,9.3,34.3c0.1,0,0.1,0,0.2,0c0.1,0,0.2,0,0.3,0c0.1,0,0.3,0,0.4,0c0.2,0,0.5,0,0.6,0c0,0,0,0,0,0
			c0,0.1,0,0.3,0,0.4c0,0-0.1,0-0.1,0c-0.1,0-0.1,0-0.2,0c-0.1,0-0.3,0-0.3,0c0,0-0.1,0-0.1,0c-0.1,0-0.3,0-0.4,0
			C9.5,34.7,9.3,34.4,9.3,34.3z M10.2,35.5c-0.1,0-0.4-0.4-0.4-0.4c0,0,0-0.1,0-0.1c0.1,0,0.2,0,0.3,0c0.1,0,0.6,0,0.6,0
			c0.1,0,0.1,0.4,0,0.4c0,0,0,0-0.1,0C10.6,35.5,10.4,35.5,10.2,35.5z M10.9,36.2C10.9,36.2,10.9,36.2,10.9,36.2
			c-0.1,0-0.4-0.4-0.5-0.5c0,0,0,0,0,0c0,0,0,0,0,0c0,0,0.1,0,0.1,0c0.1,0,0.2,0,0.2,0C10.9,35.8,10.9,36.1,10.9,36.2
			C10.9,36.2,10.9,36.2,10.9,36.2z M33.9,38.6c-0.2,0-0.4,0-0.6,0c0,0,0,0,0,0c0,0,0,0,0,0c0.1,0,0.1-0.1,0.2-0.1
			c0.3-0.1,0.6-0.1,0.8-0.3C34.5,38.3,34,38.6,33.9,38.6z M20.2,6.3c0.2,0,0.3-0.1,0.5-0.1c0.3-0.1,0.5-0.1,0.8-0.1
			c0.2,0,0.4,0,0.5,0c0.2,0,0.5-0.1,0.8-0.1c0.1,0,0.2,0,0.3,0c0.1,0,0.2,0,0.3,0c0.2,0,0.5,0,0.7,0c0.1,0,0.3,0,0.5,0
			c0.1,0,0.2,0,0.3,0c0.2,0,0.3,0,0.5,0c0.1,0,0.2,0,0.2,0c0.1,0,0.2,0,0.3,0c0.1,0,0.3,0,0.4,0.1c0.1,0,0.1,0,0.2,0
			c0.1,0,0.1,0,0.2,0.1c0.1,0,0.1,0,0.2,0.1c0.3,0.1,0.6,0.1,0.9,0.1c0,0,0,0,0,0c0,0-0.5,0-0.6,0c-0.1,0-0.1,0-0.2,0
			c-0.1,0-0.3,0-0.4,0c0,0-0.1,0-0.2,0c-0.1,0-0.2,0-0.3,0c-0.1,0-0.1,0-0.2,0c-0.2,0-0.5-0.1-0.7,0c-0.2,0-0.4,0-0.6,0
			c-0.1,0-0.2,0-0.3,0c-0.1,0-0.2,0-0.2,0c-0.1,0-0.2,0-0.3,0c-0.1,0-0.1,0-0.2,0c-0.4,0-0.9,0-1.3,0c-0.1,0-0.2,0-0.2,0
			c-0.2,0-0.4,0-0.6,0c-0.1,0-0.4,0-0.5,0C20.7,6.4,20.5,6.3,20.2,6.3C20.2,6.3,20.2,6.3,20.2,6.3z M17.8,7C17.8,7,18,6.9,18,6.9
			c0.1,0,0.1,0,0.2-0.1c0.1,0,0.1-0.1,0.2-0.1c0.2-0.1,0.4-0.1,0.6-0.2c0.1,0,0.3,0,0.5,0c0.2,0,0.4,0,0.6,0c0.1,0,0.2,0,0.3,0
			c0.2,0,0.3,0,0.5,0c0.2,0,0.5,0,0.7,0c0.8,0,1.6,0.1,2.4,0c0.1,0,0.3,0,0.4,0c0.2,0,0.4,0,0.6,0c0.9,0,1.8,0,2.8,0
			c0.3,0,0.6,0,0.9,0c0.1,0,0.3,0,0.4,0c0.3,0,0.5,0.2,0.7,0.3c0.1,0,0.5,0.1,0.6,0.2c0,0,0,0-0.1,0c0,0-0.1,0-0.1,0
			c-0.1,0-0.3,0-0.4,0c-0.1,0-0.2,0-0.3-0.1c-0.1,0-0.2,0-0.3,0c-0.1,0-0.2,0-0.2,0c-0.1,0-0.3,0-0.4,0c-0.1,0-0.2,0-0.2,0
			c-0.1,0-0.3,0-0.4,0c-0.2,0-0.6,0-0.8,0c-0.1,0-0.2,0-0.3,0c-0.1,0-0.2,0-0.3,0c-0.1,0-0.2,0-0.4,0c-0.1,0-0.2,0-0.2,0
			c-0.1,0-0.2,0-0.3,0c-0.1,0-0.2,0-0.3,0c-0.3,0-0.6,0-0.9,0c-0.1,0-0.2,0-0.3,0c-0.1,0-0.1,0-0.2,0c-0.1,0-0.1,0-0.2,0
			c-0.3,0-0.5,0-0.8,0c-0.3,0-0.6,0-0.9,0c-0.1,0-0.3,0-0.4,0c-0.2,0-0.5,0-0.7,0c-0.1,0-0.2,0-0.3,0c0,0-0.1,0-0.1,0
			c-0.3,0-0.6,0-0.9,0c0,0-0.1,0-0.1,0c-0.1,0-0.2,0-0.3,0c-0.1,0-0.2,0-0.2,0C18.6,7.1,18.2,7.1,17.8,7C17.8,7.1,17.8,7.1,17.8,7z
			 M16.5,7.6c0,0,0.1-0.1,0.1-0.1c0.4-0.3,1-0.1,1.5-0.1c0.3,0,0.6,0,0.9,0c0.1,0,0.2,0,0.3,0c0.2,0,0.3,0,0.5,0c0.6,0,1.2,0,1.8,0
			c0.1,0,0.2,0,0.3,0c0.2,0,0.3,0,0.5,0c0.1,0,0.1,0,0.2,0c0.1,0,0.1,0,0.2,0c0.1,0,0.2,0,0.2,0c0.3,0,0.6,0.1,0.9,0.1
			c0.2,0,0.3,0,0.4,0c0.4,0,0.8,0,1.1,0c0.2,0,0.4,0,0.6,0c0.3,0,0.6,0,0.9,0c0.2,0,0.3,0,0.5,0c0.7,0,1.4,0,2,0c0.1,0,0.2,0,0.3,0
			c0.2,0,0.3,0,0.5,0c0.2,0,0.5,0,0.7,0c0.2,0,0.4,0.2,0.6,0.2c0.2,0.1,0.4,0.1,0.6,0.2c0,0,0,0,0,0c0,0,0,0-0.1,0
			c-0.1,0-0.2,0-0.3,0c-0.1,0-0.3,0-0.4,0c0,0-0.1,0-0.1,0c-0.2,0-0.5-0.1-0.6,0c-0.1,0-0.2,0-0.2,0c-0.2,0-0.3,0-0.5,0
			c-0.1,0-0.3-0.1-0.4,0c-0.1,0-0.3,0-0.4,0c-0.2,0-0.4,0-0.6,0c-0.2,0-0.5,0-0.7,0c0,0-0.1,0-0.1,0c-0.1,0-0.3,0-0.4,0
			c-0.1,0-0.1,0-0.2,0c-0.1,0-0.3,0-0.4,0c-0.1,0-0.3,0-0.4,0c-0.1,0-0.2,0-0.2,0c-0.2,0-0.4,0-0.6,0c-0.1,0-0.2,0-0.3,0
			c-0.2,0-0.4,0-0.7,0c-0.1,0-0.2,0-0.2,0c-0.2,0-0.4,0-0.6,0c-0.2,0-0.4,0-0.7,0c-0.1,0-0.1,0-0.2,0c-0.2,0-0.4,0-0.6,0
			c-0.1,0-0.2,0-0.2,0c0,0-0.1,0-0.1,0c-0.1,0-0.1,0-0.2,0c-0.7,0-1.4,0-2.2-0.1c-0.1,0-0.2,0-0.3,0c-0.1,0-0.2,0-0.3,0
			c-0.1,0-0.3,0-0.4,0c-0.3,0-0.6,0-0.9,0c-0.1,0-0.5,0-0.6,0c-0.1,0-0.4,0-0.5,0c0,0-0.1,0-0.1,0c-0.2,0-0.3,0-0.5,0
			C16,7.7,16.4,7.6,16.5,7.6z M14.8,8.5C14.8,8.5,14.8,8.5,14.8,8.5c0,0,0.1-0.1,0.2-0.1c0.1-0.1,0.2-0.1,0.2-0.1
			c0.1-0.1,0.2-0.1,0.3-0.1c0.3-0.1,0.7,0,0.9,0c0.3,0,0.6,0,0.8,0c0.2,0,0.4,0,0.7,0c0.1,0,0.2,0,0.2,0c0.4,0,0.9,0,1.4,0
			c0.2,0,0.5,0,0.7,0c0.3,0,0.6,0.1,0.8,0.1c0.2,0,0.3,0,0.5,0c0.2,0,0.4-0.1,0.7-0.1c0.5,0,1,0,1.4,0c0.1,0,0.1,0,0.2,0
			c0.1,0,0.2,0,0.2,0c0.1,0,0.3,0,0.4,0c0.2,0,0.3,0,0.5,0c0.2,0,0.3,0,0.5,0c0.3,0,0.6,0,1,0c0.1,0,0.3,0,0.4,0c0.1,0,0.2,0,0.3,0
			c0,0,0.1,0,0.1,0c0.1,0,0.2,0,0.2,0c0.1,0,0.3,0,0.4,0c0.2,0,0.3,0,0.5,0c0.1,0,0.2,0,0.4,0c0.2,0,0.4,0,0.6,0c0.1,0,0.2,0,0.3,0
			c0.4,0,0.7,0,1.1,0c0.1,0,0.3,0,0.5,0c0.3,0,0.7,0,1,0c0.2,0,0.3,0,0.5,0c0.1,0,0.1,0.1,0.2,0.1c0.1,0.1,0.3,0.2,0.4,0.3
			c0,0.1-0.2,0.1-0.3,0.1c-0.1,0-0.2,0-0.3,0c-0.1,0-0.2,0-0.2,0c-0.1,0-0.2,0-0.3,0c-0.1,0-0.1,0-0.2,0c-0.2,0-0.5,0-0.7,0
			c-0.1,0-0.2,0-0.2,0c-0.1,0-0.2,0-0.3,0c0,0-0.1,0-0.1,0c-0.6,0-1.1,0-1.7,0c-0.2,0-0.4-0.1-0.5,0c-0.1,0-0.2,0-0.3,0
			c-0.1,0-0.4,0-0.5,0c-0.1,0-0.2,0-0.2,0c-0.1,0-0.3,0-0.4,0c-0.1,0-0.2,0-0.3,0c-0.1,0-0.2,0-0.3,0c0,0-0.1,0-0.1,0
			c-0.2,0-0.5,0-0.7,0c-0.1,0-0.2,0-0.3,0c-0.1,0-0.4-0.1-0.5,0c-0.1,0-0.1,0-0.2,0c-0.1,0-0.3-0.1-0.4,0c-0.1,0-0.2,0-0.2,0
			c-0.4,0-0.7,0-1.1,0c-0.2,0-0.5-0.1-0.7,0c0,0-0.1,0-0.1,0c-0.2,0-0.3,0-0.4,0c-0.4,0-0.7,0-1.1,0c-0.1,0-0.2,0-0.3,0
			c-0.2,0-0.5,0-0.7,0c-0.1,0-0.1,0-0.2,0c-0.3,0-0.7,0-1,0c-0.2,0-0.4,0-0.6,0c-0.1,0-0.4-0.1-0.5,0c-0.1,0-0.1,0-0.2,0
			c-0.1,0-0.2,0-0.2,0c-0.2,0-0.3,0-0.5,0c-0.1,0-0.2,0-0.2,0c-0.1,0-0.1,0-0.2,0c-0.2,0-0.4,0-0.6,0C15.1,8.6,15,8.6,14.8,8.5
			C14.8,8.5,14.8,8.5,14.8,8.5C14.8,8.5,14.8,8.5,14.8,8.5z M13.8,9.2c0,0,0.1-0.1,0.1-0.1C14,9,14.2,8.9,14.4,8.8
			c0.1,0,0.3,0,0.4,0c0.2,0,0.3,0,0.5,0c0.3,0,0.6,0,0.9,0c0.1,0,0.3,0,0.4,0c0.2,0,0.3,0,0.5,0c0.1,0,0.2,0,0.3,0
			c0.2,0,0.4,0,0.6,0c0.3,0,0.6,0,0.9,0c0.1,0,0.2,0,0.2,0c0.2,0,0.5,0,0.7,0c0.4,0,0.9,0,1.3,0c0.3,0,0.6,0,1,0c0.2,0,0.5,0,0.7,0
			c0.1,0,0.2,0,0.3,0c0.2,0,0.4,0,0.5,0c0.3,0,0.5,0,0.7,0c0.2,0,0.4,0,0.6,0c0.2,0,0.4,0,0.6,0c0.1,0,0.2,0,0.3,0
			c0.1,0,0.2,0,0.2,0c0.2,0,0.4,0,0.6,0c0.3,0,0.6,0,1,0c0.2,0,0.4,0,0.5,0c0.4,0,0.9,0,1.3,0c0.1,0,0.2,0,0.3,0c0.4,0,0.9,0,1.4,0
			c0.2,0,0.4,0,0.6,0c0.2,0,0.4,0,0.7,0.1c0.2,0,0.4,0,0.6,0c0.1,0,0.3,0,0.4,0c0.2,0,0.3,0,0.5,0c0.1,0,0.1,0.1,0.2,0.1
			C33.9,9,34,9,34,9c0.1,0.1,0.2,0.2,0.3,0.2c0,0,0,0-0.1,0c-0.1,0-0.2,0-0.4,0c-0.1,0-0.3-0.1-0.4,0c0,0-0.1,0-0.1,0
			c-0.3,0-0.5,0-0.8,0c-0.3,0-0.5,0-0.8,0c-0.1,0-0.2,0-0.2,0c-0.1,0-0.2,0-0.2,0c-0.1,0-0.3,0-0.4,0c-0.1,0-0.4,0-0.4,0
			c-0.1,0-0.3,0-0.4,0c-0.1,0-0.2,0-0.3,0c-0.3,0-0.6,0-0.9,0c-0.1,0-0.2,0-0.3,0c-0.1,0-0.1,0-0.2,0c-0.2,0-0.5,0-0.7,0
			c-0.1,0-0.2,0-0.2,0c-0.2,0-0.6,0-0.8,0c-0.1,0-0.3,0-0.4,0c-0.3,0-0.7,0-1.1,0c-0.1,0-0.4,0-0.5,0c-0.1,0-0.1,0-0.2,0
			c-0.2,0-0.4,0-0.5,0c-0.5,0-1,0-1.6,0c-0.3,0-0.5,0-0.8,0c-0.1,0-0.2,0-0.2,0c-0.1,0-0.2,0-0.3,0c-0.2,0-0.3,0-0.5,0
			c0,0-0.1,0-0.1,0c-0.2,0-0.3,0-0.5,0c-0.1,0-0.2,0-0.2,0c-0.3,0-0.5,0-0.8,0c-0.1,0-0.2,0-0.2,0c-0.3,0-0.7,0-1,0
			c-0.1,0-0.2,0-0.3,0c-0.1,0-0.1,0-0.2,0c-0.4,0-0.9,0-1.3,0c-0.2,0-0.6-0.1-0.8,0c0,0-0.1,0-0.1,0c-0.2,0-0.4,0-0.7,0
			C14.3,9.3,14,9.3,13.8,9.2C13.8,9.2,13.8,9.2,13.8,9.2C13.8,9.2,13.8,9.2,13.8,9.2z M12.7,10C12.7,10,12.8,9.9,12.7,10
			c0.2-0.2,0.5-0.5,0.7-0.5c0.3,0,0.5,0,0.8,0c0.1,0,0.3,0,0.4,0c0.2,0,0.3,0,0.5,0c0.2,0,0.5,0,0.7,0c0.5,0,0.9,0.1,1.4,0.1
			c0.1,0,0.2,0,0.3,0c0.2,0,0.5,0,0.7,0c0.1,0,0.3,0,0.4,0c0.1,0,0.3,0,0.4,0c0.2,0,0.3,0,0.5,0c0.3,0,0.7,0,1.1,0
			c0.2,0,0.3,0,0.5,0c0.1,0,0.2,0,0.3,0c0.2,0,0.3,0,0.5,0c0.3,0,0.5,0,0.8,0.1c0.1,0,0.3,0,0.4,0c0.2,0,0.3,0,0.5,0
			c0.1,0,0.2,0,0.3,0c0.1,0,0.1,0,0.2,0c0.1,0,0.2,0,0.2,0c0.2,0,0.4,0,0.6,0c0.1,0,0.1,0,0.2,0c0.1,0,0.2,0,0.3,0
			c0.2,0,0.3,0,0.5,0c0.1,0,0.2,0,0.3,0c0.2,0,0.4,0,0.5,0c0.1,0,0.3,0,0.4,0c0.2,0,0.4,0,0.7,0c0.1,0,0.2,0,0.3,0
			c0.1,0,0.2,0,0.3,0c0.1,0,0.3,0,0.4,0c0.3,0,0.6,0,0.9,0c0.5,0,1.1-0.1,1.6-0.1c0.2,0,0.3,0,0.5,0c0.1,0,0.2,0,0.3,0
			c0.3,0,0.5,0,0.8,0c0.2,0,0.3,0,0.5,0c0.1,0,0.2,0,0.3,0c0.1,0,0.2,0,0.3,0c0.2,0,0.4,0,0.6,0c0.1,0,0.5,0.3,0.5,0.4
			c0,0,0,0-0.1,0c-0.1,0-0.3,0-0.3,0c-0.2,0-0.5-0.1-0.7,0c0,0-0.1,0-0.1,0c-0.1,0-0.2,0-0.2,0c-0.2,0-0.5,0-0.6,0
			c-0.1,0-0.2,0-0.3,0c-0.2,0-0.5,0-0.7,0c-0.1,0-0.4,0-0.5,0c-0.5,0-1,0-1.5,0c-0.2,0-0.4,0-0.7,0c-0.1,0-0.2,0-0.3,0
			c-0.2,0-0.4,0-0.6,0c-0.1,0-0.2,0-0.3,0c-0.2,0-0.4,0-0.5,0c-0.1,0-0.2,0-0.2,0c0,0-0.1,0-0.1,0c-0.2,0-0.4,0-0.6,0
			c-0.1,0-0.2,0-0.2,0c-0.1,0-0.5,0-0.6,0c-0.1,0-0.4,0-0.5,0c0,0-0.1,0-0.1,0c-0.2,0-0.4,0-0.6,0c-0.1,0-0.1,0-0.2,0
			c-0.2,0-0.4-0.1-0.6,0c0,0-0.1,0-0.1,0c-0.1,0-0.4-0.1-0.5,0c-0.2,0-0.4,0-0.6,0c-0.1,0-0.2,0-0.2,0c-0.1,0-0.4-0.1-0.5,0
			c0,0-0.1,0-0.1,0c-0.2,0-0.5,0-0.7,0c-0.1,0-0.2,0-0.3,0c-0.1,0-0.3,0-0.4,0c-0.1,0-0.2,0-0.3,0c-0.1,0-0.2,0-0.2,0
			c-0.1,0-0.2,0-0.2,0c-0.1,0-0.2,0-0.3,0c-0.1,0-0.3-0.1-0.5,0c-0.2,0-0.4,0-0.6,0c-0.1,0-0.2,0-0.2,0c-0.1,0-0.1,0-0.2,0
			c0,0-0.1,0-0.1,0c-0.3,0-0.6,0-0.8-0.1c-0.1,0-0.1,0-0.2,0c-0.3,0-0.5,0-0.8,0c-0.1,0-0.4,0-0.5,0c-0.1,0-0.2,0-0.2,0
			c-0.1,0-0.3,0-0.3,0c0,0-0.1,0-0.1,0c-0.2,0-0.5,0-0.7,0c-0.1,0-0.2,0-0.2,0C13.4,10,13.1,10,12.7,10C12.7,10,12.7,10,12.7,10z
			 M11.9,10.7c0-0.1,0.1-0.2,0.1-0.2c0.1-0.1,0.2-0.2,0.3-0.3c0.2-0.1,0.4,0,0.7,0c0.3,0,0.6,0,0.9,0c0.3,0,0.5,0,0.8,0
			c0.2,0,0.3,0,0.5,0c0.6,0,1.2,0,1.8,0c0.1,0,0.1,0,0.2,0c0.1,0,0.2,0,0.4,0c0.4,0,0.7,0,1.1,0c0.4,0,0.9,0,1.3,0
			c0.2,0,0.5,0,0.8,0c0.2,0,0.3,0,0.5,0c0.4,0,0.9,0,1.3,0c0.3,0,0.6,0,0.9,0c0.1,0,0.2,0,0.2,0c0.1,0,0.3,0,0.4,0
			c0.1,0,0.2,0,0.2,0c0.1,0,0.1,0,0.2,0c0.1,0,0.2,0,0.3,0c0.1,0,0.2,0,0.4,0c0.1,0,0.2,0,0.3,0c0.5,0,1,0,1.4,0c0.2,0,0.3,0,0.5,0
			c0.3,0,0.6,0,0.9,0c0.3,0,0.6,0,0.9,0c0.2,0,0.3,0,0.5,0c0.1,0,0.2,0,0.3,0c0.4,0,0.9,0,1.3,0c0.4,0,0.8,0,1.2,0
			c0.1,0,0.2,0,0.2,0c0.3,0,0.6,0,1,0c0.1,0,0.3,0,0.4-0.1c0.1,0,0.2,0,0.4,0c0.3,0,0.5,0,0.8,0c0.1,0,0.3,0,0.4,0
			c0.1,0,0.1,0.1,0.2,0.1c0,0,0.2,0.2,0.2,0.2c-0.1,0.1-0.3,0-0.4,0.1c-0.2,0-0.6,0-0.8,0c-0.4,0-0.9,0-1.3,0c-0.1,0-0.2,0-0.4,0
			c-0.1,0-0.1,0-0.2,0c-0.1,0-0.1,0-0.2,0c-0.1,0-0.4,0-0.5,0c-0.2,0-0.5,0-0.7,0c-0.1,0-0.2,0-0.2,0c-0.1,0-0.1,0-0.2,0
			c0,0-0.1,0-0.1,0c-0.1,0-0.1,0-0.2,0c-0.1,0-0.3-0.1-0.4,0c-0.1,0-0.3,0-0.4,0c-0.1,0-0.1,0-0.1,0c-0.1,0-0.2,0-0.2,0
			c-0.3,0-0.6,0-0.9,0c-0.1,0-0.2,0-0.3,0c0,0-0.1,0-0.1,0c-0.2,0-0.3,0-0.5,0c-0.3,0-0.5,0-0.8,0c-0.1,0-0.4,0-0.5,0
			c-0.1,0-0.1,0-0.2,0c-0.2,0-0.3,0-0.5,0c-0.1,0-0.3,0-0.4,0c-0.4,0-0.9,0-1.3,0c-0.1,0-0.3,0-0.4,0c-0.4,0-0.9,0-1.3,0
			c-0.1,0-0.3,0-0.4,0c-0.1,0-0.3,0-0.4,0c-0.1,0-0.2-0.1-0.3,0c-0.1,0-0.2,0-0.3,0c-0.1,0-0.3,0-0.4,0c-0.1,0-0.1,0-0.2,0
			c-0.1,0-0.1,0-0.2,0c-0.2,0-0.4,0-0.6,0c-0.1,0-0.2,0-0.3,0c-0.1,0-0.3-0.1-0.4,0c-0.4,0-0.7,0-1.1,0c-0.1,0-0.2,0-0.3,0
			c-0.2,0-0.3,0-0.5,0c-0.1,0-0.2,0-0.3,0c-0.1,0-0.3,0-0.4,0c-0.3,0-0.6,0-0.9,0c-0.1,0-0.3,0-0.4,0c-0.1,0-0.3,0-0.4,0
			c-0.2,0-0.5,0-0.7,0c-0.4,0-0.7,0-1.1,0c-0.1,0-0.3,0-0.3,0c-0.1,0-0.3,0-0.4,0c-0.1,0-0.2,0-0.3,0C12.1,10.7,12,10.7,11.9,10.7
			C11.9,10.7,11.9,10.7,11.9,10.7z M14.1,38.7c-0.3,0-0.4-0.1-0.6-0.2c-0.1,0-0.1-0.1-0.2-0.2c0.3,0.1,0.6,0.1,0.9,0.2
			c0.2,0,0.5,0.1,0.7,0.1c0,0,0,0,0,0c-0.1,0-0.2,0-0.4,0c-0.1,0-0.2,0-0.3,0C14.2,38.7,14.2,38.7,14.1,38.7z M14.5,39.1
			c-0.1,0-0.2-0.1-0.2-0.2c0.4,0,0.8,0,1.2,0c0.3,0,0.5,0,0.8,0c0.4,0,0.7,0.1,1,0.1c0.3,0,0.5,0,0.7,0c0.4,0.1,0.8,0.1,1.2,0.2
			c0.3,0,0.6,0.1,0.9,0.1c0,0,0,0,0,0c0,0-0.1,0-0.1,0c-0.2,0-0.5,0-0.7,0c-0.1,0-0.2,0-0.2,0c-0.1,0-0.1,0-0.2,0
			c-0.2,0-0.4,0-0.7,0c-0.1,0-0.3,0-0.5,0c-0.1,0-0.3,0-0.3,0c-0.3,0-0.6,0-0.9,0c-0.1,0-0.2,0-0.3,0c-0.1,0-0.3,0-0.4,0
			c-0.1,0-0.2,0-0.3,0c-0.2,0-0.4,0-0.6-0.1C14.8,39.3,14.6,39.2,14.5,39.1z M16.2,40.1c-0.3-0.1-0.5-0.3-0.8-0.4c0,0,0,0,0,0
			c0.3,0,0.5,0,0.8,0c0.1,0,0.3,0,0.4,0c0.2,0,0.4,0,0.6,0c0.2,0,0.3,0,0.5,0c0.1,0,0.2,0,0.2,0c0.1,0,0.3,0,0.4,0
			c0.4,0,0.9,0,1.3,0c0.3,0,0.7,0,1,0c0,0,0.1,0,0.1,0c0.1,0,0.2,0,0.3,0c0.3,0.1,0.6,0.2,0.8,0.4c0,0,0.1,0,0.1,0.1
			c0,0-0.1,0-0.1,0c-0.1,0-0.1,0-0.2,0c-0.2,0-0.4,0-0.6,0c-0.1,0-0.1,0-0.2,0c-0.1,0-0.2,0-0.3,0c-0.2,0-0.4,0-0.6,0
			c-0.1,0-0.2,0-0.3,0c-0.2,0-0.4,0-0.6,0c-0.1,0-0.3-0.1-0.4,0c-0.1,0-0.2,0-0.3,0c-0.1,0-0.3,0-0.4,0c-0.4,0-0.9,0-1.3-0.1
			C16.5,40.1,16.3,40.1,16.2,40.1z M18.7,40.9c-0.1,0-0.2,0-0.3,0c-0.1,0-0.2,0-0.3-0.1c-0.1,0-0.2-0.1-0.2-0.1
			c-0.1,0-0.2,0-0.4-0.1c-0.1,0-0.3-0.1-0.4-0.1c-0.1,0-0.1,0-0.2-0.1c0,0,0,0,0,0c0,0,0,0,0,0c0.1,0,0.1,0,0.2,0c0.2,0,0.5,0,0.8,0
			c0.2,0,0.4,0,0.5,0c0.3,0,0.5,0,0.8,0c0.1,0,0.2,0,0.3,0c0.2,0,0.4,0,0.6,0c0.3,0,0.5,0,0.8,0.1c0.3,0,0.6,0,0.9,0
			c0.1,0,0.3,0,0.4,0c0.2,0,0.4,0.3,0.5,0.4c0,0,0,0.1,0,0.1c-0.1,0.1-0.3,0-0.4,0c-0.1,0-0.3,0-0.4,0c-0.3,0-0.5,0-0.8,0
			c-0.1,0-0.2,0-0.3,0c-0.3,0-0.5,0-0.8,0c-0.4,0-0.7,0-1.1,0C19,40.9,18.8,40.9,18.7,40.9z M23.2,41.8c0,0-0.1,0-0.1,0
			c-0.2,0-0.4-0.1-0.6-0.1c-0.1,0-0.2,0-0.3,0c-0.1,0-0.3,0-0.4-0.1c-0.1,0-0.2,0-0.4,0c-0.7-0.1-1.4-0.2-2.1-0.4
			c-0.1,0-0.4-0.1-0.4-0.1c0.3,0.1,0.7,0,1,0.1c0.3,0,0.6,0,0.9,0c0.1,0,0.2,0,0.3,0c0.1,0,0.2,0,0.3,0c0.1,0,0.2,0,0.4,0
			c0.1,0,0.2,0,0.2,0c0.1,0,0.2,0,0.3,0.1c0.2,0,0.6-0.1,0.8,0C23.2,41.4,23.2,41.7,23.2,41.8C23.3,41.8,23.2,41.8,23.2,41.8z
			 M23.7,41.1C23.7,41.1,23.7,41.1,23.7,41.1C23.7,41.1,23.7,41.1,23.7,41.1C23.6,41,23.6,41,23.7,41.1c-0.1-0.2-0.2-0.3-0.3-0.4
			c-0.1-0.2-0.3-0.3-0.4-0.5c-0.4-0.4-0.9-0.7-1.4-0.9c-0.1,0-0.2-0.1-0.3-0.1c-0.1,0-0.2-0.1-0.3-0.2c-0.1,0-0.2-0.1-0.3-0.1
			c-0.1,0-0.2-0.1-0.4-0.1c-0.3-0.1-0.5-0.1-0.8-0.2c-0.2,0-0.5-0.1-0.7-0.1c-0.2,0-0.4,0-0.6,0c-0.9-0.1-1.8-0.2-2.6-0.3
			c-0.3,0-0.6-0.1-0.9-0.1c-0.3,0-0.6-0.1-0.8-0.2c-0.1,0-0.3-0.1-0.4-0.1c-0.1-0.1-0.3-0.1-0.4-0.2c-0.1,0-0.2-0.1-0.3-0.1
			c-0.1,0-0.1-0.1-0.2-0.1c0,0-0.1,0-0.1-0.1c-0.2-0.2-0.4-0.4-0.6-0.7c-0.1-0.2-0.2-0.4-0.3-0.6c0-0.1-0.1-0.2-0.1-0.3
			c-0.1-0.5-0.1-1-0.1-1.5c0-0.1,0-0.2,0-0.3c0-0.4,0-0.8,0-1.2c0-0.1,0-0.2,0-0.3c0-0.4,0-0.8,0-1.2c0-0.3,0-0.5,0-0.8
			c0-1.1,0-2.2,0-3.2c0-0.2,0-0.3,0-0.5c0-0.2,0-0.3,0-0.5c0-0.1,0-0.2,0-0.2c0-0.2,0-0.5,0.1-0.7c0-0.2,0-0.4,0-0.6
			c0-0.1,0-0.3,0-0.4c0-0.1,0-0.2,0-0.3c0-0.1,0-0.2,0-0.3c0-0.2,0-0.4,0-0.7c0-0.1,0-0.3,0-0.4c0-0.1,0-0.3,0-0.4
			c0-0.2,0-0.4,0.1-0.5c0-0.2,0-0.3,0-0.5c0-0.4,0-0.8,0-1.1c0-0.1,0-0.2,0-0.2c0-0.2,0-0.3,0-0.5c0-0.1,0-0.3,0-0.4
			c0-0.7,0-1.4,0-2c0-0.2,0-0.5,0-0.7c0-0.2,0-0.3,0-0.5c0-0.1,0-0.2,0-0.3c0-0.6,0-1.2,0-1.7c0-0.2,0-0.4,0-0.6c0-0.2,0-0.5,0-0.7
			c0-0.2,0-0.3,0-0.5c0-0.1,0-0.3,0-0.4c0,0,0,0,0.1,0c0.2,0,0.5-0.1,0.8,0c0.3,0,0.6,0,1,0c0.3,0,0.6,0,0.9,0c0.2,0,0.3,0,0.5,0
			c0.3,0,0.6,0,0.9,0c0.4,0,0.8,0,1.2,0c0.1,0,0.2,0,0.3,0c0.2,0,0.3,0,0.5,0c0.1,0,0.3,0,0.4,0c0.2,0,0.4,0,0.5,0
			c0.3,0,0.6,0,0.8,0c0.1,0,0.3,0,0.4,0c0.4,0,0.8,0,1.2,0c0.3,0,0.5,0,0.8,0c0.2,0,0.4,0,0.7,0c0.2,0,0.3,0,0.5,0
			c0.1,0,0.3,0,0.4,0c0.2,0,0.3,0,0.5,0c0.1,0,0.3,0,0.4,0c0.3,0,0.5,0,0.8,0c0.1,0,0.2,0,0.4,0c0.7,0,1.4,0,2.1,0
			c0.2,0,0.3,0,0.5,0c0.3,0,0.6,0,1,0c0.1,0,0.1,0,0.2,0c0.3,0,0.6,0,0.9,0c0.1,0,0.2,0,0.3,0c0.1,0,0.3,0,0.4,0c0.2,0,0.4,0,0.6,0
			c0.1,0,0.3,0,0.4,0c0.1,0,0.2,0,0.3,0c0.1,0,0.3,0,0.5,0c0.1,0,0.2,0,0.3,0c0.1,0,0.2,0,0.3,0c0.1,0,0.2,0,0.3,0
			c0.1,0,0.2,0,0.3,0c0.2,0,0.3,0,0.5,0c0.3,0,0.5,0,0.8,0c0.1,0,0.3,0,0.4,0c0.1,0,0.2,0,0.3,0c0.1,0,0.2,0,0.3,0c0,0,0,0,0,0
			c0.1,0.1,0,0.2,0,0.4c0,0.4,0,0.7,0,1.1c0,0.2,0,0.5,0,0.7c0,0.1,0,0.2,0,0.2c0,0.2,0,0.3,0,0.5c0,0.2,0,0.3,0,0.5
			c0,0.2,0,0.4,0,0.6c0,0.1,0,0.2,0,0.2c0,0.1,0,0.3,0,0.4c0,0.1,0,0.3,0,0.4c0,0.2,0,0.3,0,0.5c0,0.1,0,0.3,0,0.4
			c0,0.2,0,0.4,0,0.6c0,0.1,0,0.2,0,0.2c0,0.2,0,0.4,0,0.5c0,0.3,0,0.6,0,0.9c0,0.1,0,0.1,0,0.2c0,0.1,0,0.3,0,0.4
			c0,0.2,0,0.3,0,0.5c0,0.1,0,0.2,0,0.4c0,0.1,0,0.1,0,0.2c0,0.1,0,0.2,0,0.3c0,0.3,0,0.6,0,1c0,0.2,0,0.3,0,0.5c0,0.1,0,0.1,0,0.2
			c0,0.1,0,0.2,0,0.3c0,0.1,0,0.1,0,0.2c0,0.1,0,0.2,0,0.4c0,0.2,0,0.3,0,0.5c0,0.5,0,0.9,0,1.4c0,0.2,0,0.4,0,0.6
			c0,0.1,0,0.2,0,0.3c0,0.2,0,0.4,0,0.7c0,0.1,0,0.2,0,0.4c0,0.5,0,0.9,0,1.4c0,0.3,0,0.7,0,1c0,0.2,0,0.3,0,0.5c0,0.1,0,0.1,0,0.2
			c0,0.1,0,0.2,0,0.4c0,0.3,0,0.6,0,0.9c0,0.3,0,0.7,0,1.1c0,0.1,0,0.2,0,0.3c0,0.1,0,0.1,0,0.2c0,0.2,0,0.4,0,0.6
			c0,0.2,0,0.4,0,0.5c0,0.1,0,0.2-0.1,0.3c0,0.1,0,0.2,0,0.4c0,0.2-0.2,0.5-0.3,0.7c-0.1,0.1-0.2,0.2-0.4,0.4
			c-0.1,0.1-0.2,0.1-0.2,0.2c-0.1,0.1-0.3,0.2-0.4,0.3c-0.1,0-0.2,0.1-0.3,0.1c-0.2,0.1-0.4,0.2-0.6,0.3c-0.2,0.1-0.4,0.1-0.6,0.2
			c0,0-0.1,0-0.1,0.1c-0.1,0-0.2,0-0.3,0.1c-0.1,0-0.2,0-0.3,0c-0.1,0-0.2,0-0.4,0.1c0,0-0.1,0-0.1,0c-0.1,0-0.1,0-0.2,0
			c-0.1,0-0.4,0-0.4,0.1c-0.1,0-0.2,0-0.3,0c-0.1,0-0.1,0-0.2,0c-0.1,0-0.2,0-0.3,0c0,0-0.1,0-0.1,0c-0.1,0-0.1,0-0.2,0
			c-0.1,0-0.1,0-0.2,0c-0.1,0-0.3,0-0.4,0c0,0-0.1,0-0.1,0c-0.1,0-0.2,0-0.3,0c-0.1,0-0.1,0-0.2,0c0,0-0.1,0-0.1,0
			c-0.1,0-0.2,0-0.3,0c0,0-0.1,0-0.1,0c0,0-0.1,0-0.1,0c0,0-0.1,0-0.1,0c0,0-0.1,0-0.1,0c-0.1,0-0.1,0-0.2,0c0,0-0.1,0-0.1,0
			c-0.1,0-0.2,0-0.2,0c-0.1,0-0.1,0-0.2,0c-0.1,0-0.1,0-0.2,0c-0.1,0-0.1,0-0.1,0c0,0-0.1,0-0.1,0c-0.1,0-0.2,0-0.3,0.1
			c-0.1,0-0.1,0-0.1,0c-0.2,0-0.3,0.1-0.5,0.1c-0.1,0-0.2,0.1-0.3,0.1c-0.2,0-0.5,0.2-0.6,0.3c-0.1,0.1-0.3,0.2-0.5,0.3
			C24.1,40.1,23.9,40.6,23.7,41.1z M28.3,41.3c-0.2,0-0.4,0.1-0.6,0.2c-0.1,0-0.3,0-0.4,0.1c-0.2,0-0.4,0.1-0.5,0.1c0,0-0.1,0-0.1,0
			c-0.1,0-0.2,0-0.3,0c-0.1,0-0.3,0-0.4,0.1c-0.1,0-0.2,0-0.3,0c-0.1,0-0.4,0-0.4,0c0,0-0.1,0-0.1,0c-0.3,0-0.5,0-0.8,0c0,0,0,0,0,0
			c0,0,0,0,0,0c0-0.2,0.1-0.4,0.2-0.5c0.3,0,0.7,0,1,0c0.3,0,0.6,0,0.9,0c0.1,0,0.2,0,0.3,0c0.2,0,0.5,0,0.7,0
			C27.9,41.2,28.1,41.2,28.3,41.3C28.3,41.2,28.3,41.2,28.3,41.3z M30.4,40.5C30.4,40.5,30.4,40.5,30.4,40.5
			C30.4,40.5,30.4,40.5,30.4,40.5c-0.2,0.1-0.4,0.2-0.5,0.2c-0.1,0-0.2,0.1-0.3,0.1c-0.1,0-0.2,0.1-0.3,0.1c-0.1,0-0.4,0-0.5,0
			c-0.1,0-0.2,0-0.3,0c-0.1,0-0.2,0-0.2,0c-0.1,0-0.2,0-0.2,0c0,0-0.1,0-0.1,0c-0.2,0-0.3,0-0.5,0c-0.1,0-0.2-0.1-0.3,0
			c-0.1,0-0.2,0-0.2,0c-0.1,0-0.3,0-0.3,0c-0.1,0-0.1,0-0.2,0c-0.1,0-0.2,0-0.3,0c0,0-0.1,0-0.1,0c-0.1,0-0.5,0-0.6,0
			c-0.1,0-0.2,0-0.3,0c-0.2,0-0.3,0-0.5-0.1c0-0.2,0.2-0.5,0.4-0.5c0.1,0,0.3,0,0.4,0c0.5-0.1,1,0,1.4,0c0.2,0,0.5,0,0.7,0
			c0.2,0,0.3,0,0.5,0c0.1,0,0.2,0,0.2,0c0.1,0,0.4,0,0.6,0c0.2,0,0.5,0,0.7,0c0.1,0,0.2,0,0.3,0C30.1,40.5,30.3,40.5,30.4,40.5
			C30.4,40.5,30.4,40.5,30.4,40.5z M32.2,39.7c-0.1,0-0.2,0.1-0.3,0.1c-0.2,0.1-0.4,0.2-0.6,0.3c-0.1,0-0.2,0.1-0.3,0.1
			c-0.2,0-0.5,0-0.7,0c-0.1,0-0.2,0-0.3,0c-0.1,0-0.2,0-0.3,0c-0.1,0-0.2,0-0.3,0c-0.1,0-0.3-0.1-0.4,0c-0.2,0-0.5,0-0.7,0
			c-0.1,0-0.3,0-0.4,0c-0.1,0-0.2,0-0.2,0c-0.1,0-0.3,0-0.4,0c-0.1,0-0.5-0.1-0.6,0c-0.4,0-0.7-0.1-1.1-0.1c0,0,0,0,0,0
			c0,0,0.2-0.1,0.3-0.2c0.2-0.1,0.3-0.2,0.5-0.2c0.1,0,0.2-0.1,0.3-0.1c0.3,0,0.6,0,0.9,0c0.2,0,0.5,0,0.7,0c0.6,0,1.2,0,1.8,0
			c0.2,0,0.4,0,0.6,0c0.1,0,0.2,0,0.3,0C31.3,39.6,31.7,39.7,32.2,39.7C32.2,39.7,32.2,39.7,32.2,39.7
			C32.2,39.7,32.2,39.7,32.2,39.7C32.2,39.7,32.2,39.7,32.2,39.7z M32.4,39.4c-0.4,0-0.8,0-1.2,0c-0.2,0-0.4-0.1-0.6,0
			c-0.2,0-0.4,0-0.5,0c-0.1,0-0.3,0-0.4,0c-0.2,0-0.5,0-0.7-0.1c0,0-0.1,0-0.1,0c-0.3,0-0.6,0-0.9,0c0,0,0,0,0,0c0,0,0,0,0,0
			c0,0,0,0,0,0c0.1,0,0.3,0,0.5,0c0.3,0,0.5,0,0.8,0c0.4,0,0.7-0.1,1.1-0.1c0.2,0,0.4,0,0.5-0.1c0.2,0,0.3-0.1,0.5-0.1
			c0.2,0,0.3,0,0.5,0c0.1,0,0.3,0,0.4,0c0.1,0,0.2,0,0.3,0c0.1,0,0.1,0,0.2,0c0.1,0,0.2,0,0.2,0c0.1,0,0.2,0,0.2,0c0,0,0,0,0,0
			c0,0,0,0,0,0c-0.1,0.1-0.2,0.2-0.4,0.2c-0.1,0-0.2,0.1-0.2,0.2c-0.1,0-0.1,0.1-0.2,0.1C32.5,39.4,32.5,39.4,32.4,39.4z"/>
		<path d="M24.6,21.3c0.2-0.1,0.3-0.2,0.5-0.3c0.2-0.1,0.5-0.2,0.8-0.3c0.2-0.1,0.4-0.1,0.6-0.2c0.1,0,0.2,0,0.2-0.1
			c0.1-0.1,0.1-0.2,0-0.3c-0.1,0-0.1,0-0.2,0c-0.1,0-0.2,0.1-0.3,0.1c-0.1,0-0.1,0.1-0.2,0.1c-0.2,0.1-0.4,0.1-0.6,0.2
			c-0.2,0.1-0.4,0.2-0.5,0.3c-0.1,0-0.1,0.1-0.2,0.1c-0.1,0.1-0.3,0.2-0.4,0.4c0,0,0,0,0,0C24.3,21.4,24.5,21.3,24.6,21.3z"/>
		<path d="M21.1,20.6c0.6,0.2,1.1,0.3,1.6,0.6c0.1,0.1,0.2,0.1,0.3,0.2c0.1,0,0.2,0.1,0.3,0.2c0,0,0.1,0,0.1,0
			c0.1-0.1-0.5-0.5-0.6-0.5c-0.2-0.1-0.3-0.2-0.5-0.2c-0.1,0-0.1-0.1-0.2-0.1c-0.1,0-0.2-0.1-0.3-0.1c-0.1-0.1-0.3-0.1-0.4-0.1
			c-0.1,0-0.1,0-0.2,0c-0.2-0.1-0.4-0.1-0.6-0.1c-0.1,0.1-0.1,0.2,0,0.3C20.8,20.6,21,20.6,21.1,20.6z"/>
		<g>
			<path d="M35.6,20.3c0-0.2,0-0.5,0-0.7c0-0.1,0-0.2,0-0.2c0-0.2,0-0.3,0-0.5c0-0.1,0-0.3,0-0.4c0-1.1,0-2.1,0-3.1
				c0-0.6,0-1.1,0-1.7c0-0.3,0-0.7,0-1c0-0.3,0-0.6,0-0.9c0,0,0,0,0,0c0,0-0.2,0-0.2,0c-0.3,0-0.6,0-0.9,0c-0.2,0-0.4,0-0.6,0
				c-0.1,0-0.1,0-0.2,0c-0.1,0-0.2,0-0.2,0c-0.1,0-0.2,0-0.3,0c-0.4,0-0.8,0-1.1,0c-0.1,0-0.4,0-0.5,0c-0.2,0-0.4,0-0.6,0
				c-0.1,0-0.4-0.1-0.5,0c0,0-0.1,0-0.1,0c-0.1,0-0.3,0-0.4,0c-0.2,0-0.4,0-0.6-0.1c-0.2,0-0.4,0-0.6,0c0,0-0.1,0-0.1,0
				c-0.2,0-0.3,0-0.5,0c-0.1,0-0.2,0-0.3,0c-0.1,0-0.1,0-0.2,0c-0.1,0-0.3,0-0.4,0c-0.3,0-0.7,0-1,0c-0.1,0-0.3,0-0.4,0
				c0,0-0.1,0-0.1,0c0,0-0.1,0-0.1,0c-0.2,0-0.5-0.1-0.7,0c0,0-0.1,0-0.1,0c-0.1,0-0.2,0-0.2,0c-0.5,0-1,0-1.4,0c-0.1,0-0.3,0-0.4,0
				c-0.1,0-0.1,0-0.2,0c-0.1,0-0.2,0-0.4,0c-0.2,0-0.5-0.1-0.7,0c-0.1,0-0.2,0-0.3,0c-0.1,0-0.2,0-0.2,0c-0.1,0-0.2,0-0.3,0
				c-0.2,0-0.4,0-0.6,0c-0.1,0-0.1,0-0.2,0c-0.1,0-0.3,0-0.4,0c-0.2,0-0.4,0-0.6,0c-0.1,0-0.2,0-0.3,0c-0.2,0-0.5,0-0.7,0
				c-0.1,0-0.4-0.1-0.6,0c-0.1,0-0.4-0.1-0.5,0c-0.3,0-0.6,0-0.9,0c-0.1,0-0.3,0-0.4,0c-0.1,0-0.1,0-0.2,0c-0.1,0-0.3,0-0.4,0
				c-0.1,0-0.3,0-0.3,0c-0.4,0-0.8,0-1.2,0c-0.1,0-0.3,0-0.4,0c-0.1,0-0.5,0-0.6,0c-0.1,0-0.2,0-0.3,0c-0.1,0.1,0,0.5,0,0.7
				c0,0.1,0,0.2,0,0.3c0,0.1,0,0.2,0,0.3c0,0.2,0,0.3,0,0.5c0,0.4,0,0.8,0,1.2c0,0.1,0,0.2,0,0.3c0,0.1,0,0.2,0,0.3
				c0,0.1,0,0.2,0,0.3c0,0.2,0,0.4,0,0.7c0,0.4,0,0.8,0,1.2c0,0.2,0,0.3,0,0.5c0,0.1,0,0.1,0,0.1c0,0.1,0,0.2,0,0.3c0,0.7,0,1.3,0,2
				c0,0.3,0,0.6,0,0.9c0,0.1,0,0.3,0,0.4c0,0.2,0,0.4,0,0.6c0,0.4,0,0.9,0,1.3c0,0.2,0,0.3,0,0.5c0,0.2,0,0.4,0,0.6
				c0,0.8,0,1.6,0,2.4c0,0.2,0,0.4,0,0.6c0,0.2,0,0.4,0,0.6c0,0.1,0,0.2,0,0.3c0,0.7,0,1.4,0,2.1c0,0.3,0,0.6,0,0.9
				c0,0.1,0,0.3,0,0.4c0,0.1,0,0.1,0,0.2c0,0.1,0,0.1,0,0.2c0,0.2,0,0.3,0,0.5c0,0.2,0,0.4,0,0.6c0,0.1,0,0.2,0,0.3
				c0,0.1,0,0.2,0,0.3c0,0.1,0,0.2,0,0.3c0,0.8,0,1.7,0.4,2.3c0.3,0.4,0.8,0.7,1.2,0.9c0.3,0.1,0.6,0.3,1,0.4
				c0.2,0.1,0.5,0.1,0.8,0.1c0.2,0,0.4,0.1,0.6,0.1c0.2,0,0.4,0,0.6,0c0.4,0.1,0.8,0.1,1.3,0.2c0.2,0,0.4,0,0.6,0
				c0.1,0,0.2,0,0.3,0.1c0.2,0,0.3,0,0.5,0c0.2,0,0.3,0,0.5,0c0.1,0,0.2,0,0.3,0c0.1,0,0.2,0,0.2,0.1c0.2,0,0.4,0.1,0.6,0.1
				c0.1,0,0.1,0,0.2,0.1c0.1,0,0.3,0.1,0.4,0.1c0.2,0.1,0.4,0.1,0.6,0.2c0.2,0.1,0.3,0.1,0.5,0.2c0.1,0.1,0.2,0.1,0.2,0.2
				c0.2,0.1,0.3,0.2,0.5,0.3c0.2,0.2,0.3,0.3,0.5,0.5c0.1,0.1,0.1,0.1,0.2,0.2c0,0,0,0,0,0c0,0,0.1-0.1,0.1-0.1
				c0-0.1,0.1-0.1,0.1-0.2c0.4-0.5,0.9-0.9,1.4-1.2c0.1,0,0.2-0.1,0.3-0.1c0.1,0,0.2-0.1,0.3-0.1c0.2-0.1,0.4-0.1,0.6-0.1
				c0.4-0.1,0.8-0.2,1.2-0.3c0.1,0,0.2,0,0.3,0c0.2,0,0.3-0.1,0.5-0.1c0.2,0,0.4,0,0.6,0c0.2,0,0.5-0.1,0.8-0.1c0.2,0,0.4,0,0.7-0.1
				c0.2,0,0.4-0.1,0.6-0.1c0.1,0,0.1,0,0.2,0c0.3,0,0.6-0.1,0.9-0.2c0.1,0,0.2,0,0.3-0.1c0.3-0.1,0.6-0.2,0.8-0.3
				c0.2-0.1,0.5-0.1,0.7-0.2c0.2-0.1,0.3-0.2,0.5-0.3c0.3-0.2,0.6-0.4,0.8-0.7c0.1-0.1,0.2-0.4,0.2-0.5c0-0.1,0-0.2,0-0.2
				c0.1-0.4,0.1-0.7,0-1.1c0-0.1,0-0.3,0-0.4c0-0.1,0-0.1,0-0.2c0-0.1,0-0.3,0-0.4c0-0.1,0-0.1,0-0.2c0,0,0-0.1,0-0.1
				c0,0,0-0.1,0-0.1c0-0.1,0-0.2,0-0.3c0-0.1,0-0.2,0-0.3c0-0.1,0-0.2,0-0.3c0-0.4,0-0.9,0-1.3c0-0.1,0-0.2,0-0.3c0-0.4,0-0.8,0-1.1
				c0-1,0-2.1,0-3.1c0-0.1,0-0.2,0-0.3c0,0,0-0.1,0-0.1c0-0.1,0-0.2,0-0.3c0-0.1,0-0.1,0-0.2c0-0.1,0-0.2,0-0.3c0-0.2,0-0.4,0-0.5
				c0-0.1,0-0.2,0-0.4c0-0.1,0-0.1,0-0.2c0-0.1,0-0.1,0-0.2c0-0.1,0-0.1,0-0.2c0-0.1,0-0.2,0-0.2c0-0.1,0-0.1,0-0.2
				c0-0.4,0-0.9,0-1.3c0-0.1,0-0.2,0-0.3c0-0.1,0-0.2,0-0.3c0-0.1,0-0.1,0-0.1C35.5,20.6,35.5,20.4,35.6,20.3z M27.2,12.7
				c0.1,0,0.1-0.1,0.2-0.1c0-0.1,0.1-0.1,0.1-0.2c0.1-0.1,0.2-0.2,0.3-0.3c0,0,0.1-0.1,0.1-0.1c0.1,0,0.2,0,0.3,0c0.2,0,0.4,0,0.5,0
				c0.1,0,0.2,0,0.2,0c0.1,0,0.3,0,0.4,0c0.1,0,0.3,0.1,0.4,0.1c0.1,0,0.2,0,0.4,0c0,0,0.1,0,0.1,0c0.2,0,0.4,0,0.5,0c0,0,0,0,0,0
				c0,0,0,0,0,0c0,0,0,0,0,0c0,0,0,0,0,0c-0.2,0.2-0.4,0.4-0.6,0.6c-0.4,0.3-0.7,0.7-1.1,1c-0.1,0.1-0.2,0.1-0.2,0.2
				c-0.3,0.3-0.6,0.7-0.9,1c-0.1,0.1-0.2,0.2-0.3,0.3c-0.1,0.1-0.1,0.1-0.2,0.2c-0.1,0.1-0.1,0.2-0.2,0.3c-0.2,0.2-0.4,0.4-0.6,0.6
				c-0.1,0.1-0.2,0.2-0.3,0.3c-0.2,0.2-0.4,0.4-0.6,0.6c-0.4,0.4-0.7,0.7-1.1,1.1c-0.1,0.1-0.2,0.3-0.4,0.4c0,0,0,0,0,0c0,0,0,0,0,0
				c0,0,0,0,0,0c0,0,0,0,0,0c0,0,0-0.1,0-0.1c0-0.1,0-0.2,0-0.3c0-0.1,0-0.1,0-0.2c0-0.1,0-0.2,0-0.3c0-0.1,0.1-0.1,0.2-0.1
				c0.1-0.1,0.1-0.2,0.3-0.3C24.7,17,24.9,17,25,17c0.1,0,0.1-0.1,0.2-0.2c0.2-0.1,0.4-0.2,0.5-0.4c0-0.1,0.1-0.1,0.1-0.2
				c0-0.1,0.1-0.1,0.1-0.2c0-0.1,0-0.2,0.1-0.3c0-0.1,0.1-0.2,0.1-0.4c0-0.1,0-0.3,0-0.4c0-0.2-0.1-0.3-0.2-0.4
				c0-0.1-0.1-0.1-0.1-0.2c0,0,0,0,0-0.1c0,0,0.1-0.1,0.1-0.1c0.1-0.2,0.2-0.4,0.4-0.5c0.1-0.1,0.1-0.2,0.2-0.2
				c0.1-0.1,0.2-0.1,0.3-0.2c0-0.1,0.1-0.1,0.1-0.2c0-0.1,0.1-0.1,0.1-0.2c0.1-0.1,0.1-0.1,0.2-0.1C27.1,12.7,27.1,12.7,27.2,12.7z
				 M28.3,22.9c0,0.1,0,0.2,0,0.3c0,0.1,0,0.1,0,0.2c0,0.2,0,0.3,0,0.5c0,0.2,0,0.4,0,0.6c0,0.2,0,0.4,0,0.6c0,0.1,0,0.3,0,0.4
				c0,0.1,0,0.3,0.1,0.4c0,0.2,0,0.4,0,0.6c0,0.2,0,0.4-0.1,0.5c0,0,0,0-0.1,0c0,0,0-0.1,0-0.1c0-0.2,0-0.5,0-0.7c0-0.3,0-0.6,0-1
				c0-0.1,0-0.2,0-0.2c0-0.2-0.1-0.4-0.1-0.6c0-0.1,0-0.1,0-0.2c0-0.2,0-0.5,0-0.7c0-0.1,0-0.1-0.1-0.2c0,0,0,0,0,0
				c0,0,0,0.1-0.1,0.1c0,0.1,0,0.2,0,0.3c0,0.2,0,0.4,0,0.6c0,0.1,0.1,0.2,0.1,0.3c0,0.1,0,0.2,0,0.3c0,0.1,0,0.3,0,0.4
				c0,0.1,0,0.3,0,0.4c0,0.3,0,0.6,0,0.9c-0.1,0-0.1-0.1-0.1-0.2c0-0.1,0-0.2,0-0.3c0-0.2,0-0.4,0-0.5c0-0.2,0-0.3,0-0.5
				c0-0.2,0-0.4,0-0.6c0-0.1,0-0.2-0.1-0.2c0,0-0.1,0-0.1,0c-0.1,0.2,0,0.4,0,0.5c0,0.3,0,0.5,0,0.8c0,0.2,0,0.3,0,0.5c0,0,0,0,0,0
				c0,0,0,0,0,0c0,0,0,0,0,0c0,0,0,0,0,0c0,0,0-0.1,0-0.1c0-0.2,0-0.5,0-0.7c0-0.2,0-0.5,0-0.7c0-0.2,0-0.3,0-0.5c0-0.2,0-0.4,0-0.6
				c0-1,0-1.9,0-2.8c0-0.2,0-0.3,0-0.5c0-0.1,0-0.3,0-0.4c0-0.1,0-0.2,0.1-0.3c0,0.1,0,0.3,0,0.4c0,0.3,0,0.5,0.1,0.8c0,0,0,0,0,0
				c0,0,0-0.1,0-0.1c0-0.3,0-0.5,0.1-0.8c0,0,0,0,0,0c0,0,0,0,0,0c0,0,0,0,0.1,0c0,0,0,0.1,0,0.1c0,0.1,0,0.1,0,0.2
				c0,0.4,0,0.8,0,1.2c0,0.1,0,0.1,0,0.2c0,0.1-0.1,0.2,0,0.3c0,0.1,0.1,0.1,0.2,0.1c0-0.1,0-0.1,0-0.2c0-0.1,0-0.1,0-0.2
				c0-0.1,0.1-0.2,0.1-0.3c0-0.3,0-0.7,0-1c0,0,0,0,0,0c0,0,0,0,0,0c0,0,0,0.1,0,0.2c0,0.1,0,0.2,0,0.2c0,0.1,0,0.3,0,0.5
				c0,0.3,0,0.5,0,0.8c0,0.3,0,0.5,0,0.8C28.3,22.5,28.3,22.7,28.3,22.9z M27.2,34C27.2,34,27.2,34,27.2,34
				C27.2,34.1,27.2,34.1,27.2,34c0,0-0.1,0-0.1,0c-0.3,0-0.5,0-0.8,0c-0.1,0-0.3,0-0.4,0c-0.1,0-0.2,0-0.3,0c-0.3,0-0.6,0-0.9,0
				c-0.1,0-0.3-0.1-0.4,0c-0.2,0-0.4,0-0.7,0c0,0-0.1,0-0.1,0c-0.1,0-0.4,0-0.5,0c-0.1,0-0.2,0-0.2,0c-0.2,0-0.4,0-0.6,0
				c-0.1,0-0.3,0-0.4,0c0,0-0.1,0-0.1,0c0,0-0.1,0-0.1,0c-0.2,0-0.4,0.1-0.6-0.2c0,0,0-0.1,0-0.1c0.1-0.1,1.3,0,1.5,0
				c0.3,0,0.6,0,0.9,0c0.4,0,0.9,0,1.3,0c0.2,0,0.5,0,0.7,0c0.5,0,1.1,0,1.6,0c0,0,0,0,0,0c0,0,0-0.1,0-0.2c0-0.3,0-0.7,0-1
				c0-0.2,0-0.5,0-0.7c0.3,0.1,0.2,0.5,0.2,0.8c0,0.2,0,0.4,0,0.6c0,0.1,0,0.2,0,0.3C27.2,33.7,27.2,33.9,27.2,34z M25.5,31.9
				c0.1,0.1,0.5,0.6,0.5,0.7c0,0,0,0-0.1,0c-0.1,0-0.3,0-0.4,0c-0.3,0-0.5,0-0.8,0c0,0,0,0,0,0c0,0,0,0,0,0c0-0.1,0-0.1,0.1-0.1
				c0.1-0.1,0.4-0.6,0.4-0.7c0-0.1,0-0.1-0.1-0.1c-0.2-0.1-0.4,0-0.7,0c-0.1,0-0.4-0.1-0.5,0c-0.2,0-1-0.1-1.1,0.1c0,0,0,0.1,0,0.1
				c0.1,0.2,0.2,0.3,0.3,0.5c0.1,0.1,0.1,0.2,0.2,0.3c0,0,0,0,0,0c0,0,0,0,0,0c-0.5,0-0.9,0-1.4,0c0,0,0,0,0,0c0,0,0.7-0.8,0.7-0.9
				c0,0,0,0,0,0c-0.1,0-0.2,0-0.2,0c-0.1,0-0.3,0-0.4,0c-0.4,0-0.8,0-1.2,0c0,0,0.6-0.6,0.6-0.7c0.5-0.5,1-1,1.5-1.5
				c0.2-0.2,0.3-0.3,0.5-0.5c0.1-0.1,0.1-0.1,0.2-0.1c0,0,0,0,0,0c0.1,0.1,0.2,0.2,0.3,0.3c0.1,0.2,0.3,0.3,0.4,0.5
				c0.1,0.1,0.2,0.2,0.3,0.3c0.4,0.4,0.9,0.9,1.3,1.3c0.2,0.2,0.4,0.4,0.5,0.6c0,0-0.1,0-0.1,0c-0.1,0-0.3,0-0.4,0c0,0-0.1,0-0.2,0
				c-0.2,0-0.4,0-0.6,0C25.4,31.8,25.5,31.9,25.5,31.9z M24.1,32.7c0,0,0.4-0.6,0.4-0.6c0,0,0.1-0.1,0.1-0.1c0,0,0,0,0,0
				c0.1,0,0.2,0,0.2,0c0,0.1-0.4,0.7-0.5,0.7C24.3,32.7,24.2,32.7,24.1,32.7C24.1,32.7,24.1,32.7,24.1,32.7
				C24.1,32.7,24.1,32.7,24.1,32.7z M21.6,32.6c-0.1,0-0.2,0-0.3,0c0-0.1,0.6-0.6,0.7-0.7c0.1,0,0.2,0,0.2,0
				C22.2,32.1,21.7,32.6,21.6,32.6z M26.7,27.3c-0.1,0-0.3,0-0.4,0c-0.1,0-0.3-0.1-0.4,0c0,0-0.1,0-0.1,0c-0.1,0-0.3,0-0.4,0
				c-0.1,0-0.1,0-0.2,0c-0.1,0-0.3,0-0.4,0c0,0-0.1,0-0.1,0c0,0-0.1,0-0.1,0c-0.1,0-0.2,0-0.2,0.1c0,0,0,0.1,0,0.1
				c0,0.3-0.2,0.6-0.5,0.6c-0.2,0-0.4-0.2-0.5-0.4c0-0.1,0-0.2,0-0.2c0,0-0.1,0-0.1,0c-0.1,0-0.2,0-0.3,0c0,0-0.1,0-0.1,0
				c-0.3,0-0.5,0-0.8,0c-0.1,0-0.2,0-0.2,0c-0.2,0-0.4,0-0.6,0c-0.1,0-0.2,0-0.3,0c-0.3,0-0.6,0-0.9,0c-0.1,0-0.2,0-0.3,0
				c-0.1,0-0.2,0-0.2,0c0-0.1,0-0.1,0.1-0.2c0.1-0.2,0.1-0.3,0.3-0.4c0.1-0.1,0.2-0.2,0.3-0.2c0.4-0.3,1.1-0.3,1.6-0.2
				c0.1,0,0.2,0.1,0.3,0.1c0.3,0.1,0.6,0.1,0.9,0.3c0.2,0.1,0.3,0.3,0.5,0.4c0,0,0.1,0.1,0.1,0.1c0.1,0.1,0.2,0.2,0.3,0.2
				c0.2,0,0.3-0.2,0.4-0.3c0.1-0.1,0.3-0.2,0.4-0.3c0.4-0.2,0.8-0.4,1.2-0.5c0.2,0,0.3-0.1,0.5-0.1c0.1,0,0.2,0,0.3,0
				c0.1,0,0.3,0,0.4,0c0.2,0,0.4,0.1,0.6,0.3c0.1,0.1,0.1,0.2,0.2,0.3c0.1,0.1,0.3,0.3,0.3,0.4c0,0,0,0,0,0c0,0-0.1,0-0.2,0
				C27.4,27.3,27,27.3,26.7,27.3z M19.1,25.3c0-0.1,0-0.3,0-0.5c0-0.2,0-0.3,0-0.5c0-0.3,0-0.5,0-0.8c0-0.2,0-0.3,0-0.5
				c0-0.1,0-0.3,0-0.4c0-0.1,0-0.3,0-0.4c0-0.2,0.1-0.4,0.1-0.6c0-0.1,0-0.2,0-0.3c0-0.1,0-0.1,0-0.2c0-0.2,0-0.5,0-0.7
				c0-0.2,0-0.4,0-0.6c0-0.2,0.5-0.7,0.6-0.7c0,0,0,0,0,0c0,0.1,0,0.3,0,0.4c0,0.2,0,0.3,0,0.5c0,0.1,0,0.2,0,0.3c0,0.2,0,0.4,0,0.6
				c0,0.1,0,0.2,0,0.3c0,0.1,0,0.2,0,0.3c0,0.3,0,0.6,0,0.9c0,0.3,0,0.7,0,1c0,0.1,0,0.2,0,0.4c0,0.2,0,0.5,0,0.7c0,0.1,0,0.2,0,0.3
				c0,0.2,0,0.4,0,0.6c0,0.2,0,0.6,0,0.8c0,0.1-0.1,0.1-0.1,0.2c-0.1,0.1-0.1,0.1-0.2,0.2c-0.1,0.1-0.1,0.1-0.2,0.2
				c-0.1,0.1-0.1,0.2-0.2,0.3c0,0,0,0,0,0c0,0,0,0,0,0c0,0,0,0,0,0c0-0.3,0-0.6,0-1c0-0.2,0-0.4,0-0.6
				C19.2,25.5,19.1,25.4,19.1,25.3z M20.1,24.1c0-0.1,0-0.3,0-0.4c0-0.3,0-0.7,0-1c0-0.2-0.1-0.3-0.1-0.5c0-0.2,0-0.4,0-0.7
				c0-0.3,0-0.5,0-0.8c0-0.5,0-0.9,0-1.3c0-0.1,0-0.4,0-0.5c0.1-0.1,0.2-0.1,0.3-0.1c0.3,0,0.5,0,0.8,0c0.2,0,0.4,0,0.6,0.1
				c0.1,0,0.2,0,0.3,0.1c0.1,0,0.2,0.1,0.3,0.1c0.4,0.1,0.7,0.3,1,0.6c0.1,0.2,0.1,0.4,0.1,0.7c0.1,0.7,0,1.5,0,2.2
				c0,0.5,0,0.9,0,1.4c0,0.2,0,0.3,0,0.5c0,0.4,0,0.8,0,1.1c0,0.3,0,0.5,0,0.8c0,0.2,0,0.4-0.1,0.6c0,0,0,0,0,0c0,0-0.4-0.3-0.5-0.4
				c-0.2-0.1-0.6-0.3-0.8-0.3c-0.2,0-0.4,0-0.6-0.1c-0.2,0-0.6-0.1-0.7,0c0,0-0.1,0-0.1,0c-0.1,0-0.1,0-0.2,0c-0.1,0-0.1,0-0.2,0
				c-0.1,0-0.1,0-0.2,0c0-0.2,0-0.3,0-0.4c0-0.1,0-0.2,0-0.4c0-0.1,0-0.3,0-0.4C20.1,24.7,20.1,24.4,20.1,24.1z M23.5,16.2
				c0-0.1,0-0.1,0-0.2c0-0.1,0.1-0.1,0.1-0.1c0.1,0,0.1,0,0.1,0c0,0,0.4,0.3,0.4,0.4c0,0.1-0.3,0.3-0.4,0.3c0,0-0.1,0-0.1-0.1
				c0,0-0.1,0-0.1-0.1C23.5,16.4,23.5,16.3,23.5,16.2z M23.3,15.9c-0.1,0.1-0.1,0.2-0.2,0.2c-0.1,0-0.1,0-0.1-0.1
				c-0.1-0.1-0.2-0.3-0.1-0.4c0,0,0-0.1,0.1-0.1c0-0.1,0-0.2,0.1-0.3c0.1,0.1,0.5,0.4,0.5,0.6C23.5,15.8,23.4,15.9,23.3,15.9z
				 M23.4,16.8C23.4,16.8,23.4,16.8,23.4,16.8C23.4,16.9,23.3,16.9,23.4,16.8c-0.3,0-0.6-0.1-0.4-0.4c0,0,0.1,0,0.1,0
				c0.1,0,0.1,0.1,0.1,0.2C23.3,16.7,23.4,16.7,23.4,16.8z M22.3,14.8c0,0,0.1-0.1,0.2-0.2c0,0,0,0,0,0c0.2,0.1,0.4,0.4,0.2,0.6
				c0,0-0.1,0.1-0.2,0.1c-0.2,0-0.1-0.2-0.1-0.3C22.3,14.9,22.3,14.8,22.3,14.8z M22.6,14.4C22.6,14.4,22.6,14.4,22.6,14.4
				C22.7,14.4,22.7,14.4,22.6,14.4c0.3-0.1,0.4-0.1,0.6-0.2c0.1,0,0.1,0,0.2,0.1c0.1,0.1-0.3,0.4-0.5,0.4
				C22.8,14.7,22.7,14.5,22.6,14.4z M22.4,15.8C22.4,15.8,22.4,15.8,22.4,15.8c0.2,0.1,0.5,0.3,0.5,0.4c0,0.1-0.2,0.3-0.3,0.3
				c-0.1,0-0.1-0.1-0.1-0.1C22.4,16.2,22.3,16,22.4,15.8z M24.5,15.4c0,0,0.1,0,0.1,0c0.1,0.1,0.3,0.3,0.2,0.4
				c0,0.1-0.1,0.2-0.2,0.2c0,0-0.1,0.1-0.2,0.1c-0.1,0-0.1-0.2,0-0.3c0-0.1,0.1-0.1,0.1-0.2C24.6,15.6,24.5,15.5,24.5,15.4z
				 M24.7,14.7c-0.1,0-0.1,0.1-0.2,0.1c-0.1,0-0.1-0.1-0.2-0.2c-0.1-0.1-0.2-0.1-0.2-0.2c0-0.1,0.1-0.1,0.1-0.1c0,0,0,0,0,0
				c0.1,0,0.2,0.1,0.3,0.1c0.1,0,0.2,0.1,0.3,0.1c0,0,0,0,0,0.1C24.8,14.7,24.8,14.7,24.7,14.7z M24.5,16.8c0,0.1-0.3,0.2-0.4,0.1
				c-0.1-0.1,0.1-0.3,0.2-0.3C24.4,16.6,24.5,16.7,24.5,16.8z M27.2,19.4c0,0.1,0,0.2,0.1,0.3c0,0.3,0,0.6,0,0.9c0,0.1,0,0.3,0,0.4
				c0,0.4,0,0.8,0,1.2c0,0.1,0,0.2,0,0.3c0,0.2,0,0.5,0,0.7c0,0.1,0,0.2,0,0.4c0,0.2,0,0.4,0,0.6c0,0.1,0,0.2,0,0.3
				c0,0.2,0,0.3,0,0.5c0,0.1,0,0.3,0,0.4c0,0.2,0,0.5,0,0.8c-0.1,0-0.2,0-0.3-0.1c-0.2,0-0.6-0.1-0.8,0c0,0-0.1,0-0.1,0
				c0,0-0.1,0-0.1,0c-0.1,0-0.3,0-0.4,0.1c-0.2,0-0.3,0.1-0.5,0.2c-0.2,0.1-0.3,0.1-0.5,0.2c-0.2,0.1-0.3,0.2-0.5,0.3
				c0,0-0.1,0-0.1-0.1C23.9,26.5,24,26,24,25.6c0-0.2,0-0.3,0-0.4c0,0,0-0.1,0-0.1c0-0.1,0-0.2,0-0.2c0-0.3,0-0.6,0-0.9
				c0-0.3,0-0.6,0-0.9c0-0.2,0-0.4,0-0.6c0-0.1,0-0.2,0-0.3c0-0.2,0-0.4,0-0.7c0-0.2,0-0.3,0-0.5c0-0.3,0-0.6,0.1-0.9
				c0-0.1,0-0.2,0.1-0.3c0.1-0.1,0.2-0.2,0.4-0.3c0.5-0.3,1.1-0.4,1.7-0.5c0.1,0,0.3,0,0.4-0.1c0.1,0,0.2,0,0.3,0c0.1,0,0.2,0,0.3,0
				c0,0,0,0.1,0,0.1C27.2,19.2,27.2,19.3,27.2,19.4z M25.6,13.8C25.6,13.8,25.6,13.8,25.6,13.8C25.6,13.8,25.6,13.8,25.6,13.8
				c0,0-0.1-0.1-0.1-0.1c0-0.2,0.2-0.2,0.3-0.4C26,13.4,25.7,13.7,25.6,13.8z M25.7,15.6c0,0.1-0.1,0.2-0.2,0.3c0,0-0.1,0-0.1,0
				C25.5,15.8,25.6,15.7,25.7,15.6C25.7,15.6,25.7,15.6,25.7,15.6z M25.4,15.4c0,0-0.1,0.1-0.1,0.1c-0.1,0-0.1,0-0.1-0.1
				c0,0,0-0.6,0-0.6c0-0.1,0.1-0.1,0.1-0.2c0.1,0,0.1,0.1,0.2,0.2C25.6,15,25.6,15.2,25.4,15.4z M25.2,16.3
				C25.2,16.3,25.2,16.3,25.2,16.3c0,0.1-0.2,0.2-0.3,0.2c-0.1-0.1,0-0.2,0.1-0.2C25.1,16.3,25.2,16.3,25.2,16.3z M26.4,12.4
				c0.1-0.1,0.1-0.2,0.2-0.2c0.1-0.1,0.1-0.1,0.2-0.2c0.1,0,0.2,0,0.4,0c0,0,0,0,0,0c-0.2,0-0.6,0.6-0.7,0.7
				c-0.1,0.1-0.1,0.2-0.2,0.2c0,0-0.1,0-0.1,0c-0.1-0.1,0-0.2,0-0.3c0-0.1,0-0.1,0.1-0.1c0,0,0.1,0,0.1-0.1
				C26.3,12.5,26.4,12.5,26.4,12.4z M25.3,12.8c0-0.1,0-0.2,0.1-0.3c0.1-0.1,0.2-0.1,0.3-0.2c0.1-0.1,0.1-0.2,0.1-0.2
				c0.1-0.1,0.1-0.1,0.2-0.1c0.1,0,0.1,0,0.2,0c0,0.1-0.1,0.2-0.1,0.2c-0.1,0.1-0.1,0.2-0.2,0.3c-0.1,0.1-0.1,0.2-0.2,0.3
				c0,0.1-0.1,0.1-0.1,0.2c0,0-0.1,0.1-0.1,0.1c0,0-0.1,0.1-0.1,0.1c0,0-0.1,0.1-0.1,0.1c-0.1,0.1-0.1,0.2-0.2,0.3
				c-0.1,0.1-0.2,0.1-0.3,0.1c0,0,0,0,0,0c0,0,0.2-0.4,0.3-0.4c0,0,0.1,0,0.1-0.1c0,0,0-0.1,0.1-0.2C25.2,12.9,25.3,12.9,25.3,12.8z
				 M24.1,13.2c0-0.1,0.1-0.1,0.1-0.2c0-0.1-0.1-0.2,0-0.4c0-0.1,0.1-0.1,0.1-0.2c0-0.1,0-0.2,0.1-0.3c0.1-0.1,0.5,0,0.6-0.1
				c0.1,0,0.2,0,0.3,0c0,0,0,0,0,0c0,0,0,0,0,0c-0.1,0.2-0.2,0.4-0.3,0.6c0,0.1-0.1,0.1-0.1,0.2c0,0.1-0.1,0.2-0.1,0.2
				c-0.1,0.2-0.3,0.4-0.5,0.5c0,0,0,0,0,0c0,0,0-0.2,0-0.2C24.1,13.3,24.1,13.3,24.1,13.2z M24.3,15.1c0,0.1-0.1,0.2-0.2,0.3
				c-0.1,0.1-0.2,0.2-0.3,0.2c-0.1,0-0.3-0.5-0.3-0.6c0,0,0.2-0.2,0.2-0.3c0,0,0,0,0,0c0.1,0,0.1,0,0.2,0
				C24,14.7,24.3,14.9,24.3,15.1z M22.8,12c0.1-0.1,0.3,0,0.4,0c0.1,0,0.4,0,0.5,0c0,0.1,0,0.1,0,0.2c0,0.1,0,0.1,0,0.2
				c0,0.1,0,0.1,0,0.2c0,0.3,0,0.5-0.1,0.8c0,0.2,0,0.3,0,0.5c0,0,0,0,0,0c0,0,0,0,0,0c-0.2,0-0.4-0.6-0.5-0.8
				c0-0.1-0.1-0.1-0.2-0.2C22.8,12.6,22.6,12.2,22.8,12z M21.5,12.2C21.5,12.2,21.5,12.2,21.5,12.2C21.5,12.1,21.5,12.1,21.5,12.2
				c0-0.1,0.3-0.1,0.4-0.2c0.1,0,0.2,0,0.3,0c0.2,0.1,0.3,0.5,0.4,0.7c0.1,0.1,0.1,0.3,0.2,0.4c0,0.1,0.1,0.1,0.1,0.2
				c0,0.1,0,0.2,0,0.2c0,0.1,0,0.2,0,0.2c0,0-0.1,0-0.2,0C22.6,13.7,21.5,12.2,21.5,12.2C21.5,12.2,21.5,12.2,21.5,12.2z M20.8,12
				c0.1,0,0.2,0.1,0.3,0.1c0.1,0.1,0.2,0.3,0.3,0.4c0.1,0.1,0.1,0.2,0.1,0.2c0.1,0.1,0.2,0.2,0.2,0.3c0.1,0.1,0.1,0.2,0.2,0.3
				c0,0,0.1,0.1,0.1,0.1c0.1,0,0.1,0.1,0.2,0.1c0.1,0.1,0.2,0.2,0.3,0.4c0,0,0,0,0,0c-0.1,0-0.2,0-0.3-0.1c-0.1-0.1-0.2-0.2-0.3-0.3
				c-0.1-0.1-0.1-0.1-0.2-0.2c-0.1-0.2-0.2-0.3-0.3-0.5c-0.1-0.1-0.2-0.1-0.3-0.2c0,0,0,0,0,0c-0.1-0.1-0.1-0.2-0.2-0.3
				c-0.1-0.1-0.2-0.2-0.3-0.3c0,0,0,0,0,0c0,0,0,0,0,0C20.6,12.1,20.8,12,20.8,12z M17.7,11.9c0.2,0,0.4,0,0.5,0c0.1,0,0.2,0,0.4,0
				c0.1,0,0.2,0,0.3,0c0.1,0,0.3,0,0.4,0c0.1,0,0.1,0,0.2,0c0.1,0,0.3-0.1,0.4,0c0.1,0,0.3,0.2,0.4,0.3c0.2,0.2,0.4,0.3,0.5,0.5
				c0.1,0.1,0.2,0.3,0.3,0.4c0.1,0.2,0.3,0.3,0.5,0.4c0.1,0.1,0.1,0.2,0.2,0.3c0,0,0.1,0.1,0.1,0.1c0.1,0.1,0.2,0.2,0.2,0.3
				c-0.1,0-0.1,0.1-0.2,0.1c-0.1,0.1-0.2,0.3-0.3,0.5c0,0.1,0,0.2,0,0.2c0,0.1-0.1,0.2,0,0.4c0,0.1,0,0.2,0.1,0.3
				c0,0.1,0.1,0.2,0.1,0.3c0,0.1,0.1,0.2,0.1,0.3c0.1,0.1,0.1,0.1,0.2,0.1c0.1,0,0.1,0.1,0.2,0.2c0.1,0,0.1,0.1,0.2,0.1
				c0.1,0.1,0.2,0.1,0.3,0.2c0.1,0.1,0.2,0.1,0.3,0.2c0.1,0.1,0.1,0.2,0.2,0.3c0.1,0.1,0.2,0.1,0.2,0.2c0,0.1,0,0.1,0.1,0.2
				c0,0.1,0,0.1,0,0.2c0,0.1,0.1,0.4,0.1,0.5c-0.1,0-0.4-0.3-0.5-0.4c-0.2-0.2-0.4-0.4-0.6-0.6c-0.1-0.2-0.3-0.3-0.4-0.5
				c-0.3-0.3-0.6-0.6-0.9-0.9c-0.2-0.2-0.3-0.3-0.5-0.5c-0.1-0.1-0.1-0.2-0.2-0.2c-0.5-0.5-1.1-1-1.6-1.6c-0.1-0.2-0.3-0.3-0.4-0.5
				c-0.3-0.3-0.6-0.6-0.9-0.9c-0.2-0.1-0.5-0.3-0.5-0.6C17.2,12,17.5,11.9,17.7,11.9z M22.1,15.6c-0.2,0-0.1-0.3-0.1-0.4
				C22,15.3,22.3,15.6,22.1,15.6z M14.2,28.1c-0.2,0.2-0.4,0.5-0.7,0.7c-0.3,0.3-0.7,0.7-1,1c-0.1,0.1-0.3,0.2-0.4,0.4c0,0,0,0,0,0
				c0,0,0-0.1,0-0.1c0-0.1,0-0.2,0-0.4c0-0.4,0-0.7,0-1.1c0-0.3,0-0.6,0-0.9c0-0.1,0-0.2,0-0.3c0-0.3,0-0.6,0-0.9c0-0.1,0-0.2,0-0.4
				c0-0.2,0-0.4,0-0.5c0-0.1,0-0.2,0-0.3c0-0.3,0-0.6,0-0.9c0-0.1,0-0.2,0-0.3c0-0.1,0-0.2,0-0.3c0-0.3,0-0.5,0-0.8
				c0-0.2,0-0.4,0-0.6c0-0.4,0-0.8,0-1.2c0-0.2,0-0.4,0-0.6c0-0.1,0-0.2,0-0.3c0-0.4,0-0.8,0-1.2c0-0.1,0-0.2,0-0.3
				c0-0.1,0-0.2,0-0.3c0-0.1,0-0.2,0-0.4c0-0.1,0-0.1,0-0.2c0-0.2,0-0.4,0-0.6c0.2,0.1,0.3,0.2,0.4,0.4c0.3,0.3,0.6,0.6,0.8,0.8
				c0.1,0.1,0.2,0.2,0.3,0.3c0.2,0.2,0.4,0.4,0.6,0.6c0.1,0.1,0.1,0.2,0.2,0.2c0.1,0.1,0.3,0.3,0.4,0.4c0.1,0.1,0.1,0.1,0.2,0.2
				c0.3,0.3,0.7,0.6,1,0.9c0.3,0.3,0.6,0.7,0.9,1c0.2,0.2,1.5,1.4,1.4,1.6c0,0,0,0.1-0.1,0.1c-0.1,0.3-0.5,0.5-0.7,0.7
				c-0.1,0.1-0.1,0.2-0.2,0.2c-0.2,0.2-0.4,0.4-0.6,0.6c-0.3,0.3-0.5,0.5-0.8,0.8c-0.2,0.2-0.3,0.3-0.5,0.5c0,0-0.1,0.1-0.1,0.1
				C15.1,27.3,14.7,27.7,14.2,28.1z M21.2,35.9c-0.1,0-0.6,0-0.7,0c0,0,0,0.1,0,0.1c0,0.4,0,0.9,0,1.3c0,0.2,0,0.5,0,0.7
				c0,0,0,0.1-0.1,0.1c0,0,0,0,0,0c-0.1,0-0.3-0.1-0.4-0.1c-0.1,0-0.2,0-0.4,0c-0.1,0-0.2,0-0.3,0c-0.2,0-0.3,0-0.5,0
				c-0.1,0-0.2,0-0.2,0c-0.4,0-0.8-0.1-1.1-0.1c-0.2,0-0.3,0-0.5,0c-0.1,0-0.3,0-0.4-0.1c-0.1,0-0.1,0-0.2,0c-0.1,0-0.2,0-0.3,0
				c-0.2,0-0.4-0.1-0.6-0.1c-0.2,0-0.3,0-0.5-0.1c0,0,0,0,0,0c0,0,0,0,0,0c0,0,0,0,0,0c0.1-0.1,0.3-0.3,0.4-0.4
				c0.1-0.1,0.2-0.2,0.3-0.3c0.2-0.2,0.4-0.3,0.5-0.5c0.1-0.1,0.2-0.2,0.3-0.3c0.1-0.1,0.1-0.2,0.2-0.2c0.5-0.4,0.9-0.9,1.4-1.3
				c0.3-0.3,0.5-0.6,0.8-0.8c0.4-0.4,0.8-0.7,1.1-1.1c0.1-0.1,0.2-0.2,0.3-0.3c0.1,0.1,0,0.5,0,0.6c0,0.2,0,0.4,0,0.6
				c0,0.1,0,0.3,0,0.4c0,0.1,0.1,0.2,0.2,0.3c0,0.1,0.1,0.1,0.1,0.2c0.1,0.1,0.4,0.1,0.5,0.1c0.2,0,0.5,0,0.7,0
				c0,0.2-0.1,0.4-0.2,0.5c-0.1,0.2-0.2,0.5-0.3,0.7c0,0.1-0.1,0.2-0.1,0.3C21.4,35.9,21.4,35.9,21.2,35.9
				C21.3,35.9,21.2,35.9,21.2,35.9z M22.3,38.8c-0.2,0-0.3-0.1-0.5-0.2c-0.1-0.1-0.3-0.1-0.4-0.1c0,0,0,0,0,0c0,0,0,0,0,0
				c0,0,0,0,0,0c0,0,0,0,0,0c0.2,0,1.4,0,1.5-0.1c0.1-0.1,0-0.3,0.1-0.3c0-0.5-0.1-1.2,0.4-1.5c0.1,0,0.1,0,0.2-0.1
				c0.1,0,0.5,0,0.4,0.2c0,0-0.1,0-0.1,0c-0.3,0-0.4,0.2-0.5,0.5c-0.1,0.2-0.1,0.5-0.1,0.8c0,0.3,0,0.5,0,0.8c0,0,0,0,0,0
				c0,0-0.2,0-0.2,0c-0.1,0-0.2,0-0.2,0C22.7,38.8,22.5,38.8,22.3,38.8z M24.5,38.8c-0.1,0.1-0.2,0.2-0.3,0.3
				c-0.1,0.1-0.1,0.1-0.2,0.2c-0.1,0.1-0.3,0.3-0.4,0.5c0,0,0,0,0,0c-0.1-0.1-0.2-0.2-0.3-0.3c-0.1-0.1-0.3-0.2-0.4-0.3c0,0,0,0,0,0
				c0,0,0,0,0,0c0,0,0,0,0,0c0,0,0,0,0,0c0,0,0,0,0,0c0.1,0,0.1,0,0.2,0c0.2,0,0.4,0,0.6,0c0,0,0-0.1,0-0.1c0-0.1,0-0.2,0-0.2
				c0-0.1,0-0.2,0-0.2c0-0.1,0-0.2,0-0.2c0-0.2,0-0.3,0-0.5c0-0.1,0-0.2,0.1-0.3c0-0.1,0.1-0.3,0.1-0.3c0.1-0.1,0.2-0.1,0.3-0.1
				c0,0,0.1,0,0.1,0.1c0,0.1,0,0.3,0,0.4c0,0.3,0,0.6,0,0.9c0,0.1,0.1,0.1,0.1,0.2C24.4,38.6,24.4,38.7,24.5,38.8
				C24.5,38.8,24.5,38.8,24.5,38.8z M25.5,38.4c-0.1,0-0.1,0-0.2,0.1c-0.2,0.1-0.3,0.1-0.5,0.2c0,0,0,0,0,0
				c-0.1-0.1-0.1-0.2-0.1-0.3c0.1,0,0.2,0,0.2,0C25.1,38.4,25.3,38.4,25.5,38.4C25.5,38.4,25.5,38.4,25.5,38.4z M26.1,35.9
				c-0.1,0-0.2,0-0.3-0.1c-0.1-0.1-0.1-0.2-0.1-0.3c-0.1-0.2-0.1-0.3-0.2-0.5c0-0.1-0.1-0.2-0.1-0.4c0-0.1,0.1-0.1,0.1-0.1
				c0,0,0.1,0,0.1,0.1c0,0,0,0.1,0.1,0.2c0.1,0.2,0.1,0.3,0.1,0.5c0.1,0.2,0.1,0.4,0.2,0.5C26,35.7,26.1,35.8,26.1,35.9z M27.1,37.9
				c0,0.1-0.2,0.1-0.3,0.1c0-0.4,0-0.8,0-1.3c0-0.1,0-0.3,0-0.4c0,0,0-0.1,0.1-0.1c0.1,0,0.2,0,0.2,0c0,0,0,0.2,0,0.2
				c0,0.1,0,0.2,0,0.3c0,0.1,0,0.3,0,0.4C27.1,37.4,27.2,37.8,27.1,37.9z M32,37.4c-0.1,0-0.1,0-0.2,0c-0.1,0-0.2,0-0.3,0.1
				c-0.1,0-0.3,0.1-0.4,0.1c-0.1,0-0.2,0-0.3,0.1c-0.1,0-0.1,0-0.2,0c0,0-0.1,0-0.1,0c0,0-0.1,0-0.1,0c-0.1,0-0.2,0-0.3,0
				c0,0-0.1,0-0.1,0c-0.2,0-0.4,0-0.5,0c-0.1,0-0.1,0-0.2,0c-0.1,0-0.1,0-0.2,0c0,0-0.2,0.1-0.2,0.1c-0.1,0-0.2,0-0.3,0
				c0,0-0.1,0-0.1,0c-0.1,0-0.2,0-0.3,0c-0.1,0-0.2,0-0.2,0c-0.1,0-0.4,0-0.4,0c-0.1-0.1,0-1.1,0-1.3c0-0.1,0-0.2,0-0.3
				c0-0.1,0-0.5-0.1-0.4c-0.1,0-0.3,0-0.4,0c-0.1,0-0.4,0-0.5,0c-0.1-0.1-0.2-0.5-0.2-0.7C26.1,35,26,34.8,26,34.5c0,0,0-0.1,0-0.1
				c0-0.1,0.3,0,0.3,0c0.2,0,1.1,0,1.1-0.1c0-0.1,0-0.3,0-0.4c0-0.2,0-0.3,0-0.5c0-0.2,0-0.5,0-0.8c0.6,0.6,1.2,1.2,1.8,1.8
				c0.1,0.1,0.1,0.1,0.2,0.2c0.1,0.1,0.3,0.3,0.5,0.4c0.4,0.4,0.8,0.8,1.2,1.2c0.3,0.3,0.6,0.6,0.9,0.9c0.1,0.1,0.2,0.1,0.2,0.2
				C32.2,37.3,32.1,37.3,32,37.4z M35.3,22.1c0,0.2,0,0.3,0,0.5c0,0.1,0,0.2,0,0.3c0,0.2,0,0.4,0,0.6c0,0.1,0,0.1,0,0.2
				c0,0.1,0,0.3,0,0.4c0,0.2,0,0.4,0,0.5c0,0.2,0,0.4,0,0.7c0,0.1,0,0.3,0,0.4c0,0.1,0,0.1,0,0.1c0,0.1,0,0.3,0,0.4
				c0,0.1,0,0.2,0,0.3c0,0.1,0,0.2,0,0.2c0,0.2,0,0.3,0,0.5c0,0.2,0,0.5,0,0.8c0,0.1,0,0.1,0,0.2c0,0.1,0,0.3,0,0.4
				c0,0.1,0,0.2,0,0.2c0,0.1,0,0.2,0,0.2c0,0.1,0,0.2,0,0.3c0,0.1,0.1,0.7,0,0.7c-0.1,0-0.6-0.6-0.7-0.7c-0.7-0.7-1.3-1.3-2-2
				c-0.1-0.1-0.2-0.2-0.3-0.3c-0.1-0.1-0.2-0.2-0.3-0.3c0-0.1-0.1-0.1-0.1-0.2c-0.6-0.6-1.3-1.2-1.9-1.9c-0.1-0.1-0.9-0.9-0.9-1
				c0,0,0,0,0,0c0.1-0.2,0.3-0.3,0.4-0.4c0.1-0.1,0.2-0.3,0.4-0.4c0.1-0.1,0.2-0.2,0.4-0.4c0,0,0.1-0.1,0.1-0.1
				c0.1-0.1,0.2-0.2,0.3-0.3c0.1-0.1,0.2-0.2,0.3-0.3c0.1-0.1,0.2-0.2,0.3-0.3c0.1-0.1,0.2-0.2,0.3-0.3c0.1-0.1,0.3-0.3,0.4-0.4
				c0.2-0.2,0.3-0.3,0.5-0.5c0.3-0.3,0.6-0.7,0.9-1c0.5-0.5,1-0.9,1.4-1.4c0.1-0.1,0.3-0.2,0.4-0.4c0.1,0.1,0,0.4,0,0.6
				c0,0.4,0,0.8,0,1.1c0,0.2,0,0.4,0,0.6c0,0.2,0,0.4,0,0.6c0,0.1,0,0.2,0,0.3c0,0.1,0,0.1,0,0.2c0,0.1,0,0.1,0,0.2
				c0,0.1,0,0.1,0,0.2C35.2,21.5,35.2,21.8,35.3,22.1z"/>
			<path d="M27.7,20.7c-0.1,0.1,0,0.2,0.1,0.2c0,0,0,0,0,0C27.9,20.9,27.8,20.7,27.7,20.7z"/>
			<path d="M27.8,21.7c0-0.1-0.1-0.1-0.1-0.1c-0.1,0.1-0.1,0.3-0.1,0.5c0,0.2,0,0.4,0,0.6c0,0.2,0,0.3,0,0.5c0,0.1,0,0.1,0,0.2
				c0,0.1,0.1,0,0.1-0.1c0.1-0.2,0-0.7,0-1C27.8,22.1,27.8,21.9,27.8,21.7z"/>
			<path d="M28.1,22C28,22.1,28,22.3,28,22.5c0,0.2,0,0.3,0,0.4c0,0,0,0,0,0c0.1,0,0.2-0.8,0.1-0.9C28.1,22,28.1,22,28.1,22z"/>
		</g>
		<path d="M24.2,23.4c0.1,0,0.2-0.1,0.2-0.1c0.2-0.1,0.4-0.2,0.6-0.3c0.1,0,0.2-0.1,0.4-0.1c0.2-0.1,0.4-0.1,0.6-0.2
			c0.2-0.1,0.3-0.1,0.5-0.2c0.1,0,0.1-0.1,0.1-0.2c0-0.1-0.1-0.1-0.2-0.2c0,0,0,0,0,0c-0.1,0-0.2,0.1-0.3,0.1
			c-0.2,0-0.4,0.1-0.5,0.2c-0.5,0.2-1,0.4-1.4,0.7C24.2,23.2,24.1,23.3,24.2,23.4C24.2,23.4,24.2,23.4,24.2,23.4z"/>
		<path d="M22.7,22.9c-0.6-0.3-1.2-0.7-1.9-0.7c0,0,0,0,0,0c-0.2,0-0.2,0.3-0.1,0.4c0.1,0.1,0.3,0,0.4,0.1c0.1,0,0.2,0,0.3,0
			c0.3,0,0.5,0.1,0.7,0.2c0.2,0.1,0.3,0.1,0.5,0.2c0.1,0.1,0.6,0.4,0.7,0.4c0,0,0,0,0,0c0,0,0,0,0,0c0,0,0-0.1,0-0.1
			C23.3,23.3,22.9,23,22.7,22.9z"/>
		<path d="M26.4,24.1c-0.3,0.1-0.5,0.2-0.8,0.3c-0.1,0-0.1,0.1-0.2,0.1c-0.2,0.1-0.4,0.2-0.6,0.3c-0.2,0.1-0.3,0.2-0.5,0.3
			c0,0-0.1,0.1-0.1,0.2c0.1,0.1,0.2,0,0.2-0.1c0.4-0.3,0.8-0.4,1.3-0.6c0.1,0,0.3-0.1,0.4-0.1c0.2,0,0.3,0,0.5-0.1
			c0.1-0.1,0.1-0.3,0-0.3C26.5,24.1,26.4,24.1,26.4,24.1z"/>
		<path d="M23.2,25.3c-0.1-0.1-0.3-0.3-0.5-0.4c-0.1,0-0.1,0-0.2-0.1c-0.3-0.1-0.5-0.2-0.8-0.3c-0.1,0-0.2-0.1-0.3-0.1
			c-0.1,0-0.2,0-0.4-0.1c-0.1,0-0.2-0.1-0.3-0.1c0,0,0,0,0,0c-0.2,0-0.2,0.3-0.1,0.4c0,0,0,0,0.1,0c0.2,0,0.4,0,0.6,0.1
			c0.2,0,0.3,0.1,0.5,0.1c0.1,0,0.2,0,0.3,0.1c0.3,0.1,0.6,0.2,0.9,0.3c0.1,0.1,0.2,0.2,0.4,0.2C23.3,25.4,23.3,25.4,23.2,25.3z"/>
	</g>
	<g>
		<path d="M3.5,19.1c0.4,0.1,0.5,0,0.6-0.3l0.1,0l-0.3,1.2l-0.1,0c0.1-0.2,0-0.4-0.5-0.5l-2.6-0.6l-0.1,0.5c-0.1,0.5,0,0.7,0.3,0.8
			l0,0.1l-0.8-0.2l0-0.1c0.1,0,0.1-0.1,0.1-0.2c0-0.1,0.1-0.2,0.1-0.3l0.4-1.8c0.1-0.3,0.1-0.4,0-0.6l0-0.1l0.8,0.2l0,0.1
			c-0.3,0-0.5,0.1-0.7,0.6l-0.1,0.5L3.5,19.1z"/>
		<path d="M3.7,15.1l0.9,0.5c0.4,0.2,0.6,0.2,0.7-0.1l0.1,0l-0.6,1.2l-0.1,0c0.1-0.2,0.1-0.4-0.3-0.6l-2-1c-0.4-0.2-0.5-0.2-0.7,0.1
			l-0.1,0l0.6-1.2l0.1,0c-0.1,0.3-0.1,0.4,0.3,0.6l0.9,0.4l0.8-1.7l-0.9-0.4c-0.4-0.2-0.5-0.2-0.7,0.1l-0.1,0l0.6-1.1l0.1,0
			c-0.1,0.3,0,0.4,0.3,0.6l2,1c0.4,0.2,0.5,0.2,0.7-0.1l0.1,0l-0.6,1.1l-0.1,0c0.1-0.3,0.1-0.4-0.3-0.6l-0.9-0.5L3.7,15.1z"/>
		<path d="M7.9,9.3L7.9,9.3c-0.3-0.1-0.4,0-0.6,0.2l-0.6,0.7l1,0.8c0.1,0.1,0.2,0.1,0.4,0l0.4-0.5c0.3-0.4,0.4-0.5,0.2-1l0.1-0.1
			L9,10l-1.6,2l-0.1-0.1c0.2-0.2,0.2-0.4-0.2-0.7L5.5,9.8C5.1,9.5,5,9.5,4.8,9.8L4.7,9.7l1.6-2l0.5,0.4l0,0.1C6.4,8,6.3,8,6,8.3
			L5.4,9.1l1.2,1l0.6-0.8c0.2-0.2,0.2-0.3,0-0.5l0.1-0.1L7.9,9.3z"/>
		<path d="M14.5,5.3c-0.1,0.5-0.3,0.9-0.7,1.1c-0.7,0.4-1.3,0.1-1.7-0.5l-0.9-1.5C11,4,10.9,4,10.6,4.1L10.6,4l1.1-0.6l0.1,0.1
			c-0.3,0.1-0.3,0.3-0.1,0.7l0.9,1.6c0.3,0.5,0.7,0.7,1.2,0.4c0.4-0.2,0.6-0.6,0.6-1l-1-1.9c-0.2-0.4-0.4-0.4-0.6-0.3l-0.1-0.1
			l1.1-0.6l0.1,0.1c-0.3,0.1-0.3,0.3-0.1,0.7l1.1,1.9c0.2,0.4,0.4,0.4,0.6,0.3l0.1,0.1l-0.8,0.4L14.5,5.3z"/>
		<path d="M20.2,3.9l-0.1,0l-3.2-2.4l0,0L17.5,4c0.1,0.3,0.3,0.4,0.6,0.4l0,0.1l-1,0.3l0-0.1c0.3-0.1,0.4-0.2,0.3-0.7l-0.5-2
			c-0.1-0.4-0.3-0.6-0.7-0.5l0-0.1l0.9-0.2l2.8,2.1l0,0l-0.5-2c-0.1-0.5-0.3-0.5-0.6-0.5l0-0.1l1-0.3l0,0.1
			c-0.3,0.1-0.4,0.3-0.3,0.7L20.2,3.9z"/>
		<path d="M23,2.9c0,0.4,0.1,0.6,0.4,0.5l0,0.1l-1.3,0.1l0-0.1c0.3,0,0.4-0.1,0.4-0.6l-0.1-2.2c0-0.4-0.1-0.6-0.4-0.5l0-0.1l1.3-0.1
			l0,0.1c-0.3,0-0.4,0.2-0.4,0.6L23,2.9z"/>
		<path d="M26.6,3.8L26.6,3.8l-0.8-3c-0.1-0.5-0.2-0.6-0.5-0.7l0-0.1l1.3,0.2l0,0.1c-0.3,0-0.4,0.1-0.3,0.4l0.6,2.4L27.9,1
			c0.2-0.3,0.1-0.5-0.2-0.5l0-0.1l1,0.1l0,0.1c-0.3,0-0.5,0.1-0.7,0.6L26.6,3.8z"/>
		<path d="M32.2,3.9L32.2,3.9c-0.1-0.3-0.1-0.4-0.4-0.5L31,3.1l-0.4,1.2c-0.1,0.2,0,0.2,0.2,0.3l0.6,0.2c0.5,0.2,0.6,0.2,1-0.2
			l0.1,0L32,5.2l-2.4-0.9l0-0.1c0.3,0.1,0.4,0.1,0.6-0.4l0.8-2.1c0.2-0.4,0.1-0.6-0.2-0.7l0-0.1l2.4,0.9L33,2.5l-0.1,0
			C33,2,32.9,2,32.5,1.8l-1-0.4L31,2.9l0.9,0.3c0.2,0.1,0.3,0.1,0.5-0.2l0.1,0L32.2,3.9z"/>
		<path d="M36.3,3.7l0.3,0.2C37,4.2,37.1,4.6,36.9,5c-0.2,0.3-0.6,0.6-1.1,0.2L35.4,5L36.3,3.7z M35.3,5.1l0.2,0.2
			c0.5,0.4,0.2,1.2,0.3,2.2l0.6,0.4l0.1-0.1c-0.5-0.4,0-1.5-0.3-2.2c0.5,0.2,0.9,0,1.1-0.3c0.3-0.4,0.2-1-0.5-1.4l-1.2-0.8l-0.1,0.1
			c0.2,0.2,0.3,0.3,0,0.7l-1.2,1.9c-0.3,0.4-0.4,0.4-0.6,0.2L33.7,6l1.1,0.7l0.1-0.1c-0.2-0.2-0.3-0.3,0-0.7L35.3,5.1z"/>
		<path d="M40.9,8.4L40.9,8.4c0.3-0.5,0.1-0.9-0.1-1.1c-0.3-0.3-0.6-0.3-0.8-0.1c-0.5,0.5,0,1.2,0,1.9c0,0.4-0.1,0.6-0.3,0.7
			c-0.4,0.4-1,0.4-1.4,0c-0.3-0.3-0.4-0.6-0.4-0.7c0,0-0.1,0-0.2,0L37.6,9l0.7-0.7l0.1,0.1c-0.5,0.5-0.2,1,0,1.2
			c0.3,0.3,0.7,0.3,1,0.1c0.4-0.4,0-1.3,0-1.9c0-0.3,0.1-0.5,0.3-0.7c0.4-0.4,0.9-0.4,1.3,0c0.3,0.3,0.3,0.5,0.4,0.6
			c0,0,0.1,0,0.1,0l0.1,0.1L40.9,8.4z"/>
		<path d="M41.2,12.2c-0.4,0.2-0.4,0.4-0.2,0.7l-0.1,0.1l-0.7-1l0.1-0.1c0.2,0.2,0.3,0.3,0.7,0l1.8-1.3c0.4-0.3,0.4-0.4,0.2-0.7
			l0.1-0.1l0.7,1l-0.1,0.1c-0.2-0.2-0.3-0.3-0.7,0L41.2,12.2z"/>
		<path d="M43,15.4c-0.4,0.2-0.5,0.3-0.3,0.6l-0.1,0L42,14.9l0.1,0c0.1,0.2,0.2,0.3,0.7,0.1l2.5-1.1l-0.2-0.5
			c-0.2-0.4-0.4-0.6-0.8-0.4l0-0.1l0.7-0.3l0,0.1c0,0.1,0,0.1,0,0.2c0,0.1,0.1,0.2,0.1,0.3l0.8,1.7c0.1,0.3,0.2,0.4,0.4,0.5l0,0.1
			l-0.7,0.3l0-0.1c0.2-0.2,0.4-0.4,0.1-0.9l-0.2-0.5L43,15.4z"/>
		<path d="M44.4,19.7c-0.4,0.1-0.5,0.2-0.5,0.5l-0.1,0l-0.3-1.3l0.1,0c0.1,0.3,0.1,0.4,0.6,0.3l1.1-0.2l1-1c0.3-0.3,0.4-0.4,0.3-0.7
			l0.1,0l0.3,1.4l-0.1,0c-0.1-0.4-0.2-0.4-0.4-0.2l-0.9,0.9l1,0.4c0.3,0.1,0.6,0.1,0.5-0.2l0.1,0l0.2,1l-0.1,0
			c-0.1-0.3-0.2-0.3-0.5-0.5l-1.4-0.5L44.4,19.7z"/>
		<path d="M2.3,28.7c1-0.3,1.8,0,2,0.8C4.5,30.2,4.1,31,3,31.3c-0.8,0.2-1.8,0-2-0.8C0.8,29.7,1.3,29,2.3,28.7z M2.2,28.2
			c-1,0.3-1.6,1.3-1.3,2.3c0.3,1,1.3,1.6,2.3,1.3c1-0.3,1.5-1.3,1.3-2.3C4.2,28.4,3.2,27.9,2.2,28.2z"/>
		<path d="M3.6,35c-0.4,0.2-0.4,0.4-0.3,0.6l-0.1,0.1l-0.6-1.1l0.1-0.1c0.1,0.3,0.3,0.3,0.7,0.1l1.9-1.1c0.4-0.2,0.4-0.4,0.3-0.6
			l0.1-0.1L6.9,35l-0.5,0.3l0-0.1c0.3-0.3,0.3-0.4,0.1-0.7l-0.4-0.8l-1.3,0.7l0.5,0.8c0.1,0.2,0.3,0.3,0.6,0.1l0,0.1L4.8,36l0-0.1
			C5,35.7,5.1,35.6,5,35.3l-0.5-0.8L3.6,35z"/>
		<path d="M10.4,41.9L10.4,41.9c0.1-0.3,0-0.4-0.2-0.6l-0.7-0.6l-0.8,1c-0.1,0.1-0.1,0.2,0,0.4l0.5,0.4c0.4,0.3,0.5,0.4,1,0.2
			l0.1,0.1l-0.5,0.4l-2-1.6l0.1-0.1c0.2,0.2,0.4,0.2,0.7-0.2l1.4-1.7c0.3-0.3,0.3-0.5,0-0.7l0.1-0.1l2,1.6l-0.4,0.5l-0.1,0
			c0.2-0.4,0.1-0.5-0.2-0.7l-0.8-0.6l-1,1.2l0.8,0.6c0.2,0.2,0.3,0.2,0.5,0l0.1,0.1L10.4,41.9z"/>
		<path d="M14.4,42l0.6,0.3c1,0.5,1,1.4,0.7,2.2c-0.4,0.9-1.1,1.2-1.9,0.8l-0.3-0.2c-0.3-0.1-0.4-0.3-0.1-0.8L14.4,42z M12.9,44.3
			c-0.2,0.4-0.3,0.5-0.6,0.3l0,0.1l1.5,0.7c1.3,0.6,2.1,0.1,2.5-0.7c0.4-0.8,0.2-1.9-1-2.5l-1.5-0.7l0,0.1c0.3,0.1,0.3,0.3,0.1,0.7
			L12.9,44.3z"/>
		<path d="M19.1,46.5c-0.1,0.4,0,0.6,0.3,0.6l0,0.1L18.1,47l0-0.1c0.3,0.1,0.4,0,0.5-0.5l0.5-2.2c0.1-0.4,0-0.6-0.3-0.6l0-0.1
			l1.2,0.3l0,0.1c-0.3-0.1-0.4,0-0.5,0.5L19.1,46.5z"/>
		<path d="M25.5,47.7l-0.1,0l-2.5-3.1h0l0,2.5c0,0.4,0.1,0.5,0.5,0.5l0,0.1l-1.1,0l0-0.1c0.3,0,0.4-0.1,0.4-0.6l0-2.1
			c0-0.4-0.1-0.6-0.5-0.7l0-0.1l0.9,0l2.2,2.7h0l0-2.1c0-0.5-0.1-0.6-0.4-0.6l0-0.1l1.1,0l0,0.1c-0.3,0-0.5,0.1-0.5,0.6L25.5,47.7z"
			/>
		<path d="M29.2,45.1l-0.4-1.5l0.3-0.1c0.6-0.2,0.9,0.1,1,0.5c0.1,0.4-0.1,0.8-0.6,0.9L29.2,45.1z M29.1,46.5c0.1,0.4,0,0.6-0.2,0.6
			l0,0.1l1.6-0.4c0.6-0.2,1-0.6,0.9-1.1c-0.1-0.5-0.6-0.8-1.1-0.7l0,0c0.4-0.3,0.6-0.6,0.5-1c-0.1-0.4-0.6-0.7-1.4-0.5L28,43.8
			l0,0.1c0.3-0.1,0.4,0,0.5,0.4L29.1,46.5z M29.3,45.3l0.3-0.1c0.6-0.2,1.1,0.1,1.2,0.6c0.1,0.5-0.1,0.8-0.5,0.9l-0.3,0.1
			c-0.3,0.1-0.4,0-0.5-0.5L29.3,45.3z"/>
		<path d="M36.4,43.6c-0.1,0.5-0.3,0.9-0.7,1.1c-0.7,0.4-1.3,0.1-1.7-0.4l-0.9-1.5c-0.2-0.4-0.4-0.4-0.6-0.3l-0.1-0.1l1.1-0.6
			l0.1,0.1c-0.3,0.1-0.3,0.3-0.1,0.7l0.9,1.6c0.3,0.5,0.7,0.7,1.3,0.4c0.4-0.2,0.6-0.6,0.6-1l-1.1-1.8c-0.2-0.4-0.4-0.4-0.6-0.3
			l-0.1-0.1l1.1-0.6l0.1,0.1c-0.3,0.1-0.3,0.3-0.1,0.7l1.1,1.9c0.2,0.4,0.4,0.4,0.6,0.3l0.1,0.1L36.7,44L36.4,43.6z"/>
		<path d="M37.9,38.7l0.3-0.3c0.4-0.4,0.9-0.4,1.2-0.1c0.3,0.3,0.4,0.7,0,1.2L39,39.9L37.9,38.7z M39.1,40l0.2-0.2
			c0.5-0.5,1.2,0,2.2,0.1l0.5-0.5L42,39.3c-0.4,0.4-1.4-0.3-2.2-0.1c0.3-0.5,0.2-0.9-0.1-1.1c-0.3-0.3-0.9-0.4-1.5,0.2l-1,1l0.1,0.1
			c0.2-0.2,0.3-0.2,0.7,0.1l1.6,1.6c0.3,0.3,0.3,0.5,0.1,0.7l0.1,0.1l0.9-0.9l-0.1-0.1c-0.2,0.2-0.4,0.2-0.7-0.1L39.1,40z"/>
		<path d="M45,35c-0.1,0.2-0.4,0.8-0.4,0.9c-0.8,1.3-1.9,1.3-2.6,0.9c-1.1-0.7-1.2-1.8-0.7-2.6c0.3-0.4,0.5-0.5,0.6-0.7
			c0.1-0.1,0.1-0.2,0-0.2l0.1-0.1l0.9,0.5l-0.1,0.1c-0.6-0.3-1.2,0.1-1.4,0.5c-0.4,0.6-0.1,1.4,0.7,1.9c0.9,0.5,1.9,0.4,2.3-0.3
			c0.1-0.2,0.3-0.5,0-0.7L44,35c-0.4-0.2-0.6-0.2-0.7,0l-0.1,0.1l-0.1-0.1l0.7-1.2l0.1,0.1c-0.2,0.3-0.1,0.5,0.2,0.6L45,35z"/>
		<path d="M44.9,31l1,0.3c0.4,0.1,0.6,0.1,0.7-0.2l0.1,0l-0.4,1.2l-0.1,0c0.1-0.3,0-0.4-0.4-0.5l-2.1-0.6C43.2,31,43,31,42.9,31.3
			l-0.1,0l0.4-1.2l0.1,0c-0.1,0.3,0,0.4,0.4,0.5l1,0.3l0.5-1.9l-1-0.3c-0.4-0.1-0.6-0.1-0.7,0.2l-0.1,0l0.4-1.2l0.1,0
			c-0.1,0.3,0,0.4,0.4,0.5l2.1,0.6c0.4,0.1,0.6,0.1,0.7-0.2l0.1,0l-0.4,1.2l-0.1,0c0.1-0.3,0-0.4-0.4-0.5l-1-0.3L44.9,31z"/>
		<path d="M2,24.2c0,0.2-0.1,0.3-0.3,0.3c-0.2,0-0.3-0.1-0.3-0.3c0-0.2,0.1-0.3,0.3-0.3C1.9,23.9,2,24,2,24.2z"/>
		<path d="M46.4,24.2c0,0.2-0.1,0.3-0.3,0.3c-0.2,0-0.3-0.1-0.3-0.3c0-0.2,0.1-0.3,0.3-0.3C46.2,23.9,46.4,24,46.4,24.2z"/>
	</g>
</g>
<g>
	<path class="st0" d="M66.7,10.7H65v8.6c0,0.7,0.1,1.1,0.2,1.4c0.2,0.2,0.5,0.4,1,0.4v0.3h-4v-0.3c0.5,0,0.8-0.1,1-0.4
		c0.2-0.3,0.3-0.7,0.3-1.4v-8.6h-1.6c-0.8,0-1.3,0.1-1.7,0.4c-0.4,0.2-0.6,0.7-0.6,1.2h-0.3V9.8h0.3c0.3,0.3,0.9,0.4,1.7,0.4h5.9
		c0.8,0,1.4-0.1,1.8-0.4h0.4v2.6h-0.2c-0.1-0.6-0.4-1-0.8-1.3C68,10.8,67.4,10.7,66.7,10.7z"/>
	<path class="st0" d="M79.6,19.3v-3.3h-6.1v3.3c0,0.7,0.1,1.1,0.3,1.4c0.2,0.3,0.5,0.4,1,0.4v0.3h-4.1v-0.3c0.5,0,0.8-0.1,1-0.4
		c0.2-0.3,0.3-0.7,0.3-1.4v-7c0-0.7-0.1-1.2-0.3-1.4c-0.2-0.3-0.5-0.4-1-0.4v-0.3h4.1v0.3c-0.5,0-0.8,0.1-1,0.4
		c-0.2,0.3-0.3,0.7-0.3,1.4v3.2h6.1v-3.2c0-0.7-0.1-1.2-0.3-1.4c-0.2-0.3-0.5-0.4-1-0.4v-0.3h4v0.3c-0.5,0-0.8,0.1-1,0.4
		c-0.2,0.3-0.3,0.7-0.3,1.4v7c0,0.7,0.1,1.1,0.3,1.4c0.2,0.3,0.5,0.4,1,0.4v0.3h-4v-0.3c0.5,0,0.8-0.1,1-0.4
		C79.5,20.5,79.6,20,79.6,19.3z"/>
	<path class="st0" d="M91.1,14.4h0.3v2.7h-0.3c-0.1-0.5-0.3-0.8-0.4-0.9c-0.2-0.1-0.6-0.2-1.1-0.2h-2.8v4c0,0.3,0.1,0.5,0.2,0.6
		c0.1,0.1,0.3,0.2,0.6,0.2h2c0.7,0,1.2,0,1.5-0.1c0.3-0.1,0.5-0.2,0.7-0.4c0.2-0.2,0.4-0.5,0.6-1h0.3l-0.5,2.1H84v-0.3
		c0.5,0,0.8-0.1,1-0.4c0.2-0.3,0.3-0.7,0.3-1.4v-7c0-0.7-0.1-1.2-0.3-1.4c-0.2-0.3-0.5-0.4-1-0.4v-0.3h8.1v1.9h-0.2
		c-0.1-0.5-0.3-0.9-0.5-1.1c-0.2-0.2-0.7-0.3-1.4-0.3h-3.2v4.8h3.1c0.4,0,0.7-0.1,0.9-0.2C90.9,15.2,91,14.9,91.1,14.4z"/>
	<path class="st0" d="M107.1,19.1v-6.8c0-0.7-0.1-1.1-0.3-1.4c-0.2-0.3-0.5-0.4-0.9-0.4v-0.3h4v0.3c-0.5,0-0.8,0.1-1,0.4
		c-0.2,0.3-0.3,0.7-0.3,1.4v7c0,0.7,0.1,1.1,0.3,1.4c0.2,0.3,0.5,0.4,1,0.4v0.3h-2.8v-1.6c-1.1,1.2-2.3,1.8-3.7,1.8
		c-1.2,0-2.1-0.4-2.8-1.1c-0.7-0.7-1-1.6-1-2.8v-5.5c0-0.7-0.1-1.1-0.3-1.4c-0.2-0.3-0.5-0.4-1-0.4v-0.3h4.1v0.3
		c-0.5,0-0.8,0.1-1,0.4c-0.2,0.3-0.3,0.7-0.3,1.4V18c0,0.9,0.3,1.6,0.8,2.2c0.5,0.5,1.2,0.8,2.1,0.8
		C105.3,20.9,106.3,20.3,107.1,19.1z"/>
	<path class="st0" d="M120,10.5v-0.3h3.4v0.3c-0.5,0-0.9,0.1-1.1,0.4c-0.2,0.3-0.3,0.7-0.3,1.4v9.1h-0.3l-8-9.8v7.9
		c0,0.6,0.1,1,0.3,1.2c0.2,0.2,0.6,0.4,1.1,0.4v0.3h-3.4v-0.3c0.5,0,0.9-0.1,1.1-0.4c0.2-0.3,0.3-0.8,0.3-1.5v-6.6
		c0-0.7-0.1-1.2-0.4-1.5c-0.3-0.3-0.7-0.5-1.3-0.6v-0.3h2.9l7.1,8.8v-6.6c0-0.7-0.1-1.2-0.3-1.4C120.9,10.6,120.5,10.5,120,10.5z"/>
	<path class="st0" d="M129,10.2v0.3c-0.5,0-0.8,0.1-1,0.4c-0.2,0.3-0.3,0.7-0.3,1.4v7c0,0.7,0.1,1.1,0.3,1.4c0.2,0.3,0.5,0.4,1,0.4
		v0.3h-4v-0.3c0.5,0,0.8-0.1,1-0.4c0.2-0.3,0.3-0.7,0.3-1.4v-7c0-0.7-0.1-1.2-0.3-1.4c-0.2-0.3-0.5-0.4-1-0.4v-0.3H129z"/>
	<path class="st0" d="M141.4,10.2v0.3c-0.8,0-1.5,0.7-2,2.2l-3.3,8.9h-0.3l-3.5-9.1c-0.3-0.8-0.6-1.4-0.8-1.6
		c-0.2-0.2-0.6-0.3-1-0.3v-0.3h4.1v0.3c-0.7,0-1,0.3-1,0.8c0,0.2,0,0.4,0.1,0.6l2.8,7.3l2.6-7c0.1-0.3,0.2-0.6,0.2-0.8
		c0-0.5-0.3-0.8-1-0.8v-0.3H141.4z"/>
	<path class="st0" d="M149.7,14.4h0.3v2.7h-0.3c-0.1-0.5-0.3-0.8-0.4-0.9c-0.2-0.1-0.6-0.2-1.1-0.2h-2.8v4c0,0.3,0.1,0.5,0.2,0.6
		c0.1,0.1,0.3,0.2,0.6,0.2h2c0.7,0,1.2,0,1.5-0.1c0.3-0.1,0.5-0.2,0.7-0.4c0.2-0.2,0.4-0.5,0.6-1h0.3l-0.5,2.1h-8.1v-0.3
		c0.5,0,0.8-0.1,1-0.4c0.2-0.3,0.3-0.7,0.3-1.4v-7c0-0.7-0.1-1.2-0.3-1.4c-0.2-0.3-0.5-0.4-1-0.4v-0.3h8.1v1.9h-0.2
		c-0.1-0.5-0.3-0.9-0.5-1.1c-0.2-0.2-0.7-0.3-1.4-0.3h-3.2v4.8h3.1c0.4,0,0.7-0.1,0.9-0.2C149.5,15.2,149.6,14.9,149.7,14.4z"/>
	<path class="st0" d="M156.3,16.2h-0.9v3.1c0,0.7,0.1,1.1,0.3,1.4c0.2,0.3,0.5,0.4,1,0.4v0.3h-4v-0.3c0.5,0,0.8-0.1,1-0.4
		c0.2-0.3,0.3-0.7,0.3-1.4v-7.1c0-0.7-0.1-1.1-0.3-1.4c-0.2-0.3-0.5-0.4-1-0.4v-0.3h4.6c1.1,0,2,0.3,2.7,0.8c0.7,0.6,1,1.3,1,2.1
		c0,1.4-0.8,2.3-2.3,2.8c0.3,0.2,0.7,0.5,1,0.9c0.3,0.4,0.7,1,1.3,1.9c0.6,1,1,1.6,1.4,1.9c0.3,0.3,0.7,0.5,1,0.5v0.3H161
		c-0.5-0.6-1-1.4-1.7-2.5c-0.7-1.2-1.3-1.9-1.7-2.2C157.2,16.4,156.8,16.2,156.3,16.2z M156.6,10.6h-1.2v5.1h1.4
		c0.8,0,1.5-0.2,1.9-0.7c0.5-0.5,0.7-1.1,0.7-1.9c0-0.8-0.3-1.4-0.8-1.8C158.1,10.9,157.4,10.6,156.6,10.6z"/>
	<path class="st0" d="M170,10h0.3v2.6H170c-0.1-0.7-0.3-1.3-0.8-1.7c-0.5-0.4-1-0.6-1.7-0.6c-0.6,0-1.1,0.2-1.5,0.5
		c-0.4,0.3-0.6,0.7-0.6,1.2c0,0.5,0.2,0.9,0.5,1.3c0.3,0.4,1,0.9,2,1.5c1.2,0.7,2,1.3,2.4,1.9c0.4,0.5,0.6,1.1,0.6,1.8
		c0,0.9-0.3,1.6-0.9,2.3c-0.6,0.6-1.4,0.9-2.3,0.9c-0.5,0-1.2-0.1-2-0.4c-0.3-0.1-0.5-0.2-0.6-0.2c-0.2,0-0.3,0.1-0.4,0.4h-0.3v-3
		h0.3c0,0.8,0.3,1.5,0.8,2c0.5,0.5,1.2,0.8,1.9,0.8c0.7,0,1.2-0.2,1.6-0.5c0.4-0.4,0.6-0.8,0.6-1.5c0-0.5-0.2-0.9-0.5-1.3
		c-0.3-0.4-1-1-2.1-1.6c-0.9-0.5-1.5-1-1.8-1.3c-0.3-0.3-0.5-0.7-0.7-1c-0.1-0.4-0.2-0.8-0.2-1.2c0-0.9,0.3-1.6,0.8-2.1
		c0.6-0.5,1.3-0.8,2.2-0.8c0.5,0,1,0.1,1.6,0.3c0.3,0.1,0.5,0.1,0.6,0.1c0.1,0,0.2,0,0.2-0.1C169.9,10.2,170,10.2,170,10z"/>
	<path class="st0" d="M176.8,10.2v0.3c-0.5,0-0.8,0.1-1,0.4c-0.2,0.3-0.3,0.7-0.3,1.4v7c0,0.7,0.1,1.1,0.3,1.4
		c0.2,0.3,0.5,0.4,1,0.4v0.3h-4v-0.3c0.5,0,0.8-0.1,1-0.4c0.2-0.3,0.3-0.7,0.3-1.4v-7c0-0.7-0.1-1.2-0.3-1.4c-0.2-0.3-0.5-0.4-1-0.4
		v-0.3H176.8z"/>
	<path class="st0" d="M185.8,10.7h-1.7v8.6c0,0.7,0.1,1.1,0.2,1.4c0.2,0.2,0.5,0.4,1,0.4v0.3h-4v-0.3c0.5,0,0.8-0.1,1-0.4
		c0.2-0.3,0.3-0.7,0.3-1.4v-8.6H181c-0.8,0-1.3,0.1-1.7,0.4c-0.4,0.2-0.6,0.7-0.6,1.2h-0.3V9.8h0.3c0.3,0.3,0.9,0.4,1.7,0.4h5.9
		c0.8,0,1.4-0.1,1.8-0.4h0.4v2.6h-0.2c-0.1-0.6-0.4-1-0.8-1.3C187,10.8,186.5,10.7,185.8,10.7z"/>
	<path class="st0" d="M197.8,11.8l-2.5,4v3.5c0,0.7,0.1,1.2,0.3,1.4c0.2,0.3,0.5,0.4,1,0.4v0.3h-4.1v-0.3c0.6,0,0.9-0.1,1.1-0.4
		c0.2-0.3,0.3-0.7,0.3-1.4v-3.5l-2.4-3.7c-0.4-0.6-0.7-1-1-1.2c-0.2-0.2-0.6-0.3-1-0.3v-0.3h4.4v0.3c-0.8,0-1.2,0.2-1.2,0.5
		c0,0.2,0.1,0.4,0.2,0.6l2.2,3.4l1.8-2.8c0.3-0.4,0.4-0.8,0.4-1.1c0-0.4-0.2-0.6-0.7-0.6v-0.3h3.1v0.3c-0.4,0-0.7,0.1-1,0.3
		C198.4,10.9,198.2,11.3,197.8,11.8z"/>
</g>
<g>
	<path class="st0" d="M63.3,30.1c0.5,0,1,0.2,1.4,0.7c0.4,0.4,0.6,1,0.6,1.6c0,1-0.4,2.1-1.2,3.1c-0.8,1-1.7,1.6-2.8,1.6
		c-0.6,0-1.1-0.2-1.5-0.6c-0.4-0.4-0.6-1-0.6-1.6c0-1.2,0.4-2.2,1.3-3.2C61.4,30.6,62.3,30.1,63.3,30.1z M61.7,36.4
		c0.6,0,1.2-0.4,1.7-1.2c0.5-0.8,0.7-1.7,0.7-2.8c0-0.5-0.1-0.9-0.4-1.2c-0.3-0.3-0.6-0.5-1-0.5c-0.6,0-1.2,0.4-1.6,1.2
		c-0.5,0.8-0.7,1.7-0.7,2.8c0,0.5,0.1,1,0.4,1.3C61,36.2,61.3,36.4,61.7,36.4z"/>
	<path class="st0" d="M70.1,30.3L70,30.8h-1.4l-1.1,5.7c-0.3,1.5-0.6,2.7-1,3.4c-0.3,0.7-0.8,1.2-1.5,1.6c-0.6,0.4-1.3,0.6-2,0.6
		c-1,0-1.7-0.2-2.3-0.5l0.3-1.4h0.3c0.2,1,0.8,1.5,1.7,1.5c0.7,0,1.3-0.3,1.9-0.8c0.5-0.5,1-1.7,1.3-3.5l1.2-6.6h-1.4l0.1-0.5h1.4
		l0.5-2.4c0.3-1.3,0.7-2.1,1.3-2.6c0.6-0.5,1.3-0.7,2.1-0.7c0.4,0,0.8,0.1,1.3,0.3l0.1-0.2h0.4l-0.4,1.8h-0.4
		C72.4,25.4,72,25,71.3,25c-0.9,0-1.6,0.8-1.9,2.4l-0.6,2.9H70.1z"/>
	<path class="st0" d="M83.7,29.8H84v2.7h-0.3c-0.1-0.5-0.3-0.8-0.4-0.9c-0.2-0.1-0.6-0.2-1.1-0.2h-2.8v4c0,0.3,0.1,0.5,0.2,0.6
		c0.1,0.1,0.3,0.2,0.6,0.2h2c0.7,0,1.2,0,1.5-0.1c0.3-0.1,0.5-0.2,0.7-0.4c0.2-0.2,0.4-0.5,0.6-1h0.3l-0.5,2.1h-8.1v-0.3
		c0.5,0,0.8-0.1,1-0.4c0.2-0.3,0.3-0.7,0.3-1.4v-7c0-0.7-0.1-1.2-0.3-1.4c-0.2-0.3-0.5-0.4-1-0.4v-0.3h8.1v1.9h-0.2
		c-0.1-0.5-0.3-0.9-0.5-1.1c-0.2-0.2-0.7-0.3-1.4-0.3h-3.2v4.8h3.1c0.4,0,0.7-0.1,0.9-0.2C83.5,30.5,83.6,30.2,83.7,29.8z"/>
	<path class="st0" d="M86.7,36.7v-0.3c0.5,0,0.8-0.1,1-0.4c0.2-0.3,0.3-0.7,0.3-1.4v-7c0-0.7-0.1-1.1-0.3-1.4
		c-0.2-0.3-0.5-0.4-1-0.4v-0.3h5.2c1.9,0,3.5,0.5,4.6,1.6c1.2,1.1,1.7,2.5,1.7,4.2c0,1.7-0.5,3-1.6,4c-1.1,1-2.6,1.5-4.6,1.5H86.7z
		 M91.6,25.9h-2.1v8.3c0,0.8,0.1,1.3,0.3,1.6c0.2,0.3,0.6,0.4,1.2,0.4h1.2c1.4,0,2.5-0.4,3.3-1.3c0.8-0.9,1.2-2.1,1.2-3.6
		c0-1.6-0.4-2.9-1.3-3.9C94.4,26.4,93.2,25.9,91.6,25.9z"/>
	<path class="st0" d="M103.8,25.5v0.3c-0.5,0-0.8,0.1-1,0.4c-0.2,0.3-0.3,0.7-0.3,1.4v7c0,0.7,0.1,1.1,0.3,1.4
		c0.2,0.3,0.5,0.4,1,0.4v0.3h-4v-0.3c0.5,0,0.8-0.1,1-0.4c0.2-0.3,0.3-0.7,0.3-1.4v-7c0-0.7-0.1-1.2-0.3-1.4c-0.2-0.3-0.5-0.4-1-0.4
		v-0.3H103.8z"/>
	<path class="st0" d="M113.8,25.8v-0.3h3.4v0.3c-0.5,0-0.9,0.1-1.1,0.4c-0.2,0.3-0.3,0.7-0.3,1.4v9.1h-0.3l-8-9.8v7.9
		c0,0.6,0.1,1,0.3,1.2c0.2,0.2,0.6,0.4,1.1,0.4v0.3h-3.4v-0.3c0.5,0,0.9-0.1,1.1-0.4c0.2-0.3,0.3-0.8,0.3-1.5v-6.6
		c0-0.7-0.1-1.2-0.4-1.5c-0.3-0.3-0.7-0.5-1.3-0.6v-0.3h2.9l7.1,8.8v-6.6c0-0.7-0.1-1.2-0.3-1.4C114.7,26,114.3,25.8,113.8,25.8z"/>
	<path class="st0" d="M123.6,36.7h-5.2v-0.3c0.5,0,0.8-0.1,1-0.4c0.2-0.3,0.3-0.7,0.3-1.4v-7c0-0.7-0.1-1.2-0.3-1.4
		c-0.2-0.3-0.5-0.4-1-0.4v-0.3h4.2c1.2,0,2.2,0.3,2.9,0.8c0.7,0.5,1,1.2,1,2c0,1.2-0.8,2.1-2.3,2.5v0c0.9,0.2,1.6,0.6,2.1,1.1
		c0.5,0.6,0.8,1.3,0.8,2c0,0.8-0.3,1.5-1,2C125.6,36.5,124.7,36.7,123.6,36.7z M121.2,25.9v4.8h1.2c0.8,0,1.5-0.2,1.9-0.6
		c0.5-0.4,0.7-1,0.7-1.7c0-0.8-0.2-1.4-0.7-1.8c-0.5-0.4-1.1-0.6-2-0.6H121.2z M122.2,31.1h-1.1v3.3c0,0.7,0.1,1.2,0.2,1.5
		c0.2,0.3,0.5,0.4,0.9,0.4h0.9c0.7,0,1.2-0.2,1.6-0.7c0.4-0.4,0.6-1,0.6-1.8c0-0.8-0.3-1.5-0.9-2C124,31.4,123.2,31.1,122.2,31.1z"
		/>
	<path class="st0" d="M137.2,34.4v-6.8c0-0.7-0.1-1.1-0.3-1.4c-0.2-0.3-0.5-0.4-0.9-0.4v-0.3h4v0.3c-0.5,0-0.8,0.1-1,0.4
		c-0.2,0.3-0.3,0.7-0.3,1.4v7c0,0.7,0.1,1.1,0.3,1.4c0.2,0.3,0.5,0.4,1,0.4v0.3h-2.8v-1.6c-1.1,1.2-2.3,1.8-3.7,1.8
		c-1.2,0-2.1-0.4-2.8-1.1c-0.7-0.7-1-1.6-1-2.8v-5.5c0-0.7-0.1-1.1-0.3-1.4c-0.2-0.3-0.5-0.4-1-0.4v-0.3h4.1v0.3
		c-0.5,0-0.8,0.1-1,0.4c-0.2,0.3-0.3,0.7-0.3,1.4v5.7c0,0.9,0.3,1.6,0.8,2.2c0.5,0.5,1.2,0.8,2.1,0.8
		C135.3,36.3,136.4,35.6,137.2,34.4z"/>
	<path class="st0" d="M145.3,31.5h-0.9v3.1c0,0.7,0.1,1.1,0.3,1.4c0.2,0.3,0.5,0.4,1,0.4v0.3h-4v-0.3c0.5,0,0.8-0.1,1-0.4
		c0.2-0.3,0.3-0.7,0.3-1.4v-7.1c0-0.7-0.1-1.1-0.3-1.4c-0.2-0.3-0.5-0.4-1-0.4v-0.3h4.6c1.1,0,2,0.3,2.7,0.8c0.7,0.6,1,1.3,1,2.1
		c0,1.4-0.8,2.3-2.3,2.8c0.3,0.2,0.7,0.5,1,0.9c0.3,0.4,0.7,1,1.3,1.9c0.6,1,1,1.6,1.4,1.9c0.3,0.3,0.7,0.5,1,0.5v0.3h-2.3
		c-0.5-0.6-1-1.4-1.7-2.5c-0.7-1.2-1.3-1.9-1.7-2.2C146.3,31.7,145.8,31.5,145.3,31.5z M145.6,25.9h-1.2v5.1h1.4
		c0.8,0,1.5-0.2,1.9-0.7c0.5-0.5,0.7-1.1,0.7-1.9c0-0.8-0.3-1.4-0.8-1.8C147.1,26.2,146.4,25.9,145.6,25.9z"/>
	<path class="st0" d="M163.5,31.9v0.3c-0.5,0-0.9,0.1-1.1,0.3c-0.2,0.2-0.3,0.6-0.3,1.2v3c-0.3,0.1-0.8,0.1-1.5,0.2
		C160,37,159.4,37,159,37c-2.1,0-3.7-0.5-4.9-1.5c-1.2-1-1.7-2.4-1.7-4c0-1.2,0.3-2.2,0.8-3.2c0.5-0.9,1.2-1.7,2.1-2.2
		c0.9-0.5,1.9-0.8,2.9-0.8c0.6,0,1.3,0.1,2,0.3c0.5,0.1,0.8,0.2,1.1,0.2c0.3,0,0.5-0.1,0.6-0.4h0.4v3.3h-0.3
		c-0.1-0.9-0.5-1.7-1.3-2.2c-0.7-0.6-1.5-0.8-2.5-0.8c-1.2,0-2.2,0.5-2.9,1.4c-0.8,0.9-1.1,2.2-1.1,3.7c0,1.6,0.4,3,1.3,4.1
		c0.9,1.1,2,1.6,3.3,1.6c1.3,0,1.9-0.4,1.9-1.2v-1.2c0-0.7-0.1-1.2-0.3-1.5c-0.2-0.3-0.5-0.4-1-0.4H159v-0.3H163.5z"/>
	<path class="st0" d="M173.3,34.6v-3.3h-6.1v3.3c0,0.7,0.1,1.1,0.3,1.4c0.2,0.3,0.5,0.4,1,0.4v0.3h-4.1v-0.3c0.5,0,0.8-0.1,1-0.4
		c0.2-0.3,0.3-0.7,0.3-1.4v-7c0-0.7-0.1-1.2-0.3-1.4c-0.2-0.3-0.5-0.4-1-0.4v-0.3h4.1v0.3c-0.5,0-0.8,0.1-1,0.4
		c-0.2,0.3-0.3,0.7-0.3,1.4v3.2h6.1v-3.2c0-0.7-0.1-1.2-0.3-1.4c-0.2-0.3-0.5-0.4-1-0.4v-0.3h4v0.3c-0.5,0-0.8,0.1-1,0.4
		c-0.2,0.3-0.3,0.7-0.3,1.4v7c0,0.7,0.1,1.1,0.3,1.4c0.2,0.3,0.5,0.4,1,0.4v0.3h-4v-0.3c0.5,0,0.8-0.1,1-0.4
		C173.3,35.8,173.3,35.3,173.3,34.6z"/>
</g>
</svg>
